G04 #@! TF.GenerationSoftware,KiCad,Pcbnew,5.1.5+dfsg1-2build2*
G04 #@! TF.CreationDate,2021-05-18T12:59:48+02:00*
G04 #@! TF.ProjectId,OtterStep,4f747465-7253-4746-9570-2e6b69636164,rev?*
G04 #@! TF.SameCoordinates,Original*
G04 #@! TF.FileFunction,Soldermask,Top*
G04 #@! TF.FilePolarity,Negative*
%FSLAX46Y46*%
G04 Gerber Fmt 4.6, Leading zero omitted, Abs format (unit mm)*
G04 Created by KiCad (PCBNEW 5.1.5+dfsg1-2build2) date 2021-05-18 12:59:48*
%MOMM*%
%LPD*%
G04 APERTURE LIST*
%ADD10C,0.100000*%
%ADD11R,1.260000X1.300000*%
%ADD12R,2.400000X3.100000*%
%ADD13R,5.600000X4.800000*%
%ADD14R,0.200000X0.600000*%
%ADD15R,0.600000X0.200000*%
%ADD16R,1.300000X0.700000*%
%ADD17O,3.600000X2.000000*%
%ADD18R,0.650000X1.060000*%
%ADD19C,0.700000*%
%ADD20R,1.400000X1.050000*%
%ADD21R,0.500000X0.600000*%
%ADD22R,0.600000X0.500000*%
%ADD23O,3.600000X1.800000*%
%ADD24R,1.450000X0.600000*%
%ADD25O,2.100000X1.000000*%
%ADD26O,1.600000X1.000000*%
%ADD27C,0.650000*%
%ADD28R,1.450000X0.300000*%
%ADD29R,3.300000X2.500000*%
%ADD30R,0.900000X1.200000*%
%ADD31R,0.700000X1.300000*%
G04 APERTURE END LIST*
D10*
G36*
X89210000Y-57300000D02*
G01*
X88540000Y-57300000D01*
X88540000Y-55050000D01*
X89210000Y-55050000D01*
X89210000Y-54780000D01*
X89330000Y-54780000D01*
X89330000Y-54050000D01*
X90860000Y-54050000D01*
X90860000Y-54780000D01*
X91400000Y-54780000D01*
X91400000Y-57680000D01*
X89210000Y-57680000D01*
X89210000Y-57300000D01*
G37*
G36*
X99590000Y-65700000D02*
G01*
X100260000Y-65700000D01*
X100260000Y-67950000D01*
X99590000Y-67950000D01*
X99590000Y-68220000D01*
X99470000Y-68220000D01*
X99470000Y-68950000D01*
X97940000Y-68950000D01*
X97940000Y-68220000D01*
X97400000Y-68220000D01*
X97400000Y-65320000D01*
X99590000Y-65320000D01*
X99590000Y-65700000D01*
G37*
G36*
X97400000Y-54780000D02*
G01*
X97940000Y-54780000D01*
X97940000Y-54050000D01*
X99470000Y-54050000D01*
X99470000Y-54780000D01*
X99590000Y-54780000D01*
X99590000Y-55050000D01*
X100260000Y-55050000D01*
X100260000Y-57300000D01*
X99590000Y-57300000D01*
X99590000Y-57680000D01*
X97400000Y-57680000D01*
X97400000Y-54780000D01*
G37*
G36*
X91400000Y-68220000D02*
G01*
X90860000Y-68220000D01*
X90860000Y-68950000D01*
X89330000Y-68950000D01*
X89330000Y-68220000D01*
X89210000Y-68220000D01*
X89210000Y-67950000D01*
X88540000Y-67950000D01*
X88540000Y-65700000D01*
X89210000Y-65700000D01*
X89210000Y-65320000D01*
X91400000Y-65320000D01*
X91400000Y-68220000D01*
G37*
D11*
X95820000Y-68290000D03*
X92980000Y-68290000D03*
X92980000Y-54710000D03*
X95820000Y-54710000D03*
D12*
X95780000Y-65770000D03*
X93020000Y-65770000D03*
X93020000Y-57230000D03*
X95780000Y-57230000D03*
D13*
X94440000Y-61500000D03*
D14*
X94080000Y-68640000D03*
X96910000Y-68640000D03*
X91890000Y-68640000D03*
X94720000Y-68640000D03*
X96910000Y-54360000D03*
X91890000Y-54360000D03*
X94720000Y-54360000D03*
X94080000Y-54360000D03*
D15*
X99950000Y-58230000D03*
X99950000Y-58850000D03*
X99950000Y-59250000D03*
X99950000Y-59650000D03*
X99950000Y-60370000D03*
X99950000Y-64770000D03*
X99950000Y-64150000D03*
X99950000Y-63430000D03*
X99950000Y-63030000D03*
X99950000Y-62300000D03*
X99950000Y-61100000D03*
X99950000Y-61900000D03*
X99950000Y-61500000D03*
X88850000Y-58230000D03*
X88850000Y-64770000D03*
X88850000Y-64150000D03*
X88850000Y-63700000D03*
X88850000Y-63300000D03*
X88850000Y-62900000D03*
X88850000Y-62500000D03*
X88850000Y-58850000D03*
X88850000Y-59300000D03*
X88850000Y-59700000D03*
X88850000Y-62100000D03*
X88850000Y-61700000D03*
X88850000Y-61300000D03*
X88850000Y-60900000D03*
X88850000Y-60500000D03*
X88850000Y-60100000D03*
D16*
X88500000Y-71850000D03*
X88500000Y-69950000D03*
X88500000Y-51150000D03*
X88500000Y-53050000D03*
D10*
G36*
X82993934Y-53683884D02*
G01*
X83559620Y-53118198D01*
X84196016Y-53754594D01*
X83630330Y-54320280D01*
X82993934Y-53683884D01*
G37*
G36*
X80907969Y-52941422D02*
G01*
X81473655Y-52375736D01*
X82110051Y-53012132D01*
X81544365Y-53577818D01*
X80907969Y-52941422D01*
G37*
G36*
X82251472Y-51597919D02*
G01*
X82817158Y-51032233D01*
X83453554Y-51668629D01*
X82887868Y-52234315D01*
X82251472Y-51597919D01*
G37*
D17*
X60500000Y-82500000D03*
X60500000Y-77500000D03*
X60500000Y-72500000D03*
D10*
G36*
X62074504Y-66501204D02*
G01*
X62098773Y-66504804D01*
X62122571Y-66510765D01*
X62145671Y-66519030D01*
X62167849Y-66529520D01*
X62188893Y-66542133D01*
X62208598Y-66556747D01*
X62226777Y-66573223D01*
X62243253Y-66591402D01*
X62257867Y-66611107D01*
X62270480Y-66632151D01*
X62280970Y-66654329D01*
X62289235Y-66677429D01*
X62295196Y-66701227D01*
X62298796Y-66725496D01*
X62300000Y-66750000D01*
X62300000Y-68250000D01*
X62298796Y-68274504D01*
X62295196Y-68298773D01*
X62289235Y-68322571D01*
X62280970Y-68345671D01*
X62270480Y-68367849D01*
X62257867Y-68388893D01*
X62243253Y-68408598D01*
X62226777Y-68426777D01*
X62208598Y-68443253D01*
X62188893Y-68457867D01*
X62167849Y-68470480D01*
X62145671Y-68480970D01*
X62122571Y-68489235D01*
X62098773Y-68495196D01*
X62074504Y-68498796D01*
X62050000Y-68500000D01*
X58950000Y-68500000D01*
X58925496Y-68498796D01*
X58901227Y-68495196D01*
X58877429Y-68489235D01*
X58854329Y-68480970D01*
X58832151Y-68470480D01*
X58811107Y-68457867D01*
X58791402Y-68443253D01*
X58773223Y-68426777D01*
X58756747Y-68408598D01*
X58742133Y-68388893D01*
X58729520Y-68367849D01*
X58719030Y-68345671D01*
X58710765Y-68322571D01*
X58704804Y-68298773D01*
X58701204Y-68274504D01*
X58700000Y-68250000D01*
X58700000Y-66750000D01*
X58701204Y-66725496D01*
X58704804Y-66701227D01*
X58710765Y-66677429D01*
X58719030Y-66654329D01*
X58729520Y-66632151D01*
X58742133Y-66611107D01*
X58756747Y-66591402D01*
X58773223Y-66573223D01*
X58791402Y-66556747D01*
X58811107Y-66542133D01*
X58832151Y-66529520D01*
X58854329Y-66519030D01*
X58877429Y-66510765D01*
X58901227Y-66504804D01*
X58925496Y-66501204D01*
X58950000Y-66500000D01*
X62050000Y-66500000D01*
X62074504Y-66501204D01*
G37*
D18*
X103900000Y-87200000D03*
X102950000Y-87200000D03*
X104850000Y-87200000D03*
X104850000Y-89400000D03*
X103900000Y-89400000D03*
X102950000Y-89400000D03*
D10*
G36*
X66014703Y-76605722D02*
G01*
X66029264Y-76607882D01*
X66043543Y-76611459D01*
X66057403Y-76616418D01*
X66070710Y-76622712D01*
X66083336Y-76630280D01*
X66095159Y-76639048D01*
X66106066Y-76648934D01*
X66115952Y-76659841D01*
X66124720Y-76671664D01*
X66132288Y-76684290D01*
X66138582Y-76697597D01*
X66143541Y-76711457D01*
X66147118Y-76725736D01*
X66149278Y-76740297D01*
X66150000Y-76755000D01*
X66150000Y-77055000D01*
X66149278Y-77069703D01*
X66147118Y-77084264D01*
X66143541Y-77098543D01*
X66138582Y-77112403D01*
X66132288Y-77125710D01*
X66124720Y-77138336D01*
X66115952Y-77150159D01*
X66106066Y-77161066D01*
X66095159Y-77170952D01*
X66083336Y-77179720D01*
X66070710Y-77187288D01*
X66057403Y-77193582D01*
X66043543Y-77198541D01*
X66029264Y-77202118D01*
X66014703Y-77204278D01*
X66000000Y-77205000D01*
X64550000Y-77205000D01*
X64535297Y-77204278D01*
X64520736Y-77202118D01*
X64506457Y-77198541D01*
X64492597Y-77193582D01*
X64479290Y-77187288D01*
X64466664Y-77179720D01*
X64454841Y-77170952D01*
X64443934Y-77161066D01*
X64434048Y-77150159D01*
X64425280Y-77138336D01*
X64417712Y-77125710D01*
X64411418Y-77112403D01*
X64406459Y-77098543D01*
X64402882Y-77084264D01*
X64400722Y-77069703D01*
X64400000Y-77055000D01*
X64400000Y-76755000D01*
X64400722Y-76740297D01*
X64402882Y-76725736D01*
X64406459Y-76711457D01*
X64411418Y-76697597D01*
X64417712Y-76684290D01*
X64425280Y-76671664D01*
X64434048Y-76659841D01*
X64443934Y-76648934D01*
X64454841Y-76639048D01*
X64466664Y-76630280D01*
X64479290Y-76622712D01*
X64492597Y-76616418D01*
X64506457Y-76611459D01*
X64520736Y-76607882D01*
X64535297Y-76605722D01*
X64550000Y-76605000D01*
X66000000Y-76605000D01*
X66014703Y-76605722D01*
G37*
G36*
X66014703Y-75335722D02*
G01*
X66029264Y-75337882D01*
X66043543Y-75341459D01*
X66057403Y-75346418D01*
X66070710Y-75352712D01*
X66083336Y-75360280D01*
X66095159Y-75369048D01*
X66106066Y-75378934D01*
X66115952Y-75389841D01*
X66124720Y-75401664D01*
X66132288Y-75414290D01*
X66138582Y-75427597D01*
X66143541Y-75441457D01*
X66147118Y-75455736D01*
X66149278Y-75470297D01*
X66150000Y-75485000D01*
X66150000Y-75785000D01*
X66149278Y-75799703D01*
X66147118Y-75814264D01*
X66143541Y-75828543D01*
X66138582Y-75842403D01*
X66132288Y-75855710D01*
X66124720Y-75868336D01*
X66115952Y-75880159D01*
X66106066Y-75891066D01*
X66095159Y-75900952D01*
X66083336Y-75909720D01*
X66070710Y-75917288D01*
X66057403Y-75923582D01*
X66043543Y-75928541D01*
X66029264Y-75932118D01*
X66014703Y-75934278D01*
X66000000Y-75935000D01*
X64550000Y-75935000D01*
X64535297Y-75934278D01*
X64520736Y-75932118D01*
X64506457Y-75928541D01*
X64492597Y-75923582D01*
X64479290Y-75917288D01*
X64466664Y-75909720D01*
X64454841Y-75900952D01*
X64443934Y-75891066D01*
X64434048Y-75880159D01*
X64425280Y-75868336D01*
X64417712Y-75855710D01*
X64411418Y-75842403D01*
X64406459Y-75828543D01*
X64402882Y-75814264D01*
X64400722Y-75799703D01*
X64400000Y-75785000D01*
X64400000Y-75485000D01*
X64400722Y-75470297D01*
X64402882Y-75455736D01*
X64406459Y-75441457D01*
X64411418Y-75427597D01*
X64417712Y-75414290D01*
X64425280Y-75401664D01*
X64434048Y-75389841D01*
X64443934Y-75378934D01*
X64454841Y-75369048D01*
X64466664Y-75360280D01*
X64479290Y-75352712D01*
X64492597Y-75346418D01*
X64506457Y-75341459D01*
X64520736Y-75337882D01*
X64535297Y-75335722D01*
X64550000Y-75335000D01*
X66000000Y-75335000D01*
X66014703Y-75335722D01*
G37*
G36*
X66014703Y-74065722D02*
G01*
X66029264Y-74067882D01*
X66043543Y-74071459D01*
X66057403Y-74076418D01*
X66070710Y-74082712D01*
X66083336Y-74090280D01*
X66095159Y-74099048D01*
X66106066Y-74108934D01*
X66115952Y-74119841D01*
X66124720Y-74131664D01*
X66132288Y-74144290D01*
X66138582Y-74157597D01*
X66143541Y-74171457D01*
X66147118Y-74185736D01*
X66149278Y-74200297D01*
X66150000Y-74215000D01*
X66150000Y-74515000D01*
X66149278Y-74529703D01*
X66147118Y-74544264D01*
X66143541Y-74558543D01*
X66138582Y-74572403D01*
X66132288Y-74585710D01*
X66124720Y-74598336D01*
X66115952Y-74610159D01*
X66106066Y-74621066D01*
X66095159Y-74630952D01*
X66083336Y-74639720D01*
X66070710Y-74647288D01*
X66057403Y-74653582D01*
X66043543Y-74658541D01*
X66029264Y-74662118D01*
X66014703Y-74664278D01*
X66000000Y-74665000D01*
X64550000Y-74665000D01*
X64535297Y-74664278D01*
X64520736Y-74662118D01*
X64506457Y-74658541D01*
X64492597Y-74653582D01*
X64479290Y-74647288D01*
X64466664Y-74639720D01*
X64454841Y-74630952D01*
X64443934Y-74621066D01*
X64434048Y-74610159D01*
X64425280Y-74598336D01*
X64417712Y-74585710D01*
X64411418Y-74572403D01*
X64406459Y-74558543D01*
X64402882Y-74544264D01*
X64400722Y-74529703D01*
X64400000Y-74515000D01*
X64400000Y-74215000D01*
X64400722Y-74200297D01*
X64402882Y-74185736D01*
X64406459Y-74171457D01*
X64411418Y-74157597D01*
X64417712Y-74144290D01*
X64425280Y-74131664D01*
X64434048Y-74119841D01*
X64443934Y-74108934D01*
X64454841Y-74099048D01*
X64466664Y-74090280D01*
X64479290Y-74082712D01*
X64492597Y-74076418D01*
X64506457Y-74071459D01*
X64520736Y-74067882D01*
X64535297Y-74065722D01*
X64550000Y-74065000D01*
X66000000Y-74065000D01*
X66014703Y-74065722D01*
G37*
G36*
X66014703Y-72795722D02*
G01*
X66029264Y-72797882D01*
X66043543Y-72801459D01*
X66057403Y-72806418D01*
X66070710Y-72812712D01*
X66083336Y-72820280D01*
X66095159Y-72829048D01*
X66106066Y-72838934D01*
X66115952Y-72849841D01*
X66124720Y-72861664D01*
X66132288Y-72874290D01*
X66138582Y-72887597D01*
X66143541Y-72901457D01*
X66147118Y-72915736D01*
X66149278Y-72930297D01*
X66150000Y-72945000D01*
X66150000Y-73245000D01*
X66149278Y-73259703D01*
X66147118Y-73274264D01*
X66143541Y-73288543D01*
X66138582Y-73302403D01*
X66132288Y-73315710D01*
X66124720Y-73328336D01*
X66115952Y-73340159D01*
X66106066Y-73351066D01*
X66095159Y-73360952D01*
X66083336Y-73369720D01*
X66070710Y-73377288D01*
X66057403Y-73383582D01*
X66043543Y-73388541D01*
X66029264Y-73392118D01*
X66014703Y-73394278D01*
X66000000Y-73395000D01*
X64550000Y-73395000D01*
X64535297Y-73394278D01*
X64520736Y-73392118D01*
X64506457Y-73388541D01*
X64492597Y-73383582D01*
X64479290Y-73377288D01*
X64466664Y-73369720D01*
X64454841Y-73360952D01*
X64443934Y-73351066D01*
X64434048Y-73340159D01*
X64425280Y-73328336D01*
X64417712Y-73315710D01*
X64411418Y-73302403D01*
X64406459Y-73288543D01*
X64402882Y-73274264D01*
X64400722Y-73259703D01*
X64400000Y-73245000D01*
X64400000Y-72945000D01*
X64400722Y-72930297D01*
X64402882Y-72915736D01*
X64406459Y-72901457D01*
X64411418Y-72887597D01*
X64417712Y-72874290D01*
X64425280Y-72861664D01*
X64434048Y-72849841D01*
X64443934Y-72838934D01*
X64454841Y-72829048D01*
X64466664Y-72820280D01*
X64479290Y-72812712D01*
X64492597Y-72806418D01*
X64506457Y-72801459D01*
X64520736Y-72797882D01*
X64535297Y-72795722D01*
X64550000Y-72795000D01*
X66000000Y-72795000D01*
X66014703Y-72795722D01*
G37*
G36*
X71164703Y-72795722D02*
G01*
X71179264Y-72797882D01*
X71193543Y-72801459D01*
X71207403Y-72806418D01*
X71220710Y-72812712D01*
X71233336Y-72820280D01*
X71245159Y-72829048D01*
X71256066Y-72838934D01*
X71265952Y-72849841D01*
X71274720Y-72861664D01*
X71282288Y-72874290D01*
X71288582Y-72887597D01*
X71293541Y-72901457D01*
X71297118Y-72915736D01*
X71299278Y-72930297D01*
X71300000Y-72945000D01*
X71300000Y-73245000D01*
X71299278Y-73259703D01*
X71297118Y-73274264D01*
X71293541Y-73288543D01*
X71288582Y-73302403D01*
X71282288Y-73315710D01*
X71274720Y-73328336D01*
X71265952Y-73340159D01*
X71256066Y-73351066D01*
X71245159Y-73360952D01*
X71233336Y-73369720D01*
X71220710Y-73377288D01*
X71207403Y-73383582D01*
X71193543Y-73388541D01*
X71179264Y-73392118D01*
X71164703Y-73394278D01*
X71150000Y-73395000D01*
X69700000Y-73395000D01*
X69685297Y-73394278D01*
X69670736Y-73392118D01*
X69656457Y-73388541D01*
X69642597Y-73383582D01*
X69629290Y-73377288D01*
X69616664Y-73369720D01*
X69604841Y-73360952D01*
X69593934Y-73351066D01*
X69584048Y-73340159D01*
X69575280Y-73328336D01*
X69567712Y-73315710D01*
X69561418Y-73302403D01*
X69556459Y-73288543D01*
X69552882Y-73274264D01*
X69550722Y-73259703D01*
X69550000Y-73245000D01*
X69550000Y-72945000D01*
X69550722Y-72930297D01*
X69552882Y-72915736D01*
X69556459Y-72901457D01*
X69561418Y-72887597D01*
X69567712Y-72874290D01*
X69575280Y-72861664D01*
X69584048Y-72849841D01*
X69593934Y-72838934D01*
X69604841Y-72829048D01*
X69616664Y-72820280D01*
X69629290Y-72812712D01*
X69642597Y-72806418D01*
X69656457Y-72801459D01*
X69670736Y-72797882D01*
X69685297Y-72795722D01*
X69700000Y-72795000D01*
X71150000Y-72795000D01*
X71164703Y-72795722D01*
G37*
G36*
X71164703Y-74065722D02*
G01*
X71179264Y-74067882D01*
X71193543Y-74071459D01*
X71207403Y-74076418D01*
X71220710Y-74082712D01*
X71233336Y-74090280D01*
X71245159Y-74099048D01*
X71256066Y-74108934D01*
X71265952Y-74119841D01*
X71274720Y-74131664D01*
X71282288Y-74144290D01*
X71288582Y-74157597D01*
X71293541Y-74171457D01*
X71297118Y-74185736D01*
X71299278Y-74200297D01*
X71300000Y-74215000D01*
X71300000Y-74515000D01*
X71299278Y-74529703D01*
X71297118Y-74544264D01*
X71293541Y-74558543D01*
X71288582Y-74572403D01*
X71282288Y-74585710D01*
X71274720Y-74598336D01*
X71265952Y-74610159D01*
X71256066Y-74621066D01*
X71245159Y-74630952D01*
X71233336Y-74639720D01*
X71220710Y-74647288D01*
X71207403Y-74653582D01*
X71193543Y-74658541D01*
X71179264Y-74662118D01*
X71164703Y-74664278D01*
X71150000Y-74665000D01*
X69700000Y-74665000D01*
X69685297Y-74664278D01*
X69670736Y-74662118D01*
X69656457Y-74658541D01*
X69642597Y-74653582D01*
X69629290Y-74647288D01*
X69616664Y-74639720D01*
X69604841Y-74630952D01*
X69593934Y-74621066D01*
X69584048Y-74610159D01*
X69575280Y-74598336D01*
X69567712Y-74585710D01*
X69561418Y-74572403D01*
X69556459Y-74558543D01*
X69552882Y-74544264D01*
X69550722Y-74529703D01*
X69550000Y-74515000D01*
X69550000Y-74215000D01*
X69550722Y-74200297D01*
X69552882Y-74185736D01*
X69556459Y-74171457D01*
X69561418Y-74157597D01*
X69567712Y-74144290D01*
X69575280Y-74131664D01*
X69584048Y-74119841D01*
X69593934Y-74108934D01*
X69604841Y-74099048D01*
X69616664Y-74090280D01*
X69629290Y-74082712D01*
X69642597Y-74076418D01*
X69656457Y-74071459D01*
X69670736Y-74067882D01*
X69685297Y-74065722D01*
X69700000Y-74065000D01*
X71150000Y-74065000D01*
X71164703Y-74065722D01*
G37*
G36*
X71164703Y-75335722D02*
G01*
X71179264Y-75337882D01*
X71193543Y-75341459D01*
X71207403Y-75346418D01*
X71220710Y-75352712D01*
X71233336Y-75360280D01*
X71245159Y-75369048D01*
X71256066Y-75378934D01*
X71265952Y-75389841D01*
X71274720Y-75401664D01*
X71282288Y-75414290D01*
X71288582Y-75427597D01*
X71293541Y-75441457D01*
X71297118Y-75455736D01*
X71299278Y-75470297D01*
X71300000Y-75485000D01*
X71300000Y-75785000D01*
X71299278Y-75799703D01*
X71297118Y-75814264D01*
X71293541Y-75828543D01*
X71288582Y-75842403D01*
X71282288Y-75855710D01*
X71274720Y-75868336D01*
X71265952Y-75880159D01*
X71256066Y-75891066D01*
X71245159Y-75900952D01*
X71233336Y-75909720D01*
X71220710Y-75917288D01*
X71207403Y-75923582D01*
X71193543Y-75928541D01*
X71179264Y-75932118D01*
X71164703Y-75934278D01*
X71150000Y-75935000D01*
X69700000Y-75935000D01*
X69685297Y-75934278D01*
X69670736Y-75932118D01*
X69656457Y-75928541D01*
X69642597Y-75923582D01*
X69629290Y-75917288D01*
X69616664Y-75909720D01*
X69604841Y-75900952D01*
X69593934Y-75891066D01*
X69584048Y-75880159D01*
X69575280Y-75868336D01*
X69567712Y-75855710D01*
X69561418Y-75842403D01*
X69556459Y-75828543D01*
X69552882Y-75814264D01*
X69550722Y-75799703D01*
X69550000Y-75785000D01*
X69550000Y-75485000D01*
X69550722Y-75470297D01*
X69552882Y-75455736D01*
X69556459Y-75441457D01*
X69561418Y-75427597D01*
X69567712Y-75414290D01*
X69575280Y-75401664D01*
X69584048Y-75389841D01*
X69593934Y-75378934D01*
X69604841Y-75369048D01*
X69616664Y-75360280D01*
X69629290Y-75352712D01*
X69642597Y-75346418D01*
X69656457Y-75341459D01*
X69670736Y-75337882D01*
X69685297Y-75335722D01*
X69700000Y-75335000D01*
X71150000Y-75335000D01*
X71164703Y-75335722D01*
G37*
G36*
X71164703Y-76605722D02*
G01*
X71179264Y-76607882D01*
X71193543Y-76611459D01*
X71207403Y-76616418D01*
X71220710Y-76622712D01*
X71233336Y-76630280D01*
X71245159Y-76639048D01*
X71256066Y-76648934D01*
X71265952Y-76659841D01*
X71274720Y-76671664D01*
X71282288Y-76684290D01*
X71288582Y-76697597D01*
X71293541Y-76711457D01*
X71297118Y-76725736D01*
X71299278Y-76740297D01*
X71300000Y-76755000D01*
X71300000Y-77055000D01*
X71299278Y-77069703D01*
X71297118Y-77084264D01*
X71293541Y-77098543D01*
X71288582Y-77112403D01*
X71282288Y-77125710D01*
X71274720Y-77138336D01*
X71265952Y-77150159D01*
X71256066Y-77161066D01*
X71245159Y-77170952D01*
X71233336Y-77179720D01*
X71220710Y-77187288D01*
X71207403Y-77193582D01*
X71193543Y-77198541D01*
X71179264Y-77202118D01*
X71164703Y-77204278D01*
X71150000Y-77205000D01*
X69700000Y-77205000D01*
X69685297Y-77204278D01*
X69670736Y-77202118D01*
X69656457Y-77198541D01*
X69642597Y-77193582D01*
X69629290Y-77187288D01*
X69616664Y-77179720D01*
X69604841Y-77170952D01*
X69593934Y-77161066D01*
X69584048Y-77150159D01*
X69575280Y-77138336D01*
X69567712Y-77125710D01*
X69561418Y-77112403D01*
X69556459Y-77098543D01*
X69552882Y-77084264D01*
X69550722Y-77069703D01*
X69550000Y-77055000D01*
X69550000Y-76755000D01*
X69550722Y-76740297D01*
X69552882Y-76725736D01*
X69556459Y-76711457D01*
X69561418Y-76697597D01*
X69567712Y-76684290D01*
X69575280Y-76671664D01*
X69584048Y-76659841D01*
X69593934Y-76648934D01*
X69604841Y-76639048D01*
X69616664Y-76630280D01*
X69629290Y-76622712D01*
X69642597Y-76616418D01*
X69656457Y-76611459D01*
X69670736Y-76607882D01*
X69685297Y-76605722D01*
X69700000Y-76605000D01*
X71150000Y-76605000D01*
X71164703Y-76605722D01*
G37*
G36*
X80479802Y-57902658D02*
G01*
X80487083Y-57903738D01*
X80494222Y-57905526D01*
X80501152Y-57908006D01*
X80507806Y-57911153D01*
X80514119Y-57914937D01*
X80520030Y-57919321D01*
X80525484Y-57924264D01*
X81462400Y-58861180D01*
X81467343Y-58866634D01*
X81471727Y-58872545D01*
X81475511Y-58878858D01*
X81478658Y-58885512D01*
X81481138Y-58892442D01*
X81482926Y-58899581D01*
X81484006Y-58906862D01*
X81484367Y-58914213D01*
X81484006Y-58921564D01*
X81482926Y-58928845D01*
X81481138Y-58935984D01*
X81478658Y-58942914D01*
X81475511Y-58949568D01*
X81471727Y-58955881D01*
X81467343Y-58961792D01*
X81462400Y-58967246D01*
X81356334Y-59073312D01*
X81350880Y-59078255D01*
X81344969Y-59082639D01*
X81338656Y-59086423D01*
X81332002Y-59089570D01*
X81325072Y-59092050D01*
X81317933Y-59093838D01*
X81310652Y-59094918D01*
X81303301Y-59095279D01*
X81295950Y-59094918D01*
X81288669Y-59093838D01*
X81281530Y-59092050D01*
X81274600Y-59089570D01*
X81267946Y-59086423D01*
X81261633Y-59082639D01*
X81255722Y-59078255D01*
X81250268Y-59073312D01*
X80313352Y-58136396D01*
X80308409Y-58130942D01*
X80304025Y-58125031D01*
X80300241Y-58118718D01*
X80297094Y-58112064D01*
X80294614Y-58105134D01*
X80292826Y-58097995D01*
X80291746Y-58090714D01*
X80291385Y-58083363D01*
X80291746Y-58076012D01*
X80292826Y-58068731D01*
X80294614Y-58061592D01*
X80297094Y-58054662D01*
X80300241Y-58048008D01*
X80304025Y-58041695D01*
X80308409Y-58035784D01*
X80313352Y-58030330D01*
X80419418Y-57924264D01*
X80424872Y-57919321D01*
X80430783Y-57914937D01*
X80437096Y-57911153D01*
X80443750Y-57908006D01*
X80450680Y-57905526D01*
X80457819Y-57903738D01*
X80465100Y-57902658D01*
X80472451Y-57902297D01*
X80479802Y-57902658D01*
G37*
G36*
X80126248Y-58256212D02*
G01*
X80133529Y-58257292D01*
X80140668Y-58259080D01*
X80147598Y-58261560D01*
X80154252Y-58264707D01*
X80160565Y-58268491D01*
X80166476Y-58272875D01*
X80171930Y-58277818D01*
X81108846Y-59214734D01*
X81113789Y-59220188D01*
X81118173Y-59226099D01*
X81121957Y-59232412D01*
X81125104Y-59239066D01*
X81127584Y-59245996D01*
X81129372Y-59253135D01*
X81130452Y-59260416D01*
X81130813Y-59267767D01*
X81130452Y-59275118D01*
X81129372Y-59282399D01*
X81127584Y-59289538D01*
X81125104Y-59296468D01*
X81121957Y-59303122D01*
X81118173Y-59309435D01*
X81113789Y-59315346D01*
X81108846Y-59320800D01*
X81002780Y-59426866D01*
X80997326Y-59431809D01*
X80991415Y-59436193D01*
X80985102Y-59439977D01*
X80978448Y-59443124D01*
X80971518Y-59445604D01*
X80964379Y-59447392D01*
X80957098Y-59448472D01*
X80949747Y-59448833D01*
X80942396Y-59448472D01*
X80935115Y-59447392D01*
X80927976Y-59445604D01*
X80921046Y-59443124D01*
X80914392Y-59439977D01*
X80908079Y-59436193D01*
X80902168Y-59431809D01*
X80896714Y-59426866D01*
X79959798Y-58489950D01*
X79954855Y-58484496D01*
X79950471Y-58478585D01*
X79946687Y-58472272D01*
X79943540Y-58465618D01*
X79941060Y-58458688D01*
X79939272Y-58451549D01*
X79938192Y-58444268D01*
X79937831Y-58436917D01*
X79938192Y-58429566D01*
X79939272Y-58422285D01*
X79941060Y-58415146D01*
X79943540Y-58408216D01*
X79946687Y-58401562D01*
X79950471Y-58395249D01*
X79954855Y-58389338D01*
X79959798Y-58383884D01*
X80065864Y-58277818D01*
X80071318Y-58272875D01*
X80077229Y-58268491D01*
X80083542Y-58264707D01*
X80090196Y-58261560D01*
X80097126Y-58259080D01*
X80104265Y-58257292D01*
X80111546Y-58256212D01*
X80118897Y-58255851D01*
X80126248Y-58256212D01*
G37*
G36*
X79772695Y-58609765D02*
G01*
X79779976Y-58610845D01*
X79787115Y-58612633D01*
X79794045Y-58615113D01*
X79800699Y-58618260D01*
X79807012Y-58622044D01*
X79812923Y-58626428D01*
X79818377Y-58631371D01*
X80755293Y-59568287D01*
X80760236Y-59573741D01*
X80764620Y-59579652D01*
X80768404Y-59585965D01*
X80771551Y-59592619D01*
X80774031Y-59599549D01*
X80775819Y-59606688D01*
X80776899Y-59613969D01*
X80777260Y-59621320D01*
X80776899Y-59628671D01*
X80775819Y-59635952D01*
X80774031Y-59643091D01*
X80771551Y-59650021D01*
X80768404Y-59656675D01*
X80764620Y-59662988D01*
X80760236Y-59668899D01*
X80755293Y-59674353D01*
X80649227Y-59780419D01*
X80643773Y-59785362D01*
X80637862Y-59789746D01*
X80631549Y-59793530D01*
X80624895Y-59796677D01*
X80617965Y-59799157D01*
X80610826Y-59800945D01*
X80603545Y-59802025D01*
X80596194Y-59802386D01*
X80588843Y-59802025D01*
X80581562Y-59800945D01*
X80574423Y-59799157D01*
X80567493Y-59796677D01*
X80560839Y-59793530D01*
X80554526Y-59789746D01*
X80548615Y-59785362D01*
X80543161Y-59780419D01*
X79606245Y-58843503D01*
X79601302Y-58838049D01*
X79596918Y-58832138D01*
X79593134Y-58825825D01*
X79589987Y-58819171D01*
X79587507Y-58812241D01*
X79585719Y-58805102D01*
X79584639Y-58797821D01*
X79584278Y-58790470D01*
X79584639Y-58783119D01*
X79585719Y-58775838D01*
X79587507Y-58768699D01*
X79589987Y-58761769D01*
X79593134Y-58755115D01*
X79596918Y-58748802D01*
X79601302Y-58742891D01*
X79606245Y-58737437D01*
X79712311Y-58631371D01*
X79717765Y-58626428D01*
X79723676Y-58622044D01*
X79729989Y-58618260D01*
X79736643Y-58615113D01*
X79743573Y-58612633D01*
X79750712Y-58610845D01*
X79757993Y-58609765D01*
X79765344Y-58609404D01*
X79772695Y-58609765D01*
G37*
G36*
X79419141Y-58963319D02*
G01*
X79426422Y-58964399D01*
X79433561Y-58966187D01*
X79440491Y-58968667D01*
X79447145Y-58971814D01*
X79453458Y-58975598D01*
X79459369Y-58979982D01*
X79464823Y-58984925D01*
X80401739Y-59921841D01*
X80406682Y-59927295D01*
X80411066Y-59933206D01*
X80414850Y-59939519D01*
X80417997Y-59946173D01*
X80420477Y-59953103D01*
X80422265Y-59960242D01*
X80423345Y-59967523D01*
X80423706Y-59974874D01*
X80423345Y-59982225D01*
X80422265Y-59989506D01*
X80420477Y-59996645D01*
X80417997Y-60003575D01*
X80414850Y-60010229D01*
X80411066Y-60016542D01*
X80406682Y-60022453D01*
X80401739Y-60027907D01*
X80295673Y-60133973D01*
X80290219Y-60138916D01*
X80284308Y-60143300D01*
X80277995Y-60147084D01*
X80271341Y-60150231D01*
X80264411Y-60152711D01*
X80257272Y-60154499D01*
X80249991Y-60155579D01*
X80242640Y-60155940D01*
X80235289Y-60155579D01*
X80228008Y-60154499D01*
X80220869Y-60152711D01*
X80213939Y-60150231D01*
X80207285Y-60147084D01*
X80200972Y-60143300D01*
X80195061Y-60138916D01*
X80189607Y-60133973D01*
X79252691Y-59197057D01*
X79247748Y-59191603D01*
X79243364Y-59185692D01*
X79239580Y-59179379D01*
X79236433Y-59172725D01*
X79233953Y-59165795D01*
X79232165Y-59158656D01*
X79231085Y-59151375D01*
X79230724Y-59144024D01*
X79231085Y-59136673D01*
X79232165Y-59129392D01*
X79233953Y-59122253D01*
X79236433Y-59115323D01*
X79239580Y-59108669D01*
X79243364Y-59102356D01*
X79247748Y-59096445D01*
X79252691Y-59090991D01*
X79358757Y-58984925D01*
X79364211Y-58979982D01*
X79370122Y-58975598D01*
X79376435Y-58971814D01*
X79383089Y-58968667D01*
X79390019Y-58966187D01*
X79397158Y-58964399D01*
X79404439Y-58963319D01*
X79411790Y-58962958D01*
X79419141Y-58963319D01*
G37*
G36*
X79065588Y-59316872D02*
G01*
X79072869Y-59317952D01*
X79080008Y-59319740D01*
X79086938Y-59322220D01*
X79093592Y-59325367D01*
X79099905Y-59329151D01*
X79105816Y-59333535D01*
X79111270Y-59338478D01*
X80048186Y-60275394D01*
X80053129Y-60280848D01*
X80057513Y-60286759D01*
X80061297Y-60293072D01*
X80064444Y-60299726D01*
X80066924Y-60306656D01*
X80068712Y-60313795D01*
X80069792Y-60321076D01*
X80070153Y-60328427D01*
X80069792Y-60335778D01*
X80068712Y-60343059D01*
X80066924Y-60350198D01*
X80064444Y-60357128D01*
X80061297Y-60363782D01*
X80057513Y-60370095D01*
X80053129Y-60376006D01*
X80048186Y-60381460D01*
X79942120Y-60487526D01*
X79936666Y-60492469D01*
X79930755Y-60496853D01*
X79924442Y-60500637D01*
X79917788Y-60503784D01*
X79910858Y-60506264D01*
X79903719Y-60508052D01*
X79896438Y-60509132D01*
X79889087Y-60509493D01*
X79881736Y-60509132D01*
X79874455Y-60508052D01*
X79867316Y-60506264D01*
X79860386Y-60503784D01*
X79853732Y-60500637D01*
X79847419Y-60496853D01*
X79841508Y-60492469D01*
X79836054Y-60487526D01*
X78899138Y-59550610D01*
X78894195Y-59545156D01*
X78889811Y-59539245D01*
X78886027Y-59532932D01*
X78882880Y-59526278D01*
X78880400Y-59519348D01*
X78878612Y-59512209D01*
X78877532Y-59504928D01*
X78877171Y-59497577D01*
X78877532Y-59490226D01*
X78878612Y-59482945D01*
X78880400Y-59475806D01*
X78882880Y-59468876D01*
X78886027Y-59462222D01*
X78889811Y-59455909D01*
X78894195Y-59449998D01*
X78899138Y-59444544D01*
X79005204Y-59338478D01*
X79010658Y-59333535D01*
X79016569Y-59329151D01*
X79022882Y-59325367D01*
X79029536Y-59322220D01*
X79036466Y-59319740D01*
X79043605Y-59317952D01*
X79050886Y-59316872D01*
X79058237Y-59316511D01*
X79065588Y-59316872D01*
G37*
G36*
X78712035Y-59670425D02*
G01*
X78719316Y-59671505D01*
X78726455Y-59673293D01*
X78733385Y-59675773D01*
X78740039Y-59678920D01*
X78746352Y-59682704D01*
X78752263Y-59687088D01*
X78757717Y-59692031D01*
X79694633Y-60628947D01*
X79699576Y-60634401D01*
X79703960Y-60640312D01*
X79707744Y-60646625D01*
X79710891Y-60653279D01*
X79713371Y-60660209D01*
X79715159Y-60667348D01*
X79716239Y-60674629D01*
X79716600Y-60681980D01*
X79716239Y-60689331D01*
X79715159Y-60696612D01*
X79713371Y-60703751D01*
X79710891Y-60710681D01*
X79707744Y-60717335D01*
X79703960Y-60723648D01*
X79699576Y-60729559D01*
X79694633Y-60735013D01*
X79588567Y-60841079D01*
X79583113Y-60846022D01*
X79577202Y-60850406D01*
X79570889Y-60854190D01*
X79564235Y-60857337D01*
X79557305Y-60859817D01*
X79550166Y-60861605D01*
X79542885Y-60862685D01*
X79535534Y-60863046D01*
X79528183Y-60862685D01*
X79520902Y-60861605D01*
X79513763Y-60859817D01*
X79506833Y-60857337D01*
X79500179Y-60854190D01*
X79493866Y-60850406D01*
X79487955Y-60846022D01*
X79482501Y-60841079D01*
X78545585Y-59904163D01*
X78540642Y-59898709D01*
X78536258Y-59892798D01*
X78532474Y-59886485D01*
X78529327Y-59879831D01*
X78526847Y-59872901D01*
X78525059Y-59865762D01*
X78523979Y-59858481D01*
X78523618Y-59851130D01*
X78523979Y-59843779D01*
X78525059Y-59836498D01*
X78526847Y-59829359D01*
X78529327Y-59822429D01*
X78532474Y-59815775D01*
X78536258Y-59809462D01*
X78540642Y-59803551D01*
X78545585Y-59798097D01*
X78651651Y-59692031D01*
X78657105Y-59687088D01*
X78663016Y-59682704D01*
X78669329Y-59678920D01*
X78675983Y-59675773D01*
X78682913Y-59673293D01*
X78690052Y-59671505D01*
X78697333Y-59670425D01*
X78704684Y-59670064D01*
X78712035Y-59670425D01*
G37*
G36*
X78358481Y-60023979D02*
G01*
X78365762Y-60025059D01*
X78372901Y-60026847D01*
X78379831Y-60029327D01*
X78386485Y-60032474D01*
X78392798Y-60036258D01*
X78398709Y-60040642D01*
X78404163Y-60045585D01*
X79341079Y-60982501D01*
X79346022Y-60987955D01*
X79350406Y-60993866D01*
X79354190Y-61000179D01*
X79357337Y-61006833D01*
X79359817Y-61013763D01*
X79361605Y-61020902D01*
X79362685Y-61028183D01*
X79363046Y-61035534D01*
X79362685Y-61042885D01*
X79361605Y-61050166D01*
X79359817Y-61057305D01*
X79357337Y-61064235D01*
X79354190Y-61070889D01*
X79350406Y-61077202D01*
X79346022Y-61083113D01*
X79341079Y-61088567D01*
X79235013Y-61194633D01*
X79229559Y-61199576D01*
X79223648Y-61203960D01*
X79217335Y-61207744D01*
X79210681Y-61210891D01*
X79203751Y-61213371D01*
X79196612Y-61215159D01*
X79189331Y-61216239D01*
X79181980Y-61216600D01*
X79174629Y-61216239D01*
X79167348Y-61215159D01*
X79160209Y-61213371D01*
X79153279Y-61210891D01*
X79146625Y-61207744D01*
X79140312Y-61203960D01*
X79134401Y-61199576D01*
X79128947Y-61194633D01*
X78192031Y-60257717D01*
X78187088Y-60252263D01*
X78182704Y-60246352D01*
X78178920Y-60240039D01*
X78175773Y-60233385D01*
X78173293Y-60226455D01*
X78171505Y-60219316D01*
X78170425Y-60212035D01*
X78170064Y-60204684D01*
X78170425Y-60197333D01*
X78171505Y-60190052D01*
X78173293Y-60182913D01*
X78175773Y-60175983D01*
X78178920Y-60169329D01*
X78182704Y-60163016D01*
X78187088Y-60157105D01*
X78192031Y-60151651D01*
X78298097Y-60045585D01*
X78303551Y-60040642D01*
X78309462Y-60036258D01*
X78315775Y-60032474D01*
X78322429Y-60029327D01*
X78329359Y-60026847D01*
X78336498Y-60025059D01*
X78343779Y-60023979D01*
X78351130Y-60023618D01*
X78358481Y-60023979D01*
G37*
G36*
X78004928Y-60377532D02*
G01*
X78012209Y-60378612D01*
X78019348Y-60380400D01*
X78026278Y-60382880D01*
X78032932Y-60386027D01*
X78039245Y-60389811D01*
X78045156Y-60394195D01*
X78050610Y-60399138D01*
X78987526Y-61336054D01*
X78992469Y-61341508D01*
X78996853Y-61347419D01*
X79000637Y-61353732D01*
X79003784Y-61360386D01*
X79006264Y-61367316D01*
X79008052Y-61374455D01*
X79009132Y-61381736D01*
X79009493Y-61389087D01*
X79009132Y-61396438D01*
X79008052Y-61403719D01*
X79006264Y-61410858D01*
X79003784Y-61417788D01*
X79000637Y-61424442D01*
X78996853Y-61430755D01*
X78992469Y-61436666D01*
X78987526Y-61442120D01*
X78881460Y-61548186D01*
X78876006Y-61553129D01*
X78870095Y-61557513D01*
X78863782Y-61561297D01*
X78857128Y-61564444D01*
X78850198Y-61566924D01*
X78843059Y-61568712D01*
X78835778Y-61569792D01*
X78828427Y-61570153D01*
X78821076Y-61569792D01*
X78813795Y-61568712D01*
X78806656Y-61566924D01*
X78799726Y-61564444D01*
X78793072Y-61561297D01*
X78786759Y-61557513D01*
X78780848Y-61553129D01*
X78775394Y-61548186D01*
X77838478Y-60611270D01*
X77833535Y-60605816D01*
X77829151Y-60599905D01*
X77825367Y-60593592D01*
X77822220Y-60586938D01*
X77819740Y-60580008D01*
X77817952Y-60572869D01*
X77816872Y-60565588D01*
X77816511Y-60558237D01*
X77816872Y-60550886D01*
X77817952Y-60543605D01*
X77819740Y-60536466D01*
X77822220Y-60529536D01*
X77825367Y-60522882D01*
X77829151Y-60516569D01*
X77833535Y-60510658D01*
X77838478Y-60505204D01*
X77944544Y-60399138D01*
X77949998Y-60394195D01*
X77955909Y-60389811D01*
X77962222Y-60386027D01*
X77968876Y-60382880D01*
X77975806Y-60380400D01*
X77982945Y-60378612D01*
X77990226Y-60377532D01*
X77997577Y-60377171D01*
X78004928Y-60377532D01*
G37*
G36*
X77651375Y-60731085D02*
G01*
X77658656Y-60732165D01*
X77665795Y-60733953D01*
X77672725Y-60736433D01*
X77679379Y-60739580D01*
X77685692Y-60743364D01*
X77691603Y-60747748D01*
X77697057Y-60752691D01*
X78633973Y-61689607D01*
X78638916Y-61695061D01*
X78643300Y-61700972D01*
X78647084Y-61707285D01*
X78650231Y-61713939D01*
X78652711Y-61720869D01*
X78654499Y-61728008D01*
X78655579Y-61735289D01*
X78655940Y-61742640D01*
X78655579Y-61749991D01*
X78654499Y-61757272D01*
X78652711Y-61764411D01*
X78650231Y-61771341D01*
X78647084Y-61777995D01*
X78643300Y-61784308D01*
X78638916Y-61790219D01*
X78633973Y-61795673D01*
X78527907Y-61901739D01*
X78522453Y-61906682D01*
X78516542Y-61911066D01*
X78510229Y-61914850D01*
X78503575Y-61917997D01*
X78496645Y-61920477D01*
X78489506Y-61922265D01*
X78482225Y-61923345D01*
X78474874Y-61923706D01*
X78467523Y-61923345D01*
X78460242Y-61922265D01*
X78453103Y-61920477D01*
X78446173Y-61917997D01*
X78439519Y-61914850D01*
X78433206Y-61911066D01*
X78427295Y-61906682D01*
X78421841Y-61901739D01*
X77484925Y-60964823D01*
X77479982Y-60959369D01*
X77475598Y-60953458D01*
X77471814Y-60947145D01*
X77468667Y-60940491D01*
X77466187Y-60933561D01*
X77464399Y-60926422D01*
X77463319Y-60919141D01*
X77462958Y-60911790D01*
X77463319Y-60904439D01*
X77464399Y-60897158D01*
X77466187Y-60890019D01*
X77468667Y-60883089D01*
X77471814Y-60876435D01*
X77475598Y-60870122D01*
X77479982Y-60864211D01*
X77484925Y-60858757D01*
X77590991Y-60752691D01*
X77596445Y-60747748D01*
X77602356Y-60743364D01*
X77608669Y-60739580D01*
X77615323Y-60736433D01*
X77622253Y-60733953D01*
X77629392Y-60732165D01*
X77636673Y-60731085D01*
X77644024Y-60730724D01*
X77651375Y-60731085D01*
G37*
G36*
X77297821Y-61084639D02*
G01*
X77305102Y-61085719D01*
X77312241Y-61087507D01*
X77319171Y-61089987D01*
X77325825Y-61093134D01*
X77332138Y-61096918D01*
X77338049Y-61101302D01*
X77343503Y-61106245D01*
X78280419Y-62043161D01*
X78285362Y-62048615D01*
X78289746Y-62054526D01*
X78293530Y-62060839D01*
X78296677Y-62067493D01*
X78299157Y-62074423D01*
X78300945Y-62081562D01*
X78302025Y-62088843D01*
X78302386Y-62096194D01*
X78302025Y-62103545D01*
X78300945Y-62110826D01*
X78299157Y-62117965D01*
X78296677Y-62124895D01*
X78293530Y-62131549D01*
X78289746Y-62137862D01*
X78285362Y-62143773D01*
X78280419Y-62149227D01*
X78174353Y-62255293D01*
X78168899Y-62260236D01*
X78162988Y-62264620D01*
X78156675Y-62268404D01*
X78150021Y-62271551D01*
X78143091Y-62274031D01*
X78135952Y-62275819D01*
X78128671Y-62276899D01*
X78121320Y-62277260D01*
X78113969Y-62276899D01*
X78106688Y-62275819D01*
X78099549Y-62274031D01*
X78092619Y-62271551D01*
X78085965Y-62268404D01*
X78079652Y-62264620D01*
X78073741Y-62260236D01*
X78068287Y-62255293D01*
X77131371Y-61318377D01*
X77126428Y-61312923D01*
X77122044Y-61307012D01*
X77118260Y-61300699D01*
X77115113Y-61294045D01*
X77112633Y-61287115D01*
X77110845Y-61279976D01*
X77109765Y-61272695D01*
X77109404Y-61265344D01*
X77109765Y-61257993D01*
X77110845Y-61250712D01*
X77112633Y-61243573D01*
X77115113Y-61236643D01*
X77118260Y-61229989D01*
X77122044Y-61223676D01*
X77126428Y-61217765D01*
X77131371Y-61212311D01*
X77237437Y-61106245D01*
X77242891Y-61101302D01*
X77248802Y-61096918D01*
X77255115Y-61093134D01*
X77261769Y-61089987D01*
X77268699Y-61087507D01*
X77275838Y-61085719D01*
X77283119Y-61084639D01*
X77290470Y-61084278D01*
X77297821Y-61084639D01*
G37*
G36*
X76944268Y-61438192D02*
G01*
X76951549Y-61439272D01*
X76958688Y-61441060D01*
X76965618Y-61443540D01*
X76972272Y-61446687D01*
X76978585Y-61450471D01*
X76984496Y-61454855D01*
X76989950Y-61459798D01*
X77926866Y-62396714D01*
X77931809Y-62402168D01*
X77936193Y-62408079D01*
X77939977Y-62414392D01*
X77943124Y-62421046D01*
X77945604Y-62427976D01*
X77947392Y-62435115D01*
X77948472Y-62442396D01*
X77948833Y-62449747D01*
X77948472Y-62457098D01*
X77947392Y-62464379D01*
X77945604Y-62471518D01*
X77943124Y-62478448D01*
X77939977Y-62485102D01*
X77936193Y-62491415D01*
X77931809Y-62497326D01*
X77926866Y-62502780D01*
X77820800Y-62608846D01*
X77815346Y-62613789D01*
X77809435Y-62618173D01*
X77803122Y-62621957D01*
X77796468Y-62625104D01*
X77789538Y-62627584D01*
X77782399Y-62629372D01*
X77775118Y-62630452D01*
X77767767Y-62630813D01*
X77760416Y-62630452D01*
X77753135Y-62629372D01*
X77745996Y-62627584D01*
X77739066Y-62625104D01*
X77732412Y-62621957D01*
X77726099Y-62618173D01*
X77720188Y-62613789D01*
X77714734Y-62608846D01*
X76777818Y-61671930D01*
X76772875Y-61666476D01*
X76768491Y-61660565D01*
X76764707Y-61654252D01*
X76761560Y-61647598D01*
X76759080Y-61640668D01*
X76757292Y-61633529D01*
X76756212Y-61626248D01*
X76755851Y-61618897D01*
X76756212Y-61611546D01*
X76757292Y-61604265D01*
X76759080Y-61597126D01*
X76761560Y-61590196D01*
X76764707Y-61583542D01*
X76768491Y-61577229D01*
X76772875Y-61571318D01*
X76777818Y-61565864D01*
X76883884Y-61459798D01*
X76889338Y-61454855D01*
X76895249Y-61450471D01*
X76901562Y-61446687D01*
X76908216Y-61443540D01*
X76915146Y-61441060D01*
X76922285Y-61439272D01*
X76929566Y-61438192D01*
X76936917Y-61437831D01*
X76944268Y-61438192D01*
G37*
G36*
X76590714Y-61791746D02*
G01*
X76597995Y-61792826D01*
X76605134Y-61794614D01*
X76612064Y-61797094D01*
X76618718Y-61800241D01*
X76625031Y-61804025D01*
X76630942Y-61808409D01*
X76636396Y-61813352D01*
X77573312Y-62750268D01*
X77578255Y-62755722D01*
X77582639Y-62761633D01*
X77586423Y-62767946D01*
X77589570Y-62774600D01*
X77592050Y-62781530D01*
X77593838Y-62788669D01*
X77594918Y-62795950D01*
X77595279Y-62803301D01*
X77594918Y-62810652D01*
X77593838Y-62817933D01*
X77592050Y-62825072D01*
X77589570Y-62832002D01*
X77586423Y-62838656D01*
X77582639Y-62844969D01*
X77578255Y-62850880D01*
X77573312Y-62856334D01*
X77467246Y-62962400D01*
X77461792Y-62967343D01*
X77455881Y-62971727D01*
X77449568Y-62975511D01*
X77442914Y-62978658D01*
X77435984Y-62981138D01*
X77428845Y-62982926D01*
X77421564Y-62984006D01*
X77414213Y-62984367D01*
X77406862Y-62984006D01*
X77399581Y-62982926D01*
X77392442Y-62981138D01*
X77385512Y-62978658D01*
X77378858Y-62975511D01*
X77372545Y-62971727D01*
X77366634Y-62967343D01*
X77361180Y-62962400D01*
X76424264Y-62025484D01*
X76419321Y-62020030D01*
X76414937Y-62014119D01*
X76411153Y-62007806D01*
X76408006Y-62001152D01*
X76405526Y-61994222D01*
X76403738Y-61987083D01*
X76402658Y-61979802D01*
X76402297Y-61972451D01*
X76402658Y-61965100D01*
X76403738Y-61957819D01*
X76405526Y-61950680D01*
X76408006Y-61943750D01*
X76411153Y-61937096D01*
X76414937Y-61930783D01*
X76419321Y-61924872D01*
X76424264Y-61919418D01*
X76530330Y-61813352D01*
X76535784Y-61808409D01*
X76541695Y-61804025D01*
X76548008Y-61800241D01*
X76554662Y-61797094D01*
X76561592Y-61794614D01*
X76568731Y-61792826D01*
X76576012Y-61791746D01*
X76583363Y-61791385D01*
X76590714Y-61791746D01*
G37*
G36*
X75423988Y-61791746D02*
G01*
X75431269Y-61792826D01*
X75438408Y-61794614D01*
X75445338Y-61797094D01*
X75451992Y-61800241D01*
X75458305Y-61804025D01*
X75464216Y-61808409D01*
X75469670Y-61813352D01*
X75575736Y-61919418D01*
X75580679Y-61924872D01*
X75585063Y-61930783D01*
X75588847Y-61937096D01*
X75591994Y-61943750D01*
X75594474Y-61950680D01*
X75596262Y-61957819D01*
X75597342Y-61965100D01*
X75597703Y-61972451D01*
X75597342Y-61979802D01*
X75596262Y-61987083D01*
X75594474Y-61994222D01*
X75591994Y-62001152D01*
X75588847Y-62007806D01*
X75585063Y-62014119D01*
X75580679Y-62020030D01*
X75575736Y-62025484D01*
X74638820Y-62962400D01*
X74633366Y-62967343D01*
X74627455Y-62971727D01*
X74621142Y-62975511D01*
X74614488Y-62978658D01*
X74607558Y-62981138D01*
X74600419Y-62982926D01*
X74593138Y-62984006D01*
X74585787Y-62984367D01*
X74578436Y-62984006D01*
X74571155Y-62982926D01*
X74564016Y-62981138D01*
X74557086Y-62978658D01*
X74550432Y-62975511D01*
X74544119Y-62971727D01*
X74538208Y-62967343D01*
X74532754Y-62962400D01*
X74426688Y-62856334D01*
X74421745Y-62850880D01*
X74417361Y-62844969D01*
X74413577Y-62838656D01*
X74410430Y-62832002D01*
X74407950Y-62825072D01*
X74406162Y-62817933D01*
X74405082Y-62810652D01*
X74404721Y-62803301D01*
X74405082Y-62795950D01*
X74406162Y-62788669D01*
X74407950Y-62781530D01*
X74410430Y-62774600D01*
X74413577Y-62767946D01*
X74417361Y-62761633D01*
X74421745Y-62755722D01*
X74426688Y-62750268D01*
X75363604Y-61813352D01*
X75369058Y-61808409D01*
X75374969Y-61804025D01*
X75381282Y-61800241D01*
X75387936Y-61797094D01*
X75394866Y-61794614D01*
X75402005Y-61792826D01*
X75409286Y-61791746D01*
X75416637Y-61791385D01*
X75423988Y-61791746D01*
G37*
G36*
X75070434Y-61438192D02*
G01*
X75077715Y-61439272D01*
X75084854Y-61441060D01*
X75091784Y-61443540D01*
X75098438Y-61446687D01*
X75104751Y-61450471D01*
X75110662Y-61454855D01*
X75116116Y-61459798D01*
X75222182Y-61565864D01*
X75227125Y-61571318D01*
X75231509Y-61577229D01*
X75235293Y-61583542D01*
X75238440Y-61590196D01*
X75240920Y-61597126D01*
X75242708Y-61604265D01*
X75243788Y-61611546D01*
X75244149Y-61618897D01*
X75243788Y-61626248D01*
X75242708Y-61633529D01*
X75240920Y-61640668D01*
X75238440Y-61647598D01*
X75235293Y-61654252D01*
X75231509Y-61660565D01*
X75227125Y-61666476D01*
X75222182Y-61671930D01*
X74285266Y-62608846D01*
X74279812Y-62613789D01*
X74273901Y-62618173D01*
X74267588Y-62621957D01*
X74260934Y-62625104D01*
X74254004Y-62627584D01*
X74246865Y-62629372D01*
X74239584Y-62630452D01*
X74232233Y-62630813D01*
X74224882Y-62630452D01*
X74217601Y-62629372D01*
X74210462Y-62627584D01*
X74203532Y-62625104D01*
X74196878Y-62621957D01*
X74190565Y-62618173D01*
X74184654Y-62613789D01*
X74179200Y-62608846D01*
X74073134Y-62502780D01*
X74068191Y-62497326D01*
X74063807Y-62491415D01*
X74060023Y-62485102D01*
X74056876Y-62478448D01*
X74054396Y-62471518D01*
X74052608Y-62464379D01*
X74051528Y-62457098D01*
X74051167Y-62449747D01*
X74051528Y-62442396D01*
X74052608Y-62435115D01*
X74054396Y-62427976D01*
X74056876Y-62421046D01*
X74060023Y-62414392D01*
X74063807Y-62408079D01*
X74068191Y-62402168D01*
X74073134Y-62396714D01*
X75010050Y-61459798D01*
X75015504Y-61454855D01*
X75021415Y-61450471D01*
X75027728Y-61446687D01*
X75034382Y-61443540D01*
X75041312Y-61441060D01*
X75048451Y-61439272D01*
X75055732Y-61438192D01*
X75063083Y-61437831D01*
X75070434Y-61438192D01*
G37*
G36*
X74716881Y-61084639D02*
G01*
X74724162Y-61085719D01*
X74731301Y-61087507D01*
X74738231Y-61089987D01*
X74744885Y-61093134D01*
X74751198Y-61096918D01*
X74757109Y-61101302D01*
X74762563Y-61106245D01*
X74868629Y-61212311D01*
X74873572Y-61217765D01*
X74877956Y-61223676D01*
X74881740Y-61229989D01*
X74884887Y-61236643D01*
X74887367Y-61243573D01*
X74889155Y-61250712D01*
X74890235Y-61257993D01*
X74890596Y-61265344D01*
X74890235Y-61272695D01*
X74889155Y-61279976D01*
X74887367Y-61287115D01*
X74884887Y-61294045D01*
X74881740Y-61300699D01*
X74877956Y-61307012D01*
X74873572Y-61312923D01*
X74868629Y-61318377D01*
X73931713Y-62255293D01*
X73926259Y-62260236D01*
X73920348Y-62264620D01*
X73914035Y-62268404D01*
X73907381Y-62271551D01*
X73900451Y-62274031D01*
X73893312Y-62275819D01*
X73886031Y-62276899D01*
X73878680Y-62277260D01*
X73871329Y-62276899D01*
X73864048Y-62275819D01*
X73856909Y-62274031D01*
X73849979Y-62271551D01*
X73843325Y-62268404D01*
X73837012Y-62264620D01*
X73831101Y-62260236D01*
X73825647Y-62255293D01*
X73719581Y-62149227D01*
X73714638Y-62143773D01*
X73710254Y-62137862D01*
X73706470Y-62131549D01*
X73703323Y-62124895D01*
X73700843Y-62117965D01*
X73699055Y-62110826D01*
X73697975Y-62103545D01*
X73697614Y-62096194D01*
X73697975Y-62088843D01*
X73699055Y-62081562D01*
X73700843Y-62074423D01*
X73703323Y-62067493D01*
X73706470Y-62060839D01*
X73710254Y-62054526D01*
X73714638Y-62048615D01*
X73719581Y-62043161D01*
X74656497Y-61106245D01*
X74661951Y-61101302D01*
X74667862Y-61096918D01*
X74674175Y-61093134D01*
X74680829Y-61089987D01*
X74687759Y-61087507D01*
X74694898Y-61085719D01*
X74702179Y-61084639D01*
X74709530Y-61084278D01*
X74716881Y-61084639D01*
G37*
G36*
X74363327Y-60731085D02*
G01*
X74370608Y-60732165D01*
X74377747Y-60733953D01*
X74384677Y-60736433D01*
X74391331Y-60739580D01*
X74397644Y-60743364D01*
X74403555Y-60747748D01*
X74409009Y-60752691D01*
X74515075Y-60858757D01*
X74520018Y-60864211D01*
X74524402Y-60870122D01*
X74528186Y-60876435D01*
X74531333Y-60883089D01*
X74533813Y-60890019D01*
X74535601Y-60897158D01*
X74536681Y-60904439D01*
X74537042Y-60911790D01*
X74536681Y-60919141D01*
X74535601Y-60926422D01*
X74533813Y-60933561D01*
X74531333Y-60940491D01*
X74528186Y-60947145D01*
X74524402Y-60953458D01*
X74520018Y-60959369D01*
X74515075Y-60964823D01*
X73578159Y-61901739D01*
X73572705Y-61906682D01*
X73566794Y-61911066D01*
X73560481Y-61914850D01*
X73553827Y-61917997D01*
X73546897Y-61920477D01*
X73539758Y-61922265D01*
X73532477Y-61923345D01*
X73525126Y-61923706D01*
X73517775Y-61923345D01*
X73510494Y-61922265D01*
X73503355Y-61920477D01*
X73496425Y-61917997D01*
X73489771Y-61914850D01*
X73483458Y-61911066D01*
X73477547Y-61906682D01*
X73472093Y-61901739D01*
X73366027Y-61795673D01*
X73361084Y-61790219D01*
X73356700Y-61784308D01*
X73352916Y-61777995D01*
X73349769Y-61771341D01*
X73347289Y-61764411D01*
X73345501Y-61757272D01*
X73344421Y-61749991D01*
X73344060Y-61742640D01*
X73344421Y-61735289D01*
X73345501Y-61728008D01*
X73347289Y-61720869D01*
X73349769Y-61713939D01*
X73352916Y-61707285D01*
X73356700Y-61700972D01*
X73361084Y-61695061D01*
X73366027Y-61689607D01*
X74302943Y-60752691D01*
X74308397Y-60747748D01*
X74314308Y-60743364D01*
X74320621Y-60739580D01*
X74327275Y-60736433D01*
X74334205Y-60733953D01*
X74341344Y-60732165D01*
X74348625Y-60731085D01*
X74355976Y-60730724D01*
X74363327Y-60731085D01*
G37*
G36*
X74009774Y-60377532D02*
G01*
X74017055Y-60378612D01*
X74024194Y-60380400D01*
X74031124Y-60382880D01*
X74037778Y-60386027D01*
X74044091Y-60389811D01*
X74050002Y-60394195D01*
X74055456Y-60399138D01*
X74161522Y-60505204D01*
X74166465Y-60510658D01*
X74170849Y-60516569D01*
X74174633Y-60522882D01*
X74177780Y-60529536D01*
X74180260Y-60536466D01*
X74182048Y-60543605D01*
X74183128Y-60550886D01*
X74183489Y-60558237D01*
X74183128Y-60565588D01*
X74182048Y-60572869D01*
X74180260Y-60580008D01*
X74177780Y-60586938D01*
X74174633Y-60593592D01*
X74170849Y-60599905D01*
X74166465Y-60605816D01*
X74161522Y-60611270D01*
X73224606Y-61548186D01*
X73219152Y-61553129D01*
X73213241Y-61557513D01*
X73206928Y-61561297D01*
X73200274Y-61564444D01*
X73193344Y-61566924D01*
X73186205Y-61568712D01*
X73178924Y-61569792D01*
X73171573Y-61570153D01*
X73164222Y-61569792D01*
X73156941Y-61568712D01*
X73149802Y-61566924D01*
X73142872Y-61564444D01*
X73136218Y-61561297D01*
X73129905Y-61557513D01*
X73123994Y-61553129D01*
X73118540Y-61548186D01*
X73012474Y-61442120D01*
X73007531Y-61436666D01*
X73003147Y-61430755D01*
X72999363Y-61424442D01*
X72996216Y-61417788D01*
X72993736Y-61410858D01*
X72991948Y-61403719D01*
X72990868Y-61396438D01*
X72990507Y-61389087D01*
X72990868Y-61381736D01*
X72991948Y-61374455D01*
X72993736Y-61367316D01*
X72996216Y-61360386D01*
X72999363Y-61353732D01*
X73003147Y-61347419D01*
X73007531Y-61341508D01*
X73012474Y-61336054D01*
X73949390Y-60399138D01*
X73954844Y-60394195D01*
X73960755Y-60389811D01*
X73967068Y-60386027D01*
X73973722Y-60382880D01*
X73980652Y-60380400D01*
X73987791Y-60378612D01*
X73995072Y-60377532D01*
X74002423Y-60377171D01*
X74009774Y-60377532D01*
G37*
G36*
X73656221Y-60023979D02*
G01*
X73663502Y-60025059D01*
X73670641Y-60026847D01*
X73677571Y-60029327D01*
X73684225Y-60032474D01*
X73690538Y-60036258D01*
X73696449Y-60040642D01*
X73701903Y-60045585D01*
X73807969Y-60151651D01*
X73812912Y-60157105D01*
X73817296Y-60163016D01*
X73821080Y-60169329D01*
X73824227Y-60175983D01*
X73826707Y-60182913D01*
X73828495Y-60190052D01*
X73829575Y-60197333D01*
X73829936Y-60204684D01*
X73829575Y-60212035D01*
X73828495Y-60219316D01*
X73826707Y-60226455D01*
X73824227Y-60233385D01*
X73821080Y-60240039D01*
X73817296Y-60246352D01*
X73812912Y-60252263D01*
X73807969Y-60257717D01*
X72871053Y-61194633D01*
X72865599Y-61199576D01*
X72859688Y-61203960D01*
X72853375Y-61207744D01*
X72846721Y-61210891D01*
X72839791Y-61213371D01*
X72832652Y-61215159D01*
X72825371Y-61216239D01*
X72818020Y-61216600D01*
X72810669Y-61216239D01*
X72803388Y-61215159D01*
X72796249Y-61213371D01*
X72789319Y-61210891D01*
X72782665Y-61207744D01*
X72776352Y-61203960D01*
X72770441Y-61199576D01*
X72764987Y-61194633D01*
X72658921Y-61088567D01*
X72653978Y-61083113D01*
X72649594Y-61077202D01*
X72645810Y-61070889D01*
X72642663Y-61064235D01*
X72640183Y-61057305D01*
X72638395Y-61050166D01*
X72637315Y-61042885D01*
X72636954Y-61035534D01*
X72637315Y-61028183D01*
X72638395Y-61020902D01*
X72640183Y-61013763D01*
X72642663Y-61006833D01*
X72645810Y-61000179D01*
X72649594Y-60993866D01*
X72653978Y-60987955D01*
X72658921Y-60982501D01*
X73595837Y-60045585D01*
X73601291Y-60040642D01*
X73607202Y-60036258D01*
X73613515Y-60032474D01*
X73620169Y-60029327D01*
X73627099Y-60026847D01*
X73634238Y-60025059D01*
X73641519Y-60023979D01*
X73648870Y-60023618D01*
X73656221Y-60023979D01*
G37*
G36*
X73302667Y-59670425D02*
G01*
X73309948Y-59671505D01*
X73317087Y-59673293D01*
X73324017Y-59675773D01*
X73330671Y-59678920D01*
X73336984Y-59682704D01*
X73342895Y-59687088D01*
X73348349Y-59692031D01*
X73454415Y-59798097D01*
X73459358Y-59803551D01*
X73463742Y-59809462D01*
X73467526Y-59815775D01*
X73470673Y-59822429D01*
X73473153Y-59829359D01*
X73474941Y-59836498D01*
X73476021Y-59843779D01*
X73476382Y-59851130D01*
X73476021Y-59858481D01*
X73474941Y-59865762D01*
X73473153Y-59872901D01*
X73470673Y-59879831D01*
X73467526Y-59886485D01*
X73463742Y-59892798D01*
X73459358Y-59898709D01*
X73454415Y-59904163D01*
X72517499Y-60841079D01*
X72512045Y-60846022D01*
X72506134Y-60850406D01*
X72499821Y-60854190D01*
X72493167Y-60857337D01*
X72486237Y-60859817D01*
X72479098Y-60861605D01*
X72471817Y-60862685D01*
X72464466Y-60863046D01*
X72457115Y-60862685D01*
X72449834Y-60861605D01*
X72442695Y-60859817D01*
X72435765Y-60857337D01*
X72429111Y-60854190D01*
X72422798Y-60850406D01*
X72416887Y-60846022D01*
X72411433Y-60841079D01*
X72305367Y-60735013D01*
X72300424Y-60729559D01*
X72296040Y-60723648D01*
X72292256Y-60717335D01*
X72289109Y-60710681D01*
X72286629Y-60703751D01*
X72284841Y-60696612D01*
X72283761Y-60689331D01*
X72283400Y-60681980D01*
X72283761Y-60674629D01*
X72284841Y-60667348D01*
X72286629Y-60660209D01*
X72289109Y-60653279D01*
X72292256Y-60646625D01*
X72296040Y-60640312D01*
X72300424Y-60634401D01*
X72305367Y-60628947D01*
X73242283Y-59692031D01*
X73247737Y-59687088D01*
X73253648Y-59682704D01*
X73259961Y-59678920D01*
X73266615Y-59675773D01*
X73273545Y-59673293D01*
X73280684Y-59671505D01*
X73287965Y-59670425D01*
X73295316Y-59670064D01*
X73302667Y-59670425D01*
G37*
G36*
X72949114Y-59316872D02*
G01*
X72956395Y-59317952D01*
X72963534Y-59319740D01*
X72970464Y-59322220D01*
X72977118Y-59325367D01*
X72983431Y-59329151D01*
X72989342Y-59333535D01*
X72994796Y-59338478D01*
X73100862Y-59444544D01*
X73105805Y-59449998D01*
X73110189Y-59455909D01*
X73113973Y-59462222D01*
X73117120Y-59468876D01*
X73119600Y-59475806D01*
X73121388Y-59482945D01*
X73122468Y-59490226D01*
X73122829Y-59497577D01*
X73122468Y-59504928D01*
X73121388Y-59512209D01*
X73119600Y-59519348D01*
X73117120Y-59526278D01*
X73113973Y-59532932D01*
X73110189Y-59539245D01*
X73105805Y-59545156D01*
X73100862Y-59550610D01*
X72163946Y-60487526D01*
X72158492Y-60492469D01*
X72152581Y-60496853D01*
X72146268Y-60500637D01*
X72139614Y-60503784D01*
X72132684Y-60506264D01*
X72125545Y-60508052D01*
X72118264Y-60509132D01*
X72110913Y-60509493D01*
X72103562Y-60509132D01*
X72096281Y-60508052D01*
X72089142Y-60506264D01*
X72082212Y-60503784D01*
X72075558Y-60500637D01*
X72069245Y-60496853D01*
X72063334Y-60492469D01*
X72057880Y-60487526D01*
X71951814Y-60381460D01*
X71946871Y-60376006D01*
X71942487Y-60370095D01*
X71938703Y-60363782D01*
X71935556Y-60357128D01*
X71933076Y-60350198D01*
X71931288Y-60343059D01*
X71930208Y-60335778D01*
X71929847Y-60328427D01*
X71930208Y-60321076D01*
X71931288Y-60313795D01*
X71933076Y-60306656D01*
X71935556Y-60299726D01*
X71938703Y-60293072D01*
X71942487Y-60286759D01*
X71946871Y-60280848D01*
X71951814Y-60275394D01*
X72888730Y-59338478D01*
X72894184Y-59333535D01*
X72900095Y-59329151D01*
X72906408Y-59325367D01*
X72913062Y-59322220D01*
X72919992Y-59319740D01*
X72927131Y-59317952D01*
X72934412Y-59316872D01*
X72941763Y-59316511D01*
X72949114Y-59316872D01*
G37*
G36*
X72595561Y-58963319D02*
G01*
X72602842Y-58964399D01*
X72609981Y-58966187D01*
X72616911Y-58968667D01*
X72623565Y-58971814D01*
X72629878Y-58975598D01*
X72635789Y-58979982D01*
X72641243Y-58984925D01*
X72747309Y-59090991D01*
X72752252Y-59096445D01*
X72756636Y-59102356D01*
X72760420Y-59108669D01*
X72763567Y-59115323D01*
X72766047Y-59122253D01*
X72767835Y-59129392D01*
X72768915Y-59136673D01*
X72769276Y-59144024D01*
X72768915Y-59151375D01*
X72767835Y-59158656D01*
X72766047Y-59165795D01*
X72763567Y-59172725D01*
X72760420Y-59179379D01*
X72756636Y-59185692D01*
X72752252Y-59191603D01*
X72747309Y-59197057D01*
X71810393Y-60133973D01*
X71804939Y-60138916D01*
X71799028Y-60143300D01*
X71792715Y-60147084D01*
X71786061Y-60150231D01*
X71779131Y-60152711D01*
X71771992Y-60154499D01*
X71764711Y-60155579D01*
X71757360Y-60155940D01*
X71750009Y-60155579D01*
X71742728Y-60154499D01*
X71735589Y-60152711D01*
X71728659Y-60150231D01*
X71722005Y-60147084D01*
X71715692Y-60143300D01*
X71709781Y-60138916D01*
X71704327Y-60133973D01*
X71598261Y-60027907D01*
X71593318Y-60022453D01*
X71588934Y-60016542D01*
X71585150Y-60010229D01*
X71582003Y-60003575D01*
X71579523Y-59996645D01*
X71577735Y-59989506D01*
X71576655Y-59982225D01*
X71576294Y-59974874D01*
X71576655Y-59967523D01*
X71577735Y-59960242D01*
X71579523Y-59953103D01*
X71582003Y-59946173D01*
X71585150Y-59939519D01*
X71588934Y-59933206D01*
X71593318Y-59927295D01*
X71598261Y-59921841D01*
X72535177Y-58984925D01*
X72540631Y-58979982D01*
X72546542Y-58975598D01*
X72552855Y-58971814D01*
X72559509Y-58968667D01*
X72566439Y-58966187D01*
X72573578Y-58964399D01*
X72580859Y-58963319D01*
X72588210Y-58962958D01*
X72595561Y-58963319D01*
G37*
G36*
X72242007Y-58609765D02*
G01*
X72249288Y-58610845D01*
X72256427Y-58612633D01*
X72263357Y-58615113D01*
X72270011Y-58618260D01*
X72276324Y-58622044D01*
X72282235Y-58626428D01*
X72287689Y-58631371D01*
X72393755Y-58737437D01*
X72398698Y-58742891D01*
X72403082Y-58748802D01*
X72406866Y-58755115D01*
X72410013Y-58761769D01*
X72412493Y-58768699D01*
X72414281Y-58775838D01*
X72415361Y-58783119D01*
X72415722Y-58790470D01*
X72415361Y-58797821D01*
X72414281Y-58805102D01*
X72412493Y-58812241D01*
X72410013Y-58819171D01*
X72406866Y-58825825D01*
X72403082Y-58832138D01*
X72398698Y-58838049D01*
X72393755Y-58843503D01*
X71456839Y-59780419D01*
X71451385Y-59785362D01*
X71445474Y-59789746D01*
X71439161Y-59793530D01*
X71432507Y-59796677D01*
X71425577Y-59799157D01*
X71418438Y-59800945D01*
X71411157Y-59802025D01*
X71403806Y-59802386D01*
X71396455Y-59802025D01*
X71389174Y-59800945D01*
X71382035Y-59799157D01*
X71375105Y-59796677D01*
X71368451Y-59793530D01*
X71362138Y-59789746D01*
X71356227Y-59785362D01*
X71350773Y-59780419D01*
X71244707Y-59674353D01*
X71239764Y-59668899D01*
X71235380Y-59662988D01*
X71231596Y-59656675D01*
X71228449Y-59650021D01*
X71225969Y-59643091D01*
X71224181Y-59635952D01*
X71223101Y-59628671D01*
X71222740Y-59621320D01*
X71223101Y-59613969D01*
X71224181Y-59606688D01*
X71225969Y-59599549D01*
X71228449Y-59592619D01*
X71231596Y-59585965D01*
X71235380Y-59579652D01*
X71239764Y-59573741D01*
X71244707Y-59568287D01*
X72181623Y-58631371D01*
X72187077Y-58626428D01*
X72192988Y-58622044D01*
X72199301Y-58618260D01*
X72205955Y-58615113D01*
X72212885Y-58612633D01*
X72220024Y-58610845D01*
X72227305Y-58609765D01*
X72234656Y-58609404D01*
X72242007Y-58609765D01*
G37*
G36*
X71888454Y-58256212D02*
G01*
X71895735Y-58257292D01*
X71902874Y-58259080D01*
X71909804Y-58261560D01*
X71916458Y-58264707D01*
X71922771Y-58268491D01*
X71928682Y-58272875D01*
X71934136Y-58277818D01*
X72040202Y-58383884D01*
X72045145Y-58389338D01*
X72049529Y-58395249D01*
X72053313Y-58401562D01*
X72056460Y-58408216D01*
X72058940Y-58415146D01*
X72060728Y-58422285D01*
X72061808Y-58429566D01*
X72062169Y-58436917D01*
X72061808Y-58444268D01*
X72060728Y-58451549D01*
X72058940Y-58458688D01*
X72056460Y-58465618D01*
X72053313Y-58472272D01*
X72049529Y-58478585D01*
X72045145Y-58484496D01*
X72040202Y-58489950D01*
X71103286Y-59426866D01*
X71097832Y-59431809D01*
X71091921Y-59436193D01*
X71085608Y-59439977D01*
X71078954Y-59443124D01*
X71072024Y-59445604D01*
X71064885Y-59447392D01*
X71057604Y-59448472D01*
X71050253Y-59448833D01*
X71042902Y-59448472D01*
X71035621Y-59447392D01*
X71028482Y-59445604D01*
X71021552Y-59443124D01*
X71014898Y-59439977D01*
X71008585Y-59436193D01*
X71002674Y-59431809D01*
X70997220Y-59426866D01*
X70891154Y-59320800D01*
X70886211Y-59315346D01*
X70881827Y-59309435D01*
X70878043Y-59303122D01*
X70874896Y-59296468D01*
X70872416Y-59289538D01*
X70870628Y-59282399D01*
X70869548Y-59275118D01*
X70869187Y-59267767D01*
X70869548Y-59260416D01*
X70870628Y-59253135D01*
X70872416Y-59245996D01*
X70874896Y-59239066D01*
X70878043Y-59232412D01*
X70881827Y-59226099D01*
X70886211Y-59220188D01*
X70891154Y-59214734D01*
X71828070Y-58277818D01*
X71833524Y-58272875D01*
X71839435Y-58268491D01*
X71845748Y-58264707D01*
X71852402Y-58261560D01*
X71859332Y-58259080D01*
X71866471Y-58257292D01*
X71873752Y-58256212D01*
X71881103Y-58255851D01*
X71888454Y-58256212D01*
G37*
G36*
X71534900Y-57902658D02*
G01*
X71542181Y-57903738D01*
X71549320Y-57905526D01*
X71556250Y-57908006D01*
X71562904Y-57911153D01*
X71569217Y-57914937D01*
X71575128Y-57919321D01*
X71580582Y-57924264D01*
X71686648Y-58030330D01*
X71691591Y-58035784D01*
X71695975Y-58041695D01*
X71699759Y-58048008D01*
X71702906Y-58054662D01*
X71705386Y-58061592D01*
X71707174Y-58068731D01*
X71708254Y-58076012D01*
X71708615Y-58083363D01*
X71708254Y-58090714D01*
X71707174Y-58097995D01*
X71705386Y-58105134D01*
X71702906Y-58112064D01*
X71699759Y-58118718D01*
X71695975Y-58125031D01*
X71691591Y-58130942D01*
X71686648Y-58136396D01*
X70749732Y-59073312D01*
X70744278Y-59078255D01*
X70738367Y-59082639D01*
X70732054Y-59086423D01*
X70725400Y-59089570D01*
X70718470Y-59092050D01*
X70711331Y-59093838D01*
X70704050Y-59094918D01*
X70696699Y-59095279D01*
X70689348Y-59094918D01*
X70682067Y-59093838D01*
X70674928Y-59092050D01*
X70667998Y-59089570D01*
X70661344Y-59086423D01*
X70655031Y-59082639D01*
X70649120Y-59078255D01*
X70643666Y-59073312D01*
X70537600Y-58967246D01*
X70532657Y-58961792D01*
X70528273Y-58955881D01*
X70524489Y-58949568D01*
X70521342Y-58942914D01*
X70518862Y-58935984D01*
X70517074Y-58928845D01*
X70515994Y-58921564D01*
X70515633Y-58914213D01*
X70515994Y-58906862D01*
X70517074Y-58899581D01*
X70518862Y-58892442D01*
X70521342Y-58885512D01*
X70524489Y-58878858D01*
X70528273Y-58872545D01*
X70532657Y-58866634D01*
X70537600Y-58861180D01*
X71474516Y-57924264D01*
X71479970Y-57919321D01*
X71485881Y-57914937D01*
X71492194Y-57911153D01*
X71498848Y-57908006D01*
X71505778Y-57905526D01*
X71512917Y-57903738D01*
X71520198Y-57902658D01*
X71527549Y-57902297D01*
X71534900Y-57902658D01*
G37*
G36*
X70704050Y-55905082D02*
G01*
X70711331Y-55906162D01*
X70718470Y-55907950D01*
X70725400Y-55910430D01*
X70732054Y-55913577D01*
X70738367Y-55917361D01*
X70744278Y-55921745D01*
X70749732Y-55926688D01*
X71686648Y-56863604D01*
X71691591Y-56869058D01*
X71695975Y-56874969D01*
X71699759Y-56881282D01*
X71702906Y-56887936D01*
X71705386Y-56894866D01*
X71707174Y-56902005D01*
X71708254Y-56909286D01*
X71708615Y-56916637D01*
X71708254Y-56923988D01*
X71707174Y-56931269D01*
X71705386Y-56938408D01*
X71702906Y-56945338D01*
X71699759Y-56951992D01*
X71695975Y-56958305D01*
X71691591Y-56964216D01*
X71686648Y-56969670D01*
X71580582Y-57075736D01*
X71575128Y-57080679D01*
X71569217Y-57085063D01*
X71562904Y-57088847D01*
X71556250Y-57091994D01*
X71549320Y-57094474D01*
X71542181Y-57096262D01*
X71534900Y-57097342D01*
X71527549Y-57097703D01*
X71520198Y-57097342D01*
X71512917Y-57096262D01*
X71505778Y-57094474D01*
X71498848Y-57091994D01*
X71492194Y-57088847D01*
X71485881Y-57085063D01*
X71479970Y-57080679D01*
X71474516Y-57075736D01*
X70537600Y-56138820D01*
X70532657Y-56133366D01*
X70528273Y-56127455D01*
X70524489Y-56121142D01*
X70521342Y-56114488D01*
X70518862Y-56107558D01*
X70517074Y-56100419D01*
X70515994Y-56093138D01*
X70515633Y-56085787D01*
X70515994Y-56078436D01*
X70517074Y-56071155D01*
X70518862Y-56064016D01*
X70521342Y-56057086D01*
X70524489Y-56050432D01*
X70528273Y-56044119D01*
X70532657Y-56038208D01*
X70537600Y-56032754D01*
X70643666Y-55926688D01*
X70649120Y-55921745D01*
X70655031Y-55917361D01*
X70661344Y-55913577D01*
X70667998Y-55910430D01*
X70674928Y-55907950D01*
X70682067Y-55906162D01*
X70689348Y-55905082D01*
X70696699Y-55904721D01*
X70704050Y-55905082D01*
G37*
G36*
X71057604Y-55551528D02*
G01*
X71064885Y-55552608D01*
X71072024Y-55554396D01*
X71078954Y-55556876D01*
X71085608Y-55560023D01*
X71091921Y-55563807D01*
X71097832Y-55568191D01*
X71103286Y-55573134D01*
X72040202Y-56510050D01*
X72045145Y-56515504D01*
X72049529Y-56521415D01*
X72053313Y-56527728D01*
X72056460Y-56534382D01*
X72058940Y-56541312D01*
X72060728Y-56548451D01*
X72061808Y-56555732D01*
X72062169Y-56563083D01*
X72061808Y-56570434D01*
X72060728Y-56577715D01*
X72058940Y-56584854D01*
X72056460Y-56591784D01*
X72053313Y-56598438D01*
X72049529Y-56604751D01*
X72045145Y-56610662D01*
X72040202Y-56616116D01*
X71934136Y-56722182D01*
X71928682Y-56727125D01*
X71922771Y-56731509D01*
X71916458Y-56735293D01*
X71909804Y-56738440D01*
X71902874Y-56740920D01*
X71895735Y-56742708D01*
X71888454Y-56743788D01*
X71881103Y-56744149D01*
X71873752Y-56743788D01*
X71866471Y-56742708D01*
X71859332Y-56740920D01*
X71852402Y-56738440D01*
X71845748Y-56735293D01*
X71839435Y-56731509D01*
X71833524Y-56727125D01*
X71828070Y-56722182D01*
X70891154Y-55785266D01*
X70886211Y-55779812D01*
X70881827Y-55773901D01*
X70878043Y-55767588D01*
X70874896Y-55760934D01*
X70872416Y-55754004D01*
X70870628Y-55746865D01*
X70869548Y-55739584D01*
X70869187Y-55732233D01*
X70869548Y-55724882D01*
X70870628Y-55717601D01*
X70872416Y-55710462D01*
X70874896Y-55703532D01*
X70878043Y-55696878D01*
X70881827Y-55690565D01*
X70886211Y-55684654D01*
X70891154Y-55679200D01*
X70997220Y-55573134D01*
X71002674Y-55568191D01*
X71008585Y-55563807D01*
X71014898Y-55560023D01*
X71021552Y-55556876D01*
X71028482Y-55554396D01*
X71035621Y-55552608D01*
X71042902Y-55551528D01*
X71050253Y-55551167D01*
X71057604Y-55551528D01*
G37*
G36*
X71411157Y-55197975D02*
G01*
X71418438Y-55199055D01*
X71425577Y-55200843D01*
X71432507Y-55203323D01*
X71439161Y-55206470D01*
X71445474Y-55210254D01*
X71451385Y-55214638D01*
X71456839Y-55219581D01*
X72393755Y-56156497D01*
X72398698Y-56161951D01*
X72403082Y-56167862D01*
X72406866Y-56174175D01*
X72410013Y-56180829D01*
X72412493Y-56187759D01*
X72414281Y-56194898D01*
X72415361Y-56202179D01*
X72415722Y-56209530D01*
X72415361Y-56216881D01*
X72414281Y-56224162D01*
X72412493Y-56231301D01*
X72410013Y-56238231D01*
X72406866Y-56244885D01*
X72403082Y-56251198D01*
X72398698Y-56257109D01*
X72393755Y-56262563D01*
X72287689Y-56368629D01*
X72282235Y-56373572D01*
X72276324Y-56377956D01*
X72270011Y-56381740D01*
X72263357Y-56384887D01*
X72256427Y-56387367D01*
X72249288Y-56389155D01*
X72242007Y-56390235D01*
X72234656Y-56390596D01*
X72227305Y-56390235D01*
X72220024Y-56389155D01*
X72212885Y-56387367D01*
X72205955Y-56384887D01*
X72199301Y-56381740D01*
X72192988Y-56377956D01*
X72187077Y-56373572D01*
X72181623Y-56368629D01*
X71244707Y-55431713D01*
X71239764Y-55426259D01*
X71235380Y-55420348D01*
X71231596Y-55414035D01*
X71228449Y-55407381D01*
X71225969Y-55400451D01*
X71224181Y-55393312D01*
X71223101Y-55386031D01*
X71222740Y-55378680D01*
X71223101Y-55371329D01*
X71224181Y-55364048D01*
X71225969Y-55356909D01*
X71228449Y-55349979D01*
X71231596Y-55343325D01*
X71235380Y-55337012D01*
X71239764Y-55331101D01*
X71244707Y-55325647D01*
X71350773Y-55219581D01*
X71356227Y-55214638D01*
X71362138Y-55210254D01*
X71368451Y-55206470D01*
X71375105Y-55203323D01*
X71382035Y-55200843D01*
X71389174Y-55199055D01*
X71396455Y-55197975D01*
X71403806Y-55197614D01*
X71411157Y-55197975D01*
G37*
G36*
X71764711Y-54844421D02*
G01*
X71771992Y-54845501D01*
X71779131Y-54847289D01*
X71786061Y-54849769D01*
X71792715Y-54852916D01*
X71799028Y-54856700D01*
X71804939Y-54861084D01*
X71810393Y-54866027D01*
X72747309Y-55802943D01*
X72752252Y-55808397D01*
X72756636Y-55814308D01*
X72760420Y-55820621D01*
X72763567Y-55827275D01*
X72766047Y-55834205D01*
X72767835Y-55841344D01*
X72768915Y-55848625D01*
X72769276Y-55855976D01*
X72768915Y-55863327D01*
X72767835Y-55870608D01*
X72766047Y-55877747D01*
X72763567Y-55884677D01*
X72760420Y-55891331D01*
X72756636Y-55897644D01*
X72752252Y-55903555D01*
X72747309Y-55909009D01*
X72641243Y-56015075D01*
X72635789Y-56020018D01*
X72629878Y-56024402D01*
X72623565Y-56028186D01*
X72616911Y-56031333D01*
X72609981Y-56033813D01*
X72602842Y-56035601D01*
X72595561Y-56036681D01*
X72588210Y-56037042D01*
X72580859Y-56036681D01*
X72573578Y-56035601D01*
X72566439Y-56033813D01*
X72559509Y-56031333D01*
X72552855Y-56028186D01*
X72546542Y-56024402D01*
X72540631Y-56020018D01*
X72535177Y-56015075D01*
X71598261Y-55078159D01*
X71593318Y-55072705D01*
X71588934Y-55066794D01*
X71585150Y-55060481D01*
X71582003Y-55053827D01*
X71579523Y-55046897D01*
X71577735Y-55039758D01*
X71576655Y-55032477D01*
X71576294Y-55025126D01*
X71576655Y-55017775D01*
X71577735Y-55010494D01*
X71579523Y-55003355D01*
X71582003Y-54996425D01*
X71585150Y-54989771D01*
X71588934Y-54983458D01*
X71593318Y-54977547D01*
X71598261Y-54972093D01*
X71704327Y-54866027D01*
X71709781Y-54861084D01*
X71715692Y-54856700D01*
X71722005Y-54852916D01*
X71728659Y-54849769D01*
X71735589Y-54847289D01*
X71742728Y-54845501D01*
X71750009Y-54844421D01*
X71757360Y-54844060D01*
X71764711Y-54844421D01*
G37*
G36*
X72118264Y-54490868D02*
G01*
X72125545Y-54491948D01*
X72132684Y-54493736D01*
X72139614Y-54496216D01*
X72146268Y-54499363D01*
X72152581Y-54503147D01*
X72158492Y-54507531D01*
X72163946Y-54512474D01*
X73100862Y-55449390D01*
X73105805Y-55454844D01*
X73110189Y-55460755D01*
X73113973Y-55467068D01*
X73117120Y-55473722D01*
X73119600Y-55480652D01*
X73121388Y-55487791D01*
X73122468Y-55495072D01*
X73122829Y-55502423D01*
X73122468Y-55509774D01*
X73121388Y-55517055D01*
X73119600Y-55524194D01*
X73117120Y-55531124D01*
X73113973Y-55537778D01*
X73110189Y-55544091D01*
X73105805Y-55550002D01*
X73100862Y-55555456D01*
X72994796Y-55661522D01*
X72989342Y-55666465D01*
X72983431Y-55670849D01*
X72977118Y-55674633D01*
X72970464Y-55677780D01*
X72963534Y-55680260D01*
X72956395Y-55682048D01*
X72949114Y-55683128D01*
X72941763Y-55683489D01*
X72934412Y-55683128D01*
X72927131Y-55682048D01*
X72919992Y-55680260D01*
X72913062Y-55677780D01*
X72906408Y-55674633D01*
X72900095Y-55670849D01*
X72894184Y-55666465D01*
X72888730Y-55661522D01*
X71951814Y-54724606D01*
X71946871Y-54719152D01*
X71942487Y-54713241D01*
X71938703Y-54706928D01*
X71935556Y-54700274D01*
X71933076Y-54693344D01*
X71931288Y-54686205D01*
X71930208Y-54678924D01*
X71929847Y-54671573D01*
X71930208Y-54664222D01*
X71931288Y-54656941D01*
X71933076Y-54649802D01*
X71935556Y-54642872D01*
X71938703Y-54636218D01*
X71942487Y-54629905D01*
X71946871Y-54623994D01*
X71951814Y-54618540D01*
X72057880Y-54512474D01*
X72063334Y-54507531D01*
X72069245Y-54503147D01*
X72075558Y-54499363D01*
X72082212Y-54496216D01*
X72089142Y-54493736D01*
X72096281Y-54491948D01*
X72103562Y-54490868D01*
X72110913Y-54490507D01*
X72118264Y-54490868D01*
G37*
G36*
X72471817Y-54137315D02*
G01*
X72479098Y-54138395D01*
X72486237Y-54140183D01*
X72493167Y-54142663D01*
X72499821Y-54145810D01*
X72506134Y-54149594D01*
X72512045Y-54153978D01*
X72517499Y-54158921D01*
X73454415Y-55095837D01*
X73459358Y-55101291D01*
X73463742Y-55107202D01*
X73467526Y-55113515D01*
X73470673Y-55120169D01*
X73473153Y-55127099D01*
X73474941Y-55134238D01*
X73476021Y-55141519D01*
X73476382Y-55148870D01*
X73476021Y-55156221D01*
X73474941Y-55163502D01*
X73473153Y-55170641D01*
X73470673Y-55177571D01*
X73467526Y-55184225D01*
X73463742Y-55190538D01*
X73459358Y-55196449D01*
X73454415Y-55201903D01*
X73348349Y-55307969D01*
X73342895Y-55312912D01*
X73336984Y-55317296D01*
X73330671Y-55321080D01*
X73324017Y-55324227D01*
X73317087Y-55326707D01*
X73309948Y-55328495D01*
X73302667Y-55329575D01*
X73295316Y-55329936D01*
X73287965Y-55329575D01*
X73280684Y-55328495D01*
X73273545Y-55326707D01*
X73266615Y-55324227D01*
X73259961Y-55321080D01*
X73253648Y-55317296D01*
X73247737Y-55312912D01*
X73242283Y-55307969D01*
X72305367Y-54371053D01*
X72300424Y-54365599D01*
X72296040Y-54359688D01*
X72292256Y-54353375D01*
X72289109Y-54346721D01*
X72286629Y-54339791D01*
X72284841Y-54332652D01*
X72283761Y-54325371D01*
X72283400Y-54318020D01*
X72283761Y-54310669D01*
X72284841Y-54303388D01*
X72286629Y-54296249D01*
X72289109Y-54289319D01*
X72292256Y-54282665D01*
X72296040Y-54276352D01*
X72300424Y-54270441D01*
X72305367Y-54264987D01*
X72411433Y-54158921D01*
X72416887Y-54153978D01*
X72422798Y-54149594D01*
X72429111Y-54145810D01*
X72435765Y-54142663D01*
X72442695Y-54140183D01*
X72449834Y-54138395D01*
X72457115Y-54137315D01*
X72464466Y-54136954D01*
X72471817Y-54137315D01*
G37*
G36*
X72825371Y-53783761D02*
G01*
X72832652Y-53784841D01*
X72839791Y-53786629D01*
X72846721Y-53789109D01*
X72853375Y-53792256D01*
X72859688Y-53796040D01*
X72865599Y-53800424D01*
X72871053Y-53805367D01*
X73807969Y-54742283D01*
X73812912Y-54747737D01*
X73817296Y-54753648D01*
X73821080Y-54759961D01*
X73824227Y-54766615D01*
X73826707Y-54773545D01*
X73828495Y-54780684D01*
X73829575Y-54787965D01*
X73829936Y-54795316D01*
X73829575Y-54802667D01*
X73828495Y-54809948D01*
X73826707Y-54817087D01*
X73824227Y-54824017D01*
X73821080Y-54830671D01*
X73817296Y-54836984D01*
X73812912Y-54842895D01*
X73807969Y-54848349D01*
X73701903Y-54954415D01*
X73696449Y-54959358D01*
X73690538Y-54963742D01*
X73684225Y-54967526D01*
X73677571Y-54970673D01*
X73670641Y-54973153D01*
X73663502Y-54974941D01*
X73656221Y-54976021D01*
X73648870Y-54976382D01*
X73641519Y-54976021D01*
X73634238Y-54974941D01*
X73627099Y-54973153D01*
X73620169Y-54970673D01*
X73613515Y-54967526D01*
X73607202Y-54963742D01*
X73601291Y-54959358D01*
X73595837Y-54954415D01*
X72658921Y-54017499D01*
X72653978Y-54012045D01*
X72649594Y-54006134D01*
X72645810Y-53999821D01*
X72642663Y-53993167D01*
X72640183Y-53986237D01*
X72638395Y-53979098D01*
X72637315Y-53971817D01*
X72636954Y-53964466D01*
X72637315Y-53957115D01*
X72638395Y-53949834D01*
X72640183Y-53942695D01*
X72642663Y-53935765D01*
X72645810Y-53929111D01*
X72649594Y-53922798D01*
X72653978Y-53916887D01*
X72658921Y-53911433D01*
X72764987Y-53805367D01*
X72770441Y-53800424D01*
X72776352Y-53796040D01*
X72782665Y-53792256D01*
X72789319Y-53789109D01*
X72796249Y-53786629D01*
X72803388Y-53784841D01*
X72810669Y-53783761D01*
X72818020Y-53783400D01*
X72825371Y-53783761D01*
G37*
G36*
X73178924Y-53430208D02*
G01*
X73186205Y-53431288D01*
X73193344Y-53433076D01*
X73200274Y-53435556D01*
X73206928Y-53438703D01*
X73213241Y-53442487D01*
X73219152Y-53446871D01*
X73224606Y-53451814D01*
X74161522Y-54388730D01*
X74166465Y-54394184D01*
X74170849Y-54400095D01*
X74174633Y-54406408D01*
X74177780Y-54413062D01*
X74180260Y-54419992D01*
X74182048Y-54427131D01*
X74183128Y-54434412D01*
X74183489Y-54441763D01*
X74183128Y-54449114D01*
X74182048Y-54456395D01*
X74180260Y-54463534D01*
X74177780Y-54470464D01*
X74174633Y-54477118D01*
X74170849Y-54483431D01*
X74166465Y-54489342D01*
X74161522Y-54494796D01*
X74055456Y-54600862D01*
X74050002Y-54605805D01*
X74044091Y-54610189D01*
X74037778Y-54613973D01*
X74031124Y-54617120D01*
X74024194Y-54619600D01*
X74017055Y-54621388D01*
X74009774Y-54622468D01*
X74002423Y-54622829D01*
X73995072Y-54622468D01*
X73987791Y-54621388D01*
X73980652Y-54619600D01*
X73973722Y-54617120D01*
X73967068Y-54613973D01*
X73960755Y-54610189D01*
X73954844Y-54605805D01*
X73949390Y-54600862D01*
X73012474Y-53663946D01*
X73007531Y-53658492D01*
X73003147Y-53652581D01*
X72999363Y-53646268D01*
X72996216Y-53639614D01*
X72993736Y-53632684D01*
X72991948Y-53625545D01*
X72990868Y-53618264D01*
X72990507Y-53610913D01*
X72990868Y-53603562D01*
X72991948Y-53596281D01*
X72993736Y-53589142D01*
X72996216Y-53582212D01*
X72999363Y-53575558D01*
X73003147Y-53569245D01*
X73007531Y-53563334D01*
X73012474Y-53557880D01*
X73118540Y-53451814D01*
X73123994Y-53446871D01*
X73129905Y-53442487D01*
X73136218Y-53438703D01*
X73142872Y-53435556D01*
X73149802Y-53433076D01*
X73156941Y-53431288D01*
X73164222Y-53430208D01*
X73171573Y-53429847D01*
X73178924Y-53430208D01*
G37*
G36*
X73532477Y-53076655D02*
G01*
X73539758Y-53077735D01*
X73546897Y-53079523D01*
X73553827Y-53082003D01*
X73560481Y-53085150D01*
X73566794Y-53088934D01*
X73572705Y-53093318D01*
X73578159Y-53098261D01*
X74515075Y-54035177D01*
X74520018Y-54040631D01*
X74524402Y-54046542D01*
X74528186Y-54052855D01*
X74531333Y-54059509D01*
X74533813Y-54066439D01*
X74535601Y-54073578D01*
X74536681Y-54080859D01*
X74537042Y-54088210D01*
X74536681Y-54095561D01*
X74535601Y-54102842D01*
X74533813Y-54109981D01*
X74531333Y-54116911D01*
X74528186Y-54123565D01*
X74524402Y-54129878D01*
X74520018Y-54135789D01*
X74515075Y-54141243D01*
X74409009Y-54247309D01*
X74403555Y-54252252D01*
X74397644Y-54256636D01*
X74391331Y-54260420D01*
X74384677Y-54263567D01*
X74377747Y-54266047D01*
X74370608Y-54267835D01*
X74363327Y-54268915D01*
X74355976Y-54269276D01*
X74348625Y-54268915D01*
X74341344Y-54267835D01*
X74334205Y-54266047D01*
X74327275Y-54263567D01*
X74320621Y-54260420D01*
X74314308Y-54256636D01*
X74308397Y-54252252D01*
X74302943Y-54247309D01*
X73366027Y-53310393D01*
X73361084Y-53304939D01*
X73356700Y-53299028D01*
X73352916Y-53292715D01*
X73349769Y-53286061D01*
X73347289Y-53279131D01*
X73345501Y-53271992D01*
X73344421Y-53264711D01*
X73344060Y-53257360D01*
X73344421Y-53250009D01*
X73345501Y-53242728D01*
X73347289Y-53235589D01*
X73349769Y-53228659D01*
X73352916Y-53222005D01*
X73356700Y-53215692D01*
X73361084Y-53209781D01*
X73366027Y-53204327D01*
X73472093Y-53098261D01*
X73477547Y-53093318D01*
X73483458Y-53088934D01*
X73489771Y-53085150D01*
X73496425Y-53082003D01*
X73503355Y-53079523D01*
X73510494Y-53077735D01*
X73517775Y-53076655D01*
X73525126Y-53076294D01*
X73532477Y-53076655D01*
G37*
G36*
X73886031Y-52723101D02*
G01*
X73893312Y-52724181D01*
X73900451Y-52725969D01*
X73907381Y-52728449D01*
X73914035Y-52731596D01*
X73920348Y-52735380D01*
X73926259Y-52739764D01*
X73931713Y-52744707D01*
X74868629Y-53681623D01*
X74873572Y-53687077D01*
X74877956Y-53692988D01*
X74881740Y-53699301D01*
X74884887Y-53705955D01*
X74887367Y-53712885D01*
X74889155Y-53720024D01*
X74890235Y-53727305D01*
X74890596Y-53734656D01*
X74890235Y-53742007D01*
X74889155Y-53749288D01*
X74887367Y-53756427D01*
X74884887Y-53763357D01*
X74881740Y-53770011D01*
X74877956Y-53776324D01*
X74873572Y-53782235D01*
X74868629Y-53787689D01*
X74762563Y-53893755D01*
X74757109Y-53898698D01*
X74751198Y-53903082D01*
X74744885Y-53906866D01*
X74738231Y-53910013D01*
X74731301Y-53912493D01*
X74724162Y-53914281D01*
X74716881Y-53915361D01*
X74709530Y-53915722D01*
X74702179Y-53915361D01*
X74694898Y-53914281D01*
X74687759Y-53912493D01*
X74680829Y-53910013D01*
X74674175Y-53906866D01*
X74667862Y-53903082D01*
X74661951Y-53898698D01*
X74656497Y-53893755D01*
X73719581Y-52956839D01*
X73714638Y-52951385D01*
X73710254Y-52945474D01*
X73706470Y-52939161D01*
X73703323Y-52932507D01*
X73700843Y-52925577D01*
X73699055Y-52918438D01*
X73697975Y-52911157D01*
X73697614Y-52903806D01*
X73697975Y-52896455D01*
X73699055Y-52889174D01*
X73700843Y-52882035D01*
X73703323Y-52875105D01*
X73706470Y-52868451D01*
X73710254Y-52862138D01*
X73714638Y-52856227D01*
X73719581Y-52850773D01*
X73825647Y-52744707D01*
X73831101Y-52739764D01*
X73837012Y-52735380D01*
X73843325Y-52731596D01*
X73849979Y-52728449D01*
X73856909Y-52725969D01*
X73864048Y-52724181D01*
X73871329Y-52723101D01*
X73878680Y-52722740D01*
X73886031Y-52723101D01*
G37*
G36*
X74239584Y-52369548D02*
G01*
X74246865Y-52370628D01*
X74254004Y-52372416D01*
X74260934Y-52374896D01*
X74267588Y-52378043D01*
X74273901Y-52381827D01*
X74279812Y-52386211D01*
X74285266Y-52391154D01*
X75222182Y-53328070D01*
X75227125Y-53333524D01*
X75231509Y-53339435D01*
X75235293Y-53345748D01*
X75238440Y-53352402D01*
X75240920Y-53359332D01*
X75242708Y-53366471D01*
X75243788Y-53373752D01*
X75244149Y-53381103D01*
X75243788Y-53388454D01*
X75242708Y-53395735D01*
X75240920Y-53402874D01*
X75238440Y-53409804D01*
X75235293Y-53416458D01*
X75231509Y-53422771D01*
X75227125Y-53428682D01*
X75222182Y-53434136D01*
X75116116Y-53540202D01*
X75110662Y-53545145D01*
X75104751Y-53549529D01*
X75098438Y-53553313D01*
X75091784Y-53556460D01*
X75084854Y-53558940D01*
X75077715Y-53560728D01*
X75070434Y-53561808D01*
X75063083Y-53562169D01*
X75055732Y-53561808D01*
X75048451Y-53560728D01*
X75041312Y-53558940D01*
X75034382Y-53556460D01*
X75027728Y-53553313D01*
X75021415Y-53549529D01*
X75015504Y-53545145D01*
X75010050Y-53540202D01*
X74073134Y-52603286D01*
X74068191Y-52597832D01*
X74063807Y-52591921D01*
X74060023Y-52585608D01*
X74056876Y-52578954D01*
X74054396Y-52572024D01*
X74052608Y-52564885D01*
X74051528Y-52557604D01*
X74051167Y-52550253D01*
X74051528Y-52542902D01*
X74052608Y-52535621D01*
X74054396Y-52528482D01*
X74056876Y-52521552D01*
X74060023Y-52514898D01*
X74063807Y-52508585D01*
X74068191Y-52502674D01*
X74073134Y-52497220D01*
X74179200Y-52391154D01*
X74184654Y-52386211D01*
X74190565Y-52381827D01*
X74196878Y-52378043D01*
X74203532Y-52374896D01*
X74210462Y-52372416D01*
X74217601Y-52370628D01*
X74224882Y-52369548D01*
X74232233Y-52369187D01*
X74239584Y-52369548D01*
G37*
G36*
X74593138Y-52015994D02*
G01*
X74600419Y-52017074D01*
X74607558Y-52018862D01*
X74614488Y-52021342D01*
X74621142Y-52024489D01*
X74627455Y-52028273D01*
X74633366Y-52032657D01*
X74638820Y-52037600D01*
X75575736Y-52974516D01*
X75580679Y-52979970D01*
X75585063Y-52985881D01*
X75588847Y-52992194D01*
X75591994Y-52998848D01*
X75594474Y-53005778D01*
X75596262Y-53012917D01*
X75597342Y-53020198D01*
X75597703Y-53027549D01*
X75597342Y-53034900D01*
X75596262Y-53042181D01*
X75594474Y-53049320D01*
X75591994Y-53056250D01*
X75588847Y-53062904D01*
X75585063Y-53069217D01*
X75580679Y-53075128D01*
X75575736Y-53080582D01*
X75469670Y-53186648D01*
X75464216Y-53191591D01*
X75458305Y-53195975D01*
X75451992Y-53199759D01*
X75445338Y-53202906D01*
X75438408Y-53205386D01*
X75431269Y-53207174D01*
X75423988Y-53208254D01*
X75416637Y-53208615D01*
X75409286Y-53208254D01*
X75402005Y-53207174D01*
X75394866Y-53205386D01*
X75387936Y-53202906D01*
X75381282Y-53199759D01*
X75374969Y-53195975D01*
X75369058Y-53191591D01*
X75363604Y-53186648D01*
X74426688Y-52249732D01*
X74421745Y-52244278D01*
X74417361Y-52238367D01*
X74413577Y-52232054D01*
X74410430Y-52225400D01*
X74407950Y-52218470D01*
X74406162Y-52211331D01*
X74405082Y-52204050D01*
X74404721Y-52196699D01*
X74405082Y-52189348D01*
X74406162Y-52182067D01*
X74407950Y-52174928D01*
X74410430Y-52167998D01*
X74413577Y-52161344D01*
X74417361Y-52155031D01*
X74421745Y-52149120D01*
X74426688Y-52143666D01*
X74532754Y-52037600D01*
X74538208Y-52032657D01*
X74544119Y-52028273D01*
X74550432Y-52024489D01*
X74557086Y-52021342D01*
X74564016Y-52018862D01*
X74571155Y-52017074D01*
X74578436Y-52015994D01*
X74585787Y-52015633D01*
X74593138Y-52015994D01*
G37*
G36*
X77421564Y-52015994D02*
G01*
X77428845Y-52017074D01*
X77435984Y-52018862D01*
X77442914Y-52021342D01*
X77449568Y-52024489D01*
X77455881Y-52028273D01*
X77461792Y-52032657D01*
X77467246Y-52037600D01*
X77573312Y-52143666D01*
X77578255Y-52149120D01*
X77582639Y-52155031D01*
X77586423Y-52161344D01*
X77589570Y-52167998D01*
X77592050Y-52174928D01*
X77593838Y-52182067D01*
X77594918Y-52189348D01*
X77595279Y-52196699D01*
X77594918Y-52204050D01*
X77593838Y-52211331D01*
X77592050Y-52218470D01*
X77589570Y-52225400D01*
X77586423Y-52232054D01*
X77582639Y-52238367D01*
X77578255Y-52244278D01*
X77573312Y-52249732D01*
X76636396Y-53186648D01*
X76630942Y-53191591D01*
X76625031Y-53195975D01*
X76618718Y-53199759D01*
X76612064Y-53202906D01*
X76605134Y-53205386D01*
X76597995Y-53207174D01*
X76590714Y-53208254D01*
X76583363Y-53208615D01*
X76576012Y-53208254D01*
X76568731Y-53207174D01*
X76561592Y-53205386D01*
X76554662Y-53202906D01*
X76548008Y-53199759D01*
X76541695Y-53195975D01*
X76535784Y-53191591D01*
X76530330Y-53186648D01*
X76424264Y-53080582D01*
X76419321Y-53075128D01*
X76414937Y-53069217D01*
X76411153Y-53062904D01*
X76408006Y-53056250D01*
X76405526Y-53049320D01*
X76403738Y-53042181D01*
X76402658Y-53034900D01*
X76402297Y-53027549D01*
X76402658Y-53020198D01*
X76403738Y-53012917D01*
X76405526Y-53005778D01*
X76408006Y-52998848D01*
X76411153Y-52992194D01*
X76414937Y-52985881D01*
X76419321Y-52979970D01*
X76424264Y-52974516D01*
X77361180Y-52037600D01*
X77366634Y-52032657D01*
X77372545Y-52028273D01*
X77378858Y-52024489D01*
X77385512Y-52021342D01*
X77392442Y-52018862D01*
X77399581Y-52017074D01*
X77406862Y-52015994D01*
X77414213Y-52015633D01*
X77421564Y-52015994D01*
G37*
G36*
X77775118Y-52369548D02*
G01*
X77782399Y-52370628D01*
X77789538Y-52372416D01*
X77796468Y-52374896D01*
X77803122Y-52378043D01*
X77809435Y-52381827D01*
X77815346Y-52386211D01*
X77820800Y-52391154D01*
X77926866Y-52497220D01*
X77931809Y-52502674D01*
X77936193Y-52508585D01*
X77939977Y-52514898D01*
X77943124Y-52521552D01*
X77945604Y-52528482D01*
X77947392Y-52535621D01*
X77948472Y-52542902D01*
X77948833Y-52550253D01*
X77948472Y-52557604D01*
X77947392Y-52564885D01*
X77945604Y-52572024D01*
X77943124Y-52578954D01*
X77939977Y-52585608D01*
X77936193Y-52591921D01*
X77931809Y-52597832D01*
X77926866Y-52603286D01*
X76989950Y-53540202D01*
X76984496Y-53545145D01*
X76978585Y-53549529D01*
X76972272Y-53553313D01*
X76965618Y-53556460D01*
X76958688Y-53558940D01*
X76951549Y-53560728D01*
X76944268Y-53561808D01*
X76936917Y-53562169D01*
X76929566Y-53561808D01*
X76922285Y-53560728D01*
X76915146Y-53558940D01*
X76908216Y-53556460D01*
X76901562Y-53553313D01*
X76895249Y-53549529D01*
X76889338Y-53545145D01*
X76883884Y-53540202D01*
X76777818Y-53434136D01*
X76772875Y-53428682D01*
X76768491Y-53422771D01*
X76764707Y-53416458D01*
X76761560Y-53409804D01*
X76759080Y-53402874D01*
X76757292Y-53395735D01*
X76756212Y-53388454D01*
X76755851Y-53381103D01*
X76756212Y-53373752D01*
X76757292Y-53366471D01*
X76759080Y-53359332D01*
X76761560Y-53352402D01*
X76764707Y-53345748D01*
X76768491Y-53339435D01*
X76772875Y-53333524D01*
X76777818Y-53328070D01*
X77714734Y-52391154D01*
X77720188Y-52386211D01*
X77726099Y-52381827D01*
X77732412Y-52378043D01*
X77739066Y-52374896D01*
X77745996Y-52372416D01*
X77753135Y-52370628D01*
X77760416Y-52369548D01*
X77767767Y-52369187D01*
X77775118Y-52369548D01*
G37*
G36*
X78128671Y-52723101D02*
G01*
X78135952Y-52724181D01*
X78143091Y-52725969D01*
X78150021Y-52728449D01*
X78156675Y-52731596D01*
X78162988Y-52735380D01*
X78168899Y-52739764D01*
X78174353Y-52744707D01*
X78280419Y-52850773D01*
X78285362Y-52856227D01*
X78289746Y-52862138D01*
X78293530Y-52868451D01*
X78296677Y-52875105D01*
X78299157Y-52882035D01*
X78300945Y-52889174D01*
X78302025Y-52896455D01*
X78302386Y-52903806D01*
X78302025Y-52911157D01*
X78300945Y-52918438D01*
X78299157Y-52925577D01*
X78296677Y-52932507D01*
X78293530Y-52939161D01*
X78289746Y-52945474D01*
X78285362Y-52951385D01*
X78280419Y-52956839D01*
X77343503Y-53893755D01*
X77338049Y-53898698D01*
X77332138Y-53903082D01*
X77325825Y-53906866D01*
X77319171Y-53910013D01*
X77312241Y-53912493D01*
X77305102Y-53914281D01*
X77297821Y-53915361D01*
X77290470Y-53915722D01*
X77283119Y-53915361D01*
X77275838Y-53914281D01*
X77268699Y-53912493D01*
X77261769Y-53910013D01*
X77255115Y-53906866D01*
X77248802Y-53903082D01*
X77242891Y-53898698D01*
X77237437Y-53893755D01*
X77131371Y-53787689D01*
X77126428Y-53782235D01*
X77122044Y-53776324D01*
X77118260Y-53770011D01*
X77115113Y-53763357D01*
X77112633Y-53756427D01*
X77110845Y-53749288D01*
X77109765Y-53742007D01*
X77109404Y-53734656D01*
X77109765Y-53727305D01*
X77110845Y-53720024D01*
X77112633Y-53712885D01*
X77115113Y-53705955D01*
X77118260Y-53699301D01*
X77122044Y-53692988D01*
X77126428Y-53687077D01*
X77131371Y-53681623D01*
X78068287Y-52744707D01*
X78073741Y-52739764D01*
X78079652Y-52735380D01*
X78085965Y-52731596D01*
X78092619Y-52728449D01*
X78099549Y-52725969D01*
X78106688Y-52724181D01*
X78113969Y-52723101D01*
X78121320Y-52722740D01*
X78128671Y-52723101D01*
G37*
G36*
X78482225Y-53076655D02*
G01*
X78489506Y-53077735D01*
X78496645Y-53079523D01*
X78503575Y-53082003D01*
X78510229Y-53085150D01*
X78516542Y-53088934D01*
X78522453Y-53093318D01*
X78527907Y-53098261D01*
X78633973Y-53204327D01*
X78638916Y-53209781D01*
X78643300Y-53215692D01*
X78647084Y-53222005D01*
X78650231Y-53228659D01*
X78652711Y-53235589D01*
X78654499Y-53242728D01*
X78655579Y-53250009D01*
X78655940Y-53257360D01*
X78655579Y-53264711D01*
X78654499Y-53271992D01*
X78652711Y-53279131D01*
X78650231Y-53286061D01*
X78647084Y-53292715D01*
X78643300Y-53299028D01*
X78638916Y-53304939D01*
X78633973Y-53310393D01*
X77697057Y-54247309D01*
X77691603Y-54252252D01*
X77685692Y-54256636D01*
X77679379Y-54260420D01*
X77672725Y-54263567D01*
X77665795Y-54266047D01*
X77658656Y-54267835D01*
X77651375Y-54268915D01*
X77644024Y-54269276D01*
X77636673Y-54268915D01*
X77629392Y-54267835D01*
X77622253Y-54266047D01*
X77615323Y-54263567D01*
X77608669Y-54260420D01*
X77602356Y-54256636D01*
X77596445Y-54252252D01*
X77590991Y-54247309D01*
X77484925Y-54141243D01*
X77479982Y-54135789D01*
X77475598Y-54129878D01*
X77471814Y-54123565D01*
X77468667Y-54116911D01*
X77466187Y-54109981D01*
X77464399Y-54102842D01*
X77463319Y-54095561D01*
X77462958Y-54088210D01*
X77463319Y-54080859D01*
X77464399Y-54073578D01*
X77466187Y-54066439D01*
X77468667Y-54059509D01*
X77471814Y-54052855D01*
X77475598Y-54046542D01*
X77479982Y-54040631D01*
X77484925Y-54035177D01*
X78421841Y-53098261D01*
X78427295Y-53093318D01*
X78433206Y-53088934D01*
X78439519Y-53085150D01*
X78446173Y-53082003D01*
X78453103Y-53079523D01*
X78460242Y-53077735D01*
X78467523Y-53076655D01*
X78474874Y-53076294D01*
X78482225Y-53076655D01*
G37*
G36*
X78835778Y-53430208D02*
G01*
X78843059Y-53431288D01*
X78850198Y-53433076D01*
X78857128Y-53435556D01*
X78863782Y-53438703D01*
X78870095Y-53442487D01*
X78876006Y-53446871D01*
X78881460Y-53451814D01*
X78987526Y-53557880D01*
X78992469Y-53563334D01*
X78996853Y-53569245D01*
X79000637Y-53575558D01*
X79003784Y-53582212D01*
X79006264Y-53589142D01*
X79008052Y-53596281D01*
X79009132Y-53603562D01*
X79009493Y-53610913D01*
X79009132Y-53618264D01*
X79008052Y-53625545D01*
X79006264Y-53632684D01*
X79003784Y-53639614D01*
X79000637Y-53646268D01*
X78996853Y-53652581D01*
X78992469Y-53658492D01*
X78987526Y-53663946D01*
X78050610Y-54600862D01*
X78045156Y-54605805D01*
X78039245Y-54610189D01*
X78032932Y-54613973D01*
X78026278Y-54617120D01*
X78019348Y-54619600D01*
X78012209Y-54621388D01*
X78004928Y-54622468D01*
X77997577Y-54622829D01*
X77990226Y-54622468D01*
X77982945Y-54621388D01*
X77975806Y-54619600D01*
X77968876Y-54617120D01*
X77962222Y-54613973D01*
X77955909Y-54610189D01*
X77949998Y-54605805D01*
X77944544Y-54600862D01*
X77838478Y-54494796D01*
X77833535Y-54489342D01*
X77829151Y-54483431D01*
X77825367Y-54477118D01*
X77822220Y-54470464D01*
X77819740Y-54463534D01*
X77817952Y-54456395D01*
X77816872Y-54449114D01*
X77816511Y-54441763D01*
X77816872Y-54434412D01*
X77817952Y-54427131D01*
X77819740Y-54419992D01*
X77822220Y-54413062D01*
X77825367Y-54406408D01*
X77829151Y-54400095D01*
X77833535Y-54394184D01*
X77838478Y-54388730D01*
X78775394Y-53451814D01*
X78780848Y-53446871D01*
X78786759Y-53442487D01*
X78793072Y-53438703D01*
X78799726Y-53435556D01*
X78806656Y-53433076D01*
X78813795Y-53431288D01*
X78821076Y-53430208D01*
X78828427Y-53429847D01*
X78835778Y-53430208D01*
G37*
G36*
X79189331Y-53783761D02*
G01*
X79196612Y-53784841D01*
X79203751Y-53786629D01*
X79210681Y-53789109D01*
X79217335Y-53792256D01*
X79223648Y-53796040D01*
X79229559Y-53800424D01*
X79235013Y-53805367D01*
X79341079Y-53911433D01*
X79346022Y-53916887D01*
X79350406Y-53922798D01*
X79354190Y-53929111D01*
X79357337Y-53935765D01*
X79359817Y-53942695D01*
X79361605Y-53949834D01*
X79362685Y-53957115D01*
X79363046Y-53964466D01*
X79362685Y-53971817D01*
X79361605Y-53979098D01*
X79359817Y-53986237D01*
X79357337Y-53993167D01*
X79354190Y-53999821D01*
X79350406Y-54006134D01*
X79346022Y-54012045D01*
X79341079Y-54017499D01*
X78404163Y-54954415D01*
X78398709Y-54959358D01*
X78392798Y-54963742D01*
X78386485Y-54967526D01*
X78379831Y-54970673D01*
X78372901Y-54973153D01*
X78365762Y-54974941D01*
X78358481Y-54976021D01*
X78351130Y-54976382D01*
X78343779Y-54976021D01*
X78336498Y-54974941D01*
X78329359Y-54973153D01*
X78322429Y-54970673D01*
X78315775Y-54967526D01*
X78309462Y-54963742D01*
X78303551Y-54959358D01*
X78298097Y-54954415D01*
X78192031Y-54848349D01*
X78187088Y-54842895D01*
X78182704Y-54836984D01*
X78178920Y-54830671D01*
X78175773Y-54824017D01*
X78173293Y-54817087D01*
X78171505Y-54809948D01*
X78170425Y-54802667D01*
X78170064Y-54795316D01*
X78170425Y-54787965D01*
X78171505Y-54780684D01*
X78173293Y-54773545D01*
X78175773Y-54766615D01*
X78178920Y-54759961D01*
X78182704Y-54753648D01*
X78187088Y-54747737D01*
X78192031Y-54742283D01*
X79128947Y-53805367D01*
X79134401Y-53800424D01*
X79140312Y-53796040D01*
X79146625Y-53792256D01*
X79153279Y-53789109D01*
X79160209Y-53786629D01*
X79167348Y-53784841D01*
X79174629Y-53783761D01*
X79181980Y-53783400D01*
X79189331Y-53783761D01*
G37*
G36*
X79542885Y-54137315D02*
G01*
X79550166Y-54138395D01*
X79557305Y-54140183D01*
X79564235Y-54142663D01*
X79570889Y-54145810D01*
X79577202Y-54149594D01*
X79583113Y-54153978D01*
X79588567Y-54158921D01*
X79694633Y-54264987D01*
X79699576Y-54270441D01*
X79703960Y-54276352D01*
X79707744Y-54282665D01*
X79710891Y-54289319D01*
X79713371Y-54296249D01*
X79715159Y-54303388D01*
X79716239Y-54310669D01*
X79716600Y-54318020D01*
X79716239Y-54325371D01*
X79715159Y-54332652D01*
X79713371Y-54339791D01*
X79710891Y-54346721D01*
X79707744Y-54353375D01*
X79703960Y-54359688D01*
X79699576Y-54365599D01*
X79694633Y-54371053D01*
X78757717Y-55307969D01*
X78752263Y-55312912D01*
X78746352Y-55317296D01*
X78740039Y-55321080D01*
X78733385Y-55324227D01*
X78726455Y-55326707D01*
X78719316Y-55328495D01*
X78712035Y-55329575D01*
X78704684Y-55329936D01*
X78697333Y-55329575D01*
X78690052Y-55328495D01*
X78682913Y-55326707D01*
X78675983Y-55324227D01*
X78669329Y-55321080D01*
X78663016Y-55317296D01*
X78657105Y-55312912D01*
X78651651Y-55307969D01*
X78545585Y-55201903D01*
X78540642Y-55196449D01*
X78536258Y-55190538D01*
X78532474Y-55184225D01*
X78529327Y-55177571D01*
X78526847Y-55170641D01*
X78525059Y-55163502D01*
X78523979Y-55156221D01*
X78523618Y-55148870D01*
X78523979Y-55141519D01*
X78525059Y-55134238D01*
X78526847Y-55127099D01*
X78529327Y-55120169D01*
X78532474Y-55113515D01*
X78536258Y-55107202D01*
X78540642Y-55101291D01*
X78545585Y-55095837D01*
X79482501Y-54158921D01*
X79487955Y-54153978D01*
X79493866Y-54149594D01*
X79500179Y-54145810D01*
X79506833Y-54142663D01*
X79513763Y-54140183D01*
X79520902Y-54138395D01*
X79528183Y-54137315D01*
X79535534Y-54136954D01*
X79542885Y-54137315D01*
G37*
G36*
X79896438Y-54490868D02*
G01*
X79903719Y-54491948D01*
X79910858Y-54493736D01*
X79917788Y-54496216D01*
X79924442Y-54499363D01*
X79930755Y-54503147D01*
X79936666Y-54507531D01*
X79942120Y-54512474D01*
X80048186Y-54618540D01*
X80053129Y-54623994D01*
X80057513Y-54629905D01*
X80061297Y-54636218D01*
X80064444Y-54642872D01*
X80066924Y-54649802D01*
X80068712Y-54656941D01*
X80069792Y-54664222D01*
X80070153Y-54671573D01*
X80069792Y-54678924D01*
X80068712Y-54686205D01*
X80066924Y-54693344D01*
X80064444Y-54700274D01*
X80061297Y-54706928D01*
X80057513Y-54713241D01*
X80053129Y-54719152D01*
X80048186Y-54724606D01*
X79111270Y-55661522D01*
X79105816Y-55666465D01*
X79099905Y-55670849D01*
X79093592Y-55674633D01*
X79086938Y-55677780D01*
X79080008Y-55680260D01*
X79072869Y-55682048D01*
X79065588Y-55683128D01*
X79058237Y-55683489D01*
X79050886Y-55683128D01*
X79043605Y-55682048D01*
X79036466Y-55680260D01*
X79029536Y-55677780D01*
X79022882Y-55674633D01*
X79016569Y-55670849D01*
X79010658Y-55666465D01*
X79005204Y-55661522D01*
X78899138Y-55555456D01*
X78894195Y-55550002D01*
X78889811Y-55544091D01*
X78886027Y-55537778D01*
X78882880Y-55531124D01*
X78880400Y-55524194D01*
X78878612Y-55517055D01*
X78877532Y-55509774D01*
X78877171Y-55502423D01*
X78877532Y-55495072D01*
X78878612Y-55487791D01*
X78880400Y-55480652D01*
X78882880Y-55473722D01*
X78886027Y-55467068D01*
X78889811Y-55460755D01*
X78894195Y-55454844D01*
X78899138Y-55449390D01*
X79836054Y-54512474D01*
X79841508Y-54507531D01*
X79847419Y-54503147D01*
X79853732Y-54499363D01*
X79860386Y-54496216D01*
X79867316Y-54493736D01*
X79874455Y-54491948D01*
X79881736Y-54490868D01*
X79889087Y-54490507D01*
X79896438Y-54490868D01*
G37*
G36*
X80249991Y-54844421D02*
G01*
X80257272Y-54845501D01*
X80264411Y-54847289D01*
X80271341Y-54849769D01*
X80277995Y-54852916D01*
X80284308Y-54856700D01*
X80290219Y-54861084D01*
X80295673Y-54866027D01*
X80401739Y-54972093D01*
X80406682Y-54977547D01*
X80411066Y-54983458D01*
X80414850Y-54989771D01*
X80417997Y-54996425D01*
X80420477Y-55003355D01*
X80422265Y-55010494D01*
X80423345Y-55017775D01*
X80423706Y-55025126D01*
X80423345Y-55032477D01*
X80422265Y-55039758D01*
X80420477Y-55046897D01*
X80417997Y-55053827D01*
X80414850Y-55060481D01*
X80411066Y-55066794D01*
X80406682Y-55072705D01*
X80401739Y-55078159D01*
X79464823Y-56015075D01*
X79459369Y-56020018D01*
X79453458Y-56024402D01*
X79447145Y-56028186D01*
X79440491Y-56031333D01*
X79433561Y-56033813D01*
X79426422Y-56035601D01*
X79419141Y-56036681D01*
X79411790Y-56037042D01*
X79404439Y-56036681D01*
X79397158Y-56035601D01*
X79390019Y-56033813D01*
X79383089Y-56031333D01*
X79376435Y-56028186D01*
X79370122Y-56024402D01*
X79364211Y-56020018D01*
X79358757Y-56015075D01*
X79252691Y-55909009D01*
X79247748Y-55903555D01*
X79243364Y-55897644D01*
X79239580Y-55891331D01*
X79236433Y-55884677D01*
X79233953Y-55877747D01*
X79232165Y-55870608D01*
X79231085Y-55863327D01*
X79230724Y-55855976D01*
X79231085Y-55848625D01*
X79232165Y-55841344D01*
X79233953Y-55834205D01*
X79236433Y-55827275D01*
X79239580Y-55820621D01*
X79243364Y-55814308D01*
X79247748Y-55808397D01*
X79252691Y-55802943D01*
X80189607Y-54866027D01*
X80195061Y-54861084D01*
X80200972Y-54856700D01*
X80207285Y-54852916D01*
X80213939Y-54849769D01*
X80220869Y-54847289D01*
X80228008Y-54845501D01*
X80235289Y-54844421D01*
X80242640Y-54844060D01*
X80249991Y-54844421D01*
G37*
G36*
X80603545Y-55197975D02*
G01*
X80610826Y-55199055D01*
X80617965Y-55200843D01*
X80624895Y-55203323D01*
X80631549Y-55206470D01*
X80637862Y-55210254D01*
X80643773Y-55214638D01*
X80649227Y-55219581D01*
X80755293Y-55325647D01*
X80760236Y-55331101D01*
X80764620Y-55337012D01*
X80768404Y-55343325D01*
X80771551Y-55349979D01*
X80774031Y-55356909D01*
X80775819Y-55364048D01*
X80776899Y-55371329D01*
X80777260Y-55378680D01*
X80776899Y-55386031D01*
X80775819Y-55393312D01*
X80774031Y-55400451D01*
X80771551Y-55407381D01*
X80768404Y-55414035D01*
X80764620Y-55420348D01*
X80760236Y-55426259D01*
X80755293Y-55431713D01*
X79818377Y-56368629D01*
X79812923Y-56373572D01*
X79807012Y-56377956D01*
X79800699Y-56381740D01*
X79794045Y-56384887D01*
X79787115Y-56387367D01*
X79779976Y-56389155D01*
X79772695Y-56390235D01*
X79765344Y-56390596D01*
X79757993Y-56390235D01*
X79750712Y-56389155D01*
X79743573Y-56387367D01*
X79736643Y-56384887D01*
X79729989Y-56381740D01*
X79723676Y-56377956D01*
X79717765Y-56373572D01*
X79712311Y-56368629D01*
X79606245Y-56262563D01*
X79601302Y-56257109D01*
X79596918Y-56251198D01*
X79593134Y-56244885D01*
X79589987Y-56238231D01*
X79587507Y-56231301D01*
X79585719Y-56224162D01*
X79584639Y-56216881D01*
X79584278Y-56209530D01*
X79584639Y-56202179D01*
X79585719Y-56194898D01*
X79587507Y-56187759D01*
X79589987Y-56180829D01*
X79593134Y-56174175D01*
X79596918Y-56167862D01*
X79601302Y-56161951D01*
X79606245Y-56156497D01*
X80543161Y-55219581D01*
X80548615Y-55214638D01*
X80554526Y-55210254D01*
X80560839Y-55206470D01*
X80567493Y-55203323D01*
X80574423Y-55200843D01*
X80581562Y-55199055D01*
X80588843Y-55197975D01*
X80596194Y-55197614D01*
X80603545Y-55197975D01*
G37*
G36*
X80957098Y-55551528D02*
G01*
X80964379Y-55552608D01*
X80971518Y-55554396D01*
X80978448Y-55556876D01*
X80985102Y-55560023D01*
X80991415Y-55563807D01*
X80997326Y-55568191D01*
X81002780Y-55573134D01*
X81108846Y-55679200D01*
X81113789Y-55684654D01*
X81118173Y-55690565D01*
X81121957Y-55696878D01*
X81125104Y-55703532D01*
X81127584Y-55710462D01*
X81129372Y-55717601D01*
X81130452Y-55724882D01*
X81130813Y-55732233D01*
X81130452Y-55739584D01*
X81129372Y-55746865D01*
X81127584Y-55754004D01*
X81125104Y-55760934D01*
X81121957Y-55767588D01*
X81118173Y-55773901D01*
X81113789Y-55779812D01*
X81108846Y-55785266D01*
X80171930Y-56722182D01*
X80166476Y-56727125D01*
X80160565Y-56731509D01*
X80154252Y-56735293D01*
X80147598Y-56738440D01*
X80140668Y-56740920D01*
X80133529Y-56742708D01*
X80126248Y-56743788D01*
X80118897Y-56744149D01*
X80111546Y-56743788D01*
X80104265Y-56742708D01*
X80097126Y-56740920D01*
X80090196Y-56738440D01*
X80083542Y-56735293D01*
X80077229Y-56731509D01*
X80071318Y-56727125D01*
X80065864Y-56722182D01*
X79959798Y-56616116D01*
X79954855Y-56610662D01*
X79950471Y-56604751D01*
X79946687Y-56598438D01*
X79943540Y-56591784D01*
X79941060Y-56584854D01*
X79939272Y-56577715D01*
X79938192Y-56570434D01*
X79937831Y-56563083D01*
X79938192Y-56555732D01*
X79939272Y-56548451D01*
X79941060Y-56541312D01*
X79943540Y-56534382D01*
X79946687Y-56527728D01*
X79950471Y-56521415D01*
X79954855Y-56515504D01*
X79959798Y-56510050D01*
X80896714Y-55573134D01*
X80902168Y-55568191D01*
X80908079Y-55563807D01*
X80914392Y-55560023D01*
X80921046Y-55556876D01*
X80927976Y-55554396D01*
X80935115Y-55552608D01*
X80942396Y-55551528D01*
X80949747Y-55551167D01*
X80957098Y-55551528D01*
G37*
G36*
X81310652Y-55905082D02*
G01*
X81317933Y-55906162D01*
X81325072Y-55907950D01*
X81332002Y-55910430D01*
X81338656Y-55913577D01*
X81344969Y-55917361D01*
X81350880Y-55921745D01*
X81356334Y-55926688D01*
X81462400Y-56032754D01*
X81467343Y-56038208D01*
X81471727Y-56044119D01*
X81475511Y-56050432D01*
X81478658Y-56057086D01*
X81481138Y-56064016D01*
X81482926Y-56071155D01*
X81484006Y-56078436D01*
X81484367Y-56085787D01*
X81484006Y-56093138D01*
X81482926Y-56100419D01*
X81481138Y-56107558D01*
X81478658Y-56114488D01*
X81475511Y-56121142D01*
X81471727Y-56127455D01*
X81467343Y-56133366D01*
X81462400Y-56138820D01*
X80525484Y-57075736D01*
X80520030Y-57080679D01*
X80514119Y-57085063D01*
X80507806Y-57088847D01*
X80501152Y-57091994D01*
X80494222Y-57094474D01*
X80487083Y-57096262D01*
X80479802Y-57097342D01*
X80472451Y-57097703D01*
X80465100Y-57097342D01*
X80457819Y-57096262D01*
X80450680Y-57094474D01*
X80443750Y-57091994D01*
X80437096Y-57088847D01*
X80430783Y-57085063D01*
X80424872Y-57080679D01*
X80419418Y-57075736D01*
X80313352Y-56969670D01*
X80308409Y-56964216D01*
X80304025Y-56958305D01*
X80300241Y-56951992D01*
X80297094Y-56945338D01*
X80294614Y-56938408D01*
X80292826Y-56931269D01*
X80291746Y-56923988D01*
X80291385Y-56916637D01*
X80291746Y-56909286D01*
X80292826Y-56902005D01*
X80294614Y-56894866D01*
X80297094Y-56887936D01*
X80300241Y-56881282D01*
X80304025Y-56874969D01*
X80308409Y-56869058D01*
X80313352Y-56863604D01*
X81250268Y-55926688D01*
X81255722Y-55921745D01*
X81261633Y-55917361D01*
X81267946Y-55913577D01*
X81274600Y-55910430D01*
X81281530Y-55907950D01*
X81288669Y-55906162D01*
X81295950Y-55905082D01*
X81303301Y-55904721D01*
X81310652Y-55905082D01*
G37*
G36*
X68776759Y-60317140D02*
G01*
X68317140Y-60776759D01*
X67567607Y-60027226D01*
X68027226Y-59567607D01*
X68776759Y-60317140D01*
G37*
G36*
X68105007Y-60988891D02*
G01*
X67645388Y-61448510D01*
X66895855Y-60698977D01*
X67355474Y-60239358D01*
X68105007Y-60988891D01*
G37*
G36*
X69448510Y-59645388D02*
G01*
X68988891Y-60105007D01*
X68239358Y-59355474D01*
X68698977Y-58895855D01*
X69448510Y-59645388D01*
G37*
G36*
X71004145Y-61201023D02*
G01*
X70544526Y-61660642D01*
X69794993Y-60911109D01*
X70254612Y-60451490D01*
X71004145Y-61201023D01*
G37*
G36*
X70332393Y-61872774D02*
G01*
X69872774Y-62332393D01*
X69123241Y-61582860D01*
X69582860Y-61123241D01*
X70332393Y-61872774D01*
G37*
G36*
X69660642Y-62544526D02*
G01*
X69201023Y-63004145D01*
X68451490Y-62254612D01*
X68911109Y-61794993D01*
X69660642Y-62544526D01*
G37*
G36*
X68918626Y-91625301D02*
G01*
X68924693Y-91626201D01*
X68930643Y-91627691D01*
X68936418Y-91629758D01*
X68941962Y-91632380D01*
X68947223Y-91635533D01*
X68952150Y-91639187D01*
X68956694Y-91643306D01*
X68960813Y-91647850D01*
X68964467Y-91652777D01*
X68967620Y-91658038D01*
X68970242Y-91663582D01*
X68972309Y-91669357D01*
X68973799Y-91675307D01*
X68974699Y-91681374D01*
X68975000Y-91687500D01*
X68975000Y-92387500D01*
X68974699Y-92393626D01*
X68973799Y-92399693D01*
X68972309Y-92405643D01*
X68970242Y-92411418D01*
X68967620Y-92416962D01*
X68964467Y-92422223D01*
X68960813Y-92427150D01*
X68956694Y-92431694D01*
X68952150Y-92435813D01*
X68947223Y-92439467D01*
X68941962Y-92442620D01*
X68936418Y-92445242D01*
X68930643Y-92447309D01*
X68924693Y-92448799D01*
X68918626Y-92449699D01*
X68912500Y-92450000D01*
X68787500Y-92450000D01*
X68781374Y-92449699D01*
X68775307Y-92448799D01*
X68769357Y-92447309D01*
X68763582Y-92445242D01*
X68758038Y-92442620D01*
X68752777Y-92439467D01*
X68747850Y-92435813D01*
X68743306Y-92431694D01*
X68739187Y-92427150D01*
X68735533Y-92422223D01*
X68732380Y-92416962D01*
X68729758Y-92411418D01*
X68727691Y-92405643D01*
X68726201Y-92399693D01*
X68725301Y-92393626D01*
X68725000Y-92387500D01*
X68725000Y-91687500D01*
X68725301Y-91681374D01*
X68726201Y-91675307D01*
X68727691Y-91669357D01*
X68729758Y-91663582D01*
X68732380Y-91658038D01*
X68735533Y-91652777D01*
X68739187Y-91647850D01*
X68743306Y-91643306D01*
X68747850Y-91639187D01*
X68752777Y-91635533D01*
X68758038Y-91632380D01*
X68763582Y-91629758D01*
X68769357Y-91627691D01*
X68775307Y-91626201D01*
X68781374Y-91625301D01*
X68787500Y-91625000D01*
X68912500Y-91625000D01*
X68918626Y-91625301D01*
G37*
G36*
X69418626Y-91625301D02*
G01*
X69424693Y-91626201D01*
X69430643Y-91627691D01*
X69436418Y-91629758D01*
X69441962Y-91632380D01*
X69447223Y-91635533D01*
X69452150Y-91639187D01*
X69456694Y-91643306D01*
X69460813Y-91647850D01*
X69464467Y-91652777D01*
X69467620Y-91658038D01*
X69470242Y-91663582D01*
X69472309Y-91669357D01*
X69473799Y-91675307D01*
X69474699Y-91681374D01*
X69475000Y-91687500D01*
X69475000Y-92387500D01*
X69474699Y-92393626D01*
X69473799Y-92399693D01*
X69472309Y-92405643D01*
X69470242Y-92411418D01*
X69467620Y-92416962D01*
X69464467Y-92422223D01*
X69460813Y-92427150D01*
X69456694Y-92431694D01*
X69452150Y-92435813D01*
X69447223Y-92439467D01*
X69441962Y-92442620D01*
X69436418Y-92445242D01*
X69430643Y-92447309D01*
X69424693Y-92448799D01*
X69418626Y-92449699D01*
X69412500Y-92450000D01*
X69287500Y-92450000D01*
X69281374Y-92449699D01*
X69275307Y-92448799D01*
X69269357Y-92447309D01*
X69263582Y-92445242D01*
X69258038Y-92442620D01*
X69252777Y-92439467D01*
X69247850Y-92435813D01*
X69243306Y-92431694D01*
X69239187Y-92427150D01*
X69235533Y-92422223D01*
X69232380Y-92416962D01*
X69229758Y-92411418D01*
X69227691Y-92405643D01*
X69226201Y-92399693D01*
X69225301Y-92393626D01*
X69225000Y-92387500D01*
X69225000Y-91687500D01*
X69225301Y-91681374D01*
X69226201Y-91675307D01*
X69227691Y-91669357D01*
X69229758Y-91663582D01*
X69232380Y-91658038D01*
X69235533Y-91652777D01*
X69239187Y-91647850D01*
X69243306Y-91643306D01*
X69247850Y-91639187D01*
X69252777Y-91635533D01*
X69258038Y-91632380D01*
X69263582Y-91629758D01*
X69269357Y-91627691D01*
X69275307Y-91626201D01*
X69281374Y-91625301D01*
X69287500Y-91625000D01*
X69412500Y-91625000D01*
X69418626Y-91625301D01*
G37*
G36*
X69918626Y-91625301D02*
G01*
X69924693Y-91626201D01*
X69930643Y-91627691D01*
X69936418Y-91629758D01*
X69941962Y-91632380D01*
X69947223Y-91635533D01*
X69952150Y-91639187D01*
X69956694Y-91643306D01*
X69960813Y-91647850D01*
X69964467Y-91652777D01*
X69967620Y-91658038D01*
X69970242Y-91663582D01*
X69972309Y-91669357D01*
X69973799Y-91675307D01*
X69974699Y-91681374D01*
X69975000Y-91687500D01*
X69975000Y-92387500D01*
X69974699Y-92393626D01*
X69973799Y-92399693D01*
X69972309Y-92405643D01*
X69970242Y-92411418D01*
X69967620Y-92416962D01*
X69964467Y-92422223D01*
X69960813Y-92427150D01*
X69956694Y-92431694D01*
X69952150Y-92435813D01*
X69947223Y-92439467D01*
X69941962Y-92442620D01*
X69936418Y-92445242D01*
X69930643Y-92447309D01*
X69924693Y-92448799D01*
X69918626Y-92449699D01*
X69912500Y-92450000D01*
X69787500Y-92450000D01*
X69781374Y-92449699D01*
X69775307Y-92448799D01*
X69769357Y-92447309D01*
X69763582Y-92445242D01*
X69758038Y-92442620D01*
X69752777Y-92439467D01*
X69747850Y-92435813D01*
X69743306Y-92431694D01*
X69739187Y-92427150D01*
X69735533Y-92422223D01*
X69732380Y-92416962D01*
X69729758Y-92411418D01*
X69727691Y-92405643D01*
X69726201Y-92399693D01*
X69725301Y-92393626D01*
X69725000Y-92387500D01*
X69725000Y-91687500D01*
X69725301Y-91681374D01*
X69726201Y-91675307D01*
X69727691Y-91669357D01*
X69729758Y-91663582D01*
X69732380Y-91658038D01*
X69735533Y-91652777D01*
X69739187Y-91647850D01*
X69743306Y-91643306D01*
X69747850Y-91639187D01*
X69752777Y-91635533D01*
X69758038Y-91632380D01*
X69763582Y-91629758D01*
X69769357Y-91627691D01*
X69775307Y-91626201D01*
X69781374Y-91625301D01*
X69787500Y-91625000D01*
X69912500Y-91625000D01*
X69918626Y-91625301D01*
G37*
G36*
X70418626Y-91625301D02*
G01*
X70424693Y-91626201D01*
X70430643Y-91627691D01*
X70436418Y-91629758D01*
X70441962Y-91632380D01*
X70447223Y-91635533D01*
X70452150Y-91639187D01*
X70456694Y-91643306D01*
X70460813Y-91647850D01*
X70464467Y-91652777D01*
X70467620Y-91658038D01*
X70470242Y-91663582D01*
X70472309Y-91669357D01*
X70473799Y-91675307D01*
X70474699Y-91681374D01*
X70475000Y-91687500D01*
X70475000Y-92387500D01*
X70474699Y-92393626D01*
X70473799Y-92399693D01*
X70472309Y-92405643D01*
X70470242Y-92411418D01*
X70467620Y-92416962D01*
X70464467Y-92422223D01*
X70460813Y-92427150D01*
X70456694Y-92431694D01*
X70452150Y-92435813D01*
X70447223Y-92439467D01*
X70441962Y-92442620D01*
X70436418Y-92445242D01*
X70430643Y-92447309D01*
X70424693Y-92448799D01*
X70418626Y-92449699D01*
X70412500Y-92450000D01*
X70287500Y-92450000D01*
X70281374Y-92449699D01*
X70275307Y-92448799D01*
X70269357Y-92447309D01*
X70263582Y-92445242D01*
X70258038Y-92442620D01*
X70252777Y-92439467D01*
X70247850Y-92435813D01*
X70243306Y-92431694D01*
X70239187Y-92427150D01*
X70235533Y-92422223D01*
X70232380Y-92416962D01*
X70229758Y-92411418D01*
X70227691Y-92405643D01*
X70226201Y-92399693D01*
X70225301Y-92393626D01*
X70225000Y-92387500D01*
X70225000Y-91687500D01*
X70225301Y-91681374D01*
X70226201Y-91675307D01*
X70227691Y-91669357D01*
X70229758Y-91663582D01*
X70232380Y-91658038D01*
X70235533Y-91652777D01*
X70239187Y-91647850D01*
X70243306Y-91643306D01*
X70247850Y-91639187D01*
X70252777Y-91635533D01*
X70258038Y-91632380D01*
X70263582Y-91629758D01*
X70269357Y-91627691D01*
X70275307Y-91626201D01*
X70281374Y-91625301D01*
X70287500Y-91625000D01*
X70412500Y-91625000D01*
X70418626Y-91625301D01*
G37*
G36*
X70918626Y-91625301D02*
G01*
X70924693Y-91626201D01*
X70930643Y-91627691D01*
X70936418Y-91629758D01*
X70941962Y-91632380D01*
X70947223Y-91635533D01*
X70952150Y-91639187D01*
X70956694Y-91643306D01*
X70960813Y-91647850D01*
X70964467Y-91652777D01*
X70967620Y-91658038D01*
X70970242Y-91663582D01*
X70972309Y-91669357D01*
X70973799Y-91675307D01*
X70974699Y-91681374D01*
X70975000Y-91687500D01*
X70975000Y-92387500D01*
X70974699Y-92393626D01*
X70973799Y-92399693D01*
X70972309Y-92405643D01*
X70970242Y-92411418D01*
X70967620Y-92416962D01*
X70964467Y-92422223D01*
X70960813Y-92427150D01*
X70956694Y-92431694D01*
X70952150Y-92435813D01*
X70947223Y-92439467D01*
X70941962Y-92442620D01*
X70936418Y-92445242D01*
X70930643Y-92447309D01*
X70924693Y-92448799D01*
X70918626Y-92449699D01*
X70912500Y-92450000D01*
X70787500Y-92450000D01*
X70781374Y-92449699D01*
X70775307Y-92448799D01*
X70769357Y-92447309D01*
X70763582Y-92445242D01*
X70758038Y-92442620D01*
X70752777Y-92439467D01*
X70747850Y-92435813D01*
X70743306Y-92431694D01*
X70739187Y-92427150D01*
X70735533Y-92422223D01*
X70732380Y-92416962D01*
X70729758Y-92411418D01*
X70727691Y-92405643D01*
X70726201Y-92399693D01*
X70725301Y-92393626D01*
X70725000Y-92387500D01*
X70725000Y-91687500D01*
X70725301Y-91681374D01*
X70726201Y-91675307D01*
X70727691Y-91669357D01*
X70729758Y-91663582D01*
X70732380Y-91658038D01*
X70735533Y-91652777D01*
X70739187Y-91647850D01*
X70743306Y-91643306D01*
X70747850Y-91639187D01*
X70752777Y-91635533D01*
X70758038Y-91632380D01*
X70763582Y-91629758D01*
X70769357Y-91627691D01*
X70775307Y-91626201D01*
X70781374Y-91625301D01*
X70787500Y-91625000D01*
X70912500Y-91625000D01*
X70918626Y-91625301D01*
G37*
G36*
X71418626Y-91625301D02*
G01*
X71424693Y-91626201D01*
X71430643Y-91627691D01*
X71436418Y-91629758D01*
X71441962Y-91632380D01*
X71447223Y-91635533D01*
X71452150Y-91639187D01*
X71456694Y-91643306D01*
X71460813Y-91647850D01*
X71464467Y-91652777D01*
X71467620Y-91658038D01*
X71470242Y-91663582D01*
X71472309Y-91669357D01*
X71473799Y-91675307D01*
X71474699Y-91681374D01*
X71475000Y-91687500D01*
X71475000Y-92387500D01*
X71474699Y-92393626D01*
X71473799Y-92399693D01*
X71472309Y-92405643D01*
X71470242Y-92411418D01*
X71467620Y-92416962D01*
X71464467Y-92422223D01*
X71460813Y-92427150D01*
X71456694Y-92431694D01*
X71452150Y-92435813D01*
X71447223Y-92439467D01*
X71441962Y-92442620D01*
X71436418Y-92445242D01*
X71430643Y-92447309D01*
X71424693Y-92448799D01*
X71418626Y-92449699D01*
X71412500Y-92450000D01*
X71287500Y-92450000D01*
X71281374Y-92449699D01*
X71275307Y-92448799D01*
X71269357Y-92447309D01*
X71263582Y-92445242D01*
X71258038Y-92442620D01*
X71252777Y-92439467D01*
X71247850Y-92435813D01*
X71243306Y-92431694D01*
X71239187Y-92427150D01*
X71235533Y-92422223D01*
X71232380Y-92416962D01*
X71229758Y-92411418D01*
X71227691Y-92405643D01*
X71226201Y-92399693D01*
X71225301Y-92393626D01*
X71225000Y-92387500D01*
X71225000Y-91687500D01*
X71225301Y-91681374D01*
X71226201Y-91675307D01*
X71227691Y-91669357D01*
X71229758Y-91663582D01*
X71232380Y-91658038D01*
X71235533Y-91652777D01*
X71239187Y-91647850D01*
X71243306Y-91643306D01*
X71247850Y-91639187D01*
X71252777Y-91635533D01*
X71258038Y-91632380D01*
X71263582Y-91629758D01*
X71269357Y-91627691D01*
X71275307Y-91626201D01*
X71281374Y-91625301D01*
X71287500Y-91625000D01*
X71412500Y-91625000D01*
X71418626Y-91625301D01*
G37*
G36*
X72418626Y-92625301D02*
G01*
X72424693Y-92626201D01*
X72430643Y-92627691D01*
X72436418Y-92629758D01*
X72441962Y-92632380D01*
X72447223Y-92635533D01*
X72452150Y-92639187D01*
X72456694Y-92643306D01*
X72460813Y-92647850D01*
X72464467Y-92652777D01*
X72467620Y-92658038D01*
X72470242Y-92663582D01*
X72472309Y-92669357D01*
X72473799Y-92675307D01*
X72474699Y-92681374D01*
X72475000Y-92687500D01*
X72475000Y-92812500D01*
X72474699Y-92818626D01*
X72473799Y-92824693D01*
X72472309Y-92830643D01*
X72470242Y-92836418D01*
X72467620Y-92841962D01*
X72464467Y-92847223D01*
X72460813Y-92852150D01*
X72456694Y-92856694D01*
X72452150Y-92860813D01*
X72447223Y-92864467D01*
X72441962Y-92867620D01*
X72436418Y-92870242D01*
X72430643Y-92872309D01*
X72424693Y-92873799D01*
X72418626Y-92874699D01*
X72412500Y-92875000D01*
X71712500Y-92875000D01*
X71706374Y-92874699D01*
X71700307Y-92873799D01*
X71694357Y-92872309D01*
X71688582Y-92870242D01*
X71683038Y-92867620D01*
X71677777Y-92864467D01*
X71672850Y-92860813D01*
X71668306Y-92856694D01*
X71664187Y-92852150D01*
X71660533Y-92847223D01*
X71657380Y-92841962D01*
X71654758Y-92836418D01*
X71652691Y-92830643D01*
X71651201Y-92824693D01*
X71650301Y-92818626D01*
X71650000Y-92812500D01*
X71650000Y-92687500D01*
X71650301Y-92681374D01*
X71651201Y-92675307D01*
X71652691Y-92669357D01*
X71654758Y-92663582D01*
X71657380Y-92658038D01*
X71660533Y-92652777D01*
X71664187Y-92647850D01*
X71668306Y-92643306D01*
X71672850Y-92639187D01*
X71677777Y-92635533D01*
X71683038Y-92632380D01*
X71688582Y-92629758D01*
X71694357Y-92627691D01*
X71700307Y-92626201D01*
X71706374Y-92625301D01*
X71712500Y-92625000D01*
X72412500Y-92625000D01*
X72418626Y-92625301D01*
G37*
G36*
X72418626Y-93125301D02*
G01*
X72424693Y-93126201D01*
X72430643Y-93127691D01*
X72436418Y-93129758D01*
X72441962Y-93132380D01*
X72447223Y-93135533D01*
X72452150Y-93139187D01*
X72456694Y-93143306D01*
X72460813Y-93147850D01*
X72464467Y-93152777D01*
X72467620Y-93158038D01*
X72470242Y-93163582D01*
X72472309Y-93169357D01*
X72473799Y-93175307D01*
X72474699Y-93181374D01*
X72475000Y-93187500D01*
X72475000Y-93312500D01*
X72474699Y-93318626D01*
X72473799Y-93324693D01*
X72472309Y-93330643D01*
X72470242Y-93336418D01*
X72467620Y-93341962D01*
X72464467Y-93347223D01*
X72460813Y-93352150D01*
X72456694Y-93356694D01*
X72452150Y-93360813D01*
X72447223Y-93364467D01*
X72441962Y-93367620D01*
X72436418Y-93370242D01*
X72430643Y-93372309D01*
X72424693Y-93373799D01*
X72418626Y-93374699D01*
X72412500Y-93375000D01*
X71712500Y-93375000D01*
X71706374Y-93374699D01*
X71700307Y-93373799D01*
X71694357Y-93372309D01*
X71688582Y-93370242D01*
X71683038Y-93367620D01*
X71677777Y-93364467D01*
X71672850Y-93360813D01*
X71668306Y-93356694D01*
X71664187Y-93352150D01*
X71660533Y-93347223D01*
X71657380Y-93341962D01*
X71654758Y-93336418D01*
X71652691Y-93330643D01*
X71651201Y-93324693D01*
X71650301Y-93318626D01*
X71650000Y-93312500D01*
X71650000Y-93187500D01*
X71650301Y-93181374D01*
X71651201Y-93175307D01*
X71652691Y-93169357D01*
X71654758Y-93163582D01*
X71657380Y-93158038D01*
X71660533Y-93152777D01*
X71664187Y-93147850D01*
X71668306Y-93143306D01*
X71672850Y-93139187D01*
X71677777Y-93135533D01*
X71683038Y-93132380D01*
X71688582Y-93129758D01*
X71694357Y-93127691D01*
X71700307Y-93126201D01*
X71706374Y-93125301D01*
X71712500Y-93125000D01*
X72412500Y-93125000D01*
X72418626Y-93125301D01*
G37*
G36*
X72418626Y-93625301D02*
G01*
X72424693Y-93626201D01*
X72430643Y-93627691D01*
X72436418Y-93629758D01*
X72441962Y-93632380D01*
X72447223Y-93635533D01*
X72452150Y-93639187D01*
X72456694Y-93643306D01*
X72460813Y-93647850D01*
X72464467Y-93652777D01*
X72467620Y-93658038D01*
X72470242Y-93663582D01*
X72472309Y-93669357D01*
X72473799Y-93675307D01*
X72474699Y-93681374D01*
X72475000Y-93687500D01*
X72475000Y-93812500D01*
X72474699Y-93818626D01*
X72473799Y-93824693D01*
X72472309Y-93830643D01*
X72470242Y-93836418D01*
X72467620Y-93841962D01*
X72464467Y-93847223D01*
X72460813Y-93852150D01*
X72456694Y-93856694D01*
X72452150Y-93860813D01*
X72447223Y-93864467D01*
X72441962Y-93867620D01*
X72436418Y-93870242D01*
X72430643Y-93872309D01*
X72424693Y-93873799D01*
X72418626Y-93874699D01*
X72412500Y-93875000D01*
X71712500Y-93875000D01*
X71706374Y-93874699D01*
X71700307Y-93873799D01*
X71694357Y-93872309D01*
X71688582Y-93870242D01*
X71683038Y-93867620D01*
X71677777Y-93864467D01*
X71672850Y-93860813D01*
X71668306Y-93856694D01*
X71664187Y-93852150D01*
X71660533Y-93847223D01*
X71657380Y-93841962D01*
X71654758Y-93836418D01*
X71652691Y-93830643D01*
X71651201Y-93824693D01*
X71650301Y-93818626D01*
X71650000Y-93812500D01*
X71650000Y-93687500D01*
X71650301Y-93681374D01*
X71651201Y-93675307D01*
X71652691Y-93669357D01*
X71654758Y-93663582D01*
X71657380Y-93658038D01*
X71660533Y-93652777D01*
X71664187Y-93647850D01*
X71668306Y-93643306D01*
X71672850Y-93639187D01*
X71677777Y-93635533D01*
X71683038Y-93632380D01*
X71688582Y-93629758D01*
X71694357Y-93627691D01*
X71700307Y-93626201D01*
X71706374Y-93625301D01*
X71712500Y-93625000D01*
X72412500Y-93625000D01*
X72418626Y-93625301D01*
G37*
G36*
X72418626Y-94125301D02*
G01*
X72424693Y-94126201D01*
X72430643Y-94127691D01*
X72436418Y-94129758D01*
X72441962Y-94132380D01*
X72447223Y-94135533D01*
X72452150Y-94139187D01*
X72456694Y-94143306D01*
X72460813Y-94147850D01*
X72464467Y-94152777D01*
X72467620Y-94158038D01*
X72470242Y-94163582D01*
X72472309Y-94169357D01*
X72473799Y-94175307D01*
X72474699Y-94181374D01*
X72475000Y-94187500D01*
X72475000Y-94312500D01*
X72474699Y-94318626D01*
X72473799Y-94324693D01*
X72472309Y-94330643D01*
X72470242Y-94336418D01*
X72467620Y-94341962D01*
X72464467Y-94347223D01*
X72460813Y-94352150D01*
X72456694Y-94356694D01*
X72452150Y-94360813D01*
X72447223Y-94364467D01*
X72441962Y-94367620D01*
X72436418Y-94370242D01*
X72430643Y-94372309D01*
X72424693Y-94373799D01*
X72418626Y-94374699D01*
X72412500Y-94375000D01*
X71712500Y-94375000D01*
X71706374Y-94374699D01*
X71700307Y-94373799D01*
X71694357Y-94372309D01*
X71688582Y-94370242D01*
X71683038Y-94367620D01*
X71677777Y-94364467D01*
X71672850Y-94360813D01*
X71668306Y-94356694D01*
X71664187Y-94352150D01*
X71660533Y-94347223D01*
X71657380Y-94341962D01*
X71654758Y-94336418D01*
X71652691Y-94330643D01*
X71651201Y-94324693D01*
X71650301Y-94318626D01*
X71650000Y-94312500D01*
X71650000Y-94187500D01*
X71650301Y-94181374D01*
X71651201Y-94175307D01*
X71652691Y-94169357D01*
X71654758Y-94163582D01*
X71657380Y-94158038D01*
X71660533Y-94152777D01*
X71664187Y-94147850D01*
X71668306Y-94143306D01*
X71672850Y-94139187D01*
X71677777Y-94135533D01*
X71683038Y-94132380D01*
X71688582Y-94129758D01*
X71694357Y-94127691D01*
X71700307Y-94126201D01*
X71706374Y-94125301D01*
X71712500Y-94125000D01*
X72412500Y-94125000D01*
X72418626Y-94125301D01*
G37*
G36*
X72418626Y-94625301D02*
G01*
X72424693Y-94626201D01*
X72430643Y-94627691D01*
X72436418Y-94629758D01*
X72441962Y-94632380D01*
X72447223Y-94635533D01*
X72452150Y-94639187D01*
X72456694Y-94643306D01*
X72460813Y-94647850D01*
X72464467Y-94652777D01*
X72467620Y-94658038D01*
X72470242Y-94663582D01*
X72472309Y-94669357D01*
X72473799Y-94675307D01*
X72474699Y-94681374D01*
X72475000Y-94687500D01*
X72475000Y-94812500D01*
X72474699Y-94818626D01*
X72473799Y-94824693D01*
X72472309Y-94830643D01*
X72470242Y-94836418D01*
X72467620Y-94841962D01*
X72464467Y-94847223D01*
X72460813Y-94852150D01*
X72456694Y-94856694D01*
X72452150Y-94860813D01*
X72447223Y-94864467D01*
X72441962Y-94867620D01*
X72436418Y-94870242D01*
X72430643Y-94872309D01*
X72424693Y-94873799D01*
X72418626Y-94874699D01*
X72412500Y-94875000D01*
X71712500Y-94875000D01*
X71706374Y-94874699D01*
X71700307Y-94873799D01*
X71694357Y-94872309D01*
X71688582Y-94870242D01*
X71683038Y-94867620D01*
X71677777Y-94864467D01*
X71672850Y-94860813D01*
X71668306Y-94856694D01*
X71664187Y-94852150D01*
X71660533Y-94847223D01*
X71657380Y-94841962D01*
X71654758Y-94836418D01*
X71652691Y-94830643D01*
X71651201Y-94824693D01*
X71650301Y-94818626D01*
X71650000Y-94812500D01*
X71650000Y-94687500D01*
X71650301Y-94681374D01*
X71651201Y-94675307D01*
X71652691Y-94669357D01*
X71654758Y-94663582D01*
X71657380Y-94658038D01*
X71660533Y-94652777D01*
X71664187Y-94647850D01*
X71668306Y-94643306D01*
X71672850Y-94639187D01*
X71677777Y-94635533D01*
X71683038Y-94632380D01*
X71688582Y-94629758D01*
X71694357Y-94627691D01*
X71700307Y-94626201D01*
X71706374Y-94625301D01*
X71712500Y-94625000D01*
X72412500Y-94625000D01*
X72418626Y-94625301D01*
G37*
G36*
X72418626Y-95125301D02*
G01*
X72424693Y-95126201D01*
X72430643Y-95127691D01*
X72436418Y-95129758D01*
X72441962Y-95132380D01*
X72447223Y-95135533D01*
X72452150Y-95139187D01*
X72456694Y-95143306D01*
X72460813Y-95147850D01*
X72464467Y-95152777D01*
X72467620Y-95158038D01*
X72470242Y-95163582D01*
X72472309Y-95169357D01*
X72473799Y-95175307D01*
X72474699Y-95181374D01*
X72475000Y-95187500D01*
X72475000Y-95312500D01*
X72474699Y-95318626D01*
X72473799Y-95324693D01*
X72472309Y-95330643D01*
X72470242Y-95336418D01*
X72467620Y-95341962D01*
X72464467Y-95347223D01*
X72460813Y-95352150D01*
X72456694Y-95356694D01*
X72452150Y-95360813D01*
X72447223Y-95364467D01*
X72441962Y-95367620D01*
X72436418Y-95370242D01*
X72430643Y-95372309D01*
X72424693Y-95373799D01*
X72418626Y-95374699D01*
X72412500Y-95375000D01*
X71712500Y-95375000D01*
X71706374Y-95374699D01*
X71700307Y-95373799D01*
X71694357Y-95372309D01*
X71688582Y-95370242D01*
X71683038Y-95367620D01*
X71677777Y-95364467D01*
X71672850Y-95360813D01*
X71668306Y-95356694D01*
X71664187Y-95352150D01*
X71660533Y-95347223D01*
X71657380Y-95341962D01*
X71654758Y-95336418D01*
X71652691Y-95330643D01*
X71651201Y-95324693D01*
X71650301Y-95318626D01*
X71650000Y-95312500D01*
X71650000Y-95187500D01*
X71650301Y-95181374D01*
X71651201Y-95175307D01*
X71652691Y-95169357D01*
X71654758Y-95163582D01*
X71657380Y-95158038D01*
X71660533Y-95152777D01*
X71664187Y-95147850D01*
X71668306Y-95143306D01*
X71672850Y-95139187D01*
X71677777Y-95135533D01*
X71683038Y-95132380D01*
X71688582Y-95129758D01*
X71694357Y-95127691D01*
X71700307Y-95126201D01*
X71706374Y-95125301D01*
X71712500Y-95125000D01*
X72412500Y-95125000D01*
X72418626Y-95125301D01*
G37*
G36*
X71418626Y-95550301D02*
G01*
X71424693Y-95551201D01*
X71430643Y-95552691D01*
X71436418Y-95554758D01*
X71441962Y-95557380D01*
X71447223Y-95560533D01*
X71452150Y-95564187D01*
X71456694Y-95568306D01*
X71460813Y-95572850D01*
X71464467Y-95577777D01*
X71467620Y-95583038D01*
X71470242Y-95588582D01*
X71472309Y-95594357D01*
X71473799Y-95600307D01*
X71474699Y-95606374D01*
X71475000Y-95612500D01*
X71475000Y-96312500D01*
X71474699Y-96318626D01*
X71473799Y-96324693D01*
X71472309Y-96330643D01*
X71470242Y-96336418D01*
X71467620Y-96341962D01*
X71464467Y-96347223D01*
X71460813Y-96352150D01*
X71456694Y-96356694D01*
X71452150Y-96360813D01*
X71447223Y-96364467D01*
X71441962Y-96367620D01*
X71436418Y-96370242D01*
X71430643Y-96372309D01*
X71424693Y-96373799D01*
X71418626Y-96374699D01*
X71412500Y-96375000D01*
X71287500Y-96375000D01*
X71281374Y-96374699D01*
X71275307Y-96373799D01*
X71269357Y-96372309D01*
X71263582Y-96370242D01*
X71258038Y-96367620D01*
X71252777Y-96364467D01*
X71247850Y-96360813D01*
X71243306Y-96356694D01*
X71239187Y-96352150D01*
X71235533Y-96347223D01*
X71232380Y-96341962D01*
X71229758Y-96336418D01*
X71227691Y-96330643D01*
X71226201Y-96324693D01*
X71225301Y-96318626D01*
X71225000Y-96312500D01*
X71225000Y-95612500D01*
X71225301Y-95606374D01*
X71226201Y-95600307D01*
X71227691Y-95594357D01*
X71229758Y-95588582D01*
X71232380Y-95583038D01*
X71235533Y-95577777D01*
X71239187Y-95572850D01*
X71243306Y-95568306D01*
X71247850Y-95564187D01*
X71252777Y-95560533D01*
X71258038Y-95557380D01*
X71263582Y-95554758D01*
X71269357Y-95552691D01*
X71275307Y-95551201D01*
X71281374Y-95550301D01*
X71287500Y-95550000D01*
X71412500Y-95550000D01*
X71418626Y-95550301D01*
G37*
G36*
X70918626Y-95550301D02*
G01*
X70924693Y-95551201D01*
X70930643Y-95552691D01*
X70936418Y-95554758D01*
X70941962Y-95557380D01*
X70947223Y-95560533D01*
X70952150Y-95564187D01*
X70956694Y-95568306D01*
X70960813Y-95572850D01*
X70964467Y-95577777D01*
X70967620Y-95583038D01*
X70970242Y-95588582D01*
X70972309Y-95594357D01*
X70973799Y-95600307D01*
X70974699Y-95606374D01*
X70975000Y-95612500D01*
X70975000Y-96312500D01*
X70974699Y-96318626D01*
X70973799Y-96324693D01*
X70972309Y-96330643D01*
X70970242Y-96336418D01*
X70967620Y-96341962D01*
X70964467Y-96347223D01*
X70960813Y-96352150D01*
X70956694Y-96356694D01*
X70952150Y-96360813D01*
X70947223Y-96364467D01*
X70941962Y-96367620D01*
X70936418Y-96370242D01*
X70930643Y-96372309D01*
X70924693Y-96373799D01*
X70918626Y-96374699D01*
X70912500Y-96375000D01*
X70787500Y-96375000D01*
X70781374Y-96374699D01*
X70775307Y-96373799D01*
X70769357Y-96372309D01*
X70763582Y-96370242D01*
X70758038Y-96367620D01*
X70752777Y-96364467D01*
X70747850Y-96360813D01*
X70743306Y-96356694D01*
X70739187Y-96352150D01*
X70735533Y-96347223D01*
X70732380Y-96341962D01*
X70729758Y-96336418D01*
X70727691Y-96330643D01*
X70726201Y-96324693D01*
X70725301Y-96318626D01*
X70725000Y-96312500D01*
X70725000Y-95612500D01*
X70725301Y-95606374D01*
X70726201Y-95600307D01*
X70727691Y-95594357D01*
X70729758Y-95588582D01*
X70732380Y-95583038D01*
X70735533Y-95577777D01*
X70739187Y-95572850D01*
X70743306Y-95568306D01*
X70747850Y-95564187D01*
X70752777Y-95560533D01*
X70758038Y-95557380D01*
X70763582Y-95554758D01*
X70769357Y-95552691D01*
X70775307Y-95551201D01*
X70781374Y-95550301D01*
X70787500Y-95550000D01*
X70912500Y-95550000D01*
X70918626Y-95550301D01*
G37*
G36*
X70418626Y-95550301D02*
G01*
X70424693Y-95551201D01*
X70430643Y-95552691D01*
X70436418Y-95554758D01*
X70441962Y-95557380D01*
X70447223Y-95560533D01*
X70452150Y-95564187D01*
X70456694Y-95568306D01*
X70460813Y-95572850D01*
X70464467Y-95577777D01*
X70467620Y-95583038D01*
X70470242Y-95588582D01*
X70472309Y-95594357D01*
X70473799Y-95600307D01*
X70474699Y-95606374D01*
X70475000Y-95612500D01*
X70475000Y-96312500D01*
X70474699Y-96318626D01*
X70473799Y-96324693D01*
X70472309Y-96330643D01*
X70470242Y-96336418D01*
X70467620Y-96341962D01*
X70464467Y-96347223D01*
X70460813Y-96352150D01*
X70456694Y-96356694D01*
X70452150Y-96360813D01*
X70447223Y-96364467D01*
X70441962Y-96367620D01*
X70436418Y-96370242D01*
X70430643Y-96372309D01*
X70424693Y-96373799D01*
X70418626Y-96374699D01*
X70412500Y-96375000D01*
X70287500Y-96375000D01*
X70281374Y-96374699D01*
X70275307Y-96373799D01*
X70269357Y-96372309D01*
X70263582Y-96370242D01*
X70258038Y-96367620D01*
X70252777Y-96364467D01*
X70247850Y-96360813D01*
X70243306Y-96356694D01*
X70239187Y-96352150D01*
X70235533Y-96347223D01*
X70232380Y-96341962D01*
X70229758Y-96336418D01*
X70227691Y-96330643D01*
X70226201Y-96324693D01*
X70225301Y-96318626D01*
X70225000Y-96312500D01*
X70225000Y-95612500D01*
X70225301Y-95606374D01*
X70226201Y-95600307D01*
X70227691Y-95594357D01*
X70229758Y-95588582D01*
X70232380Y-95583038D01*
X70235533Y-95577777D01*
X70239187Y-95572850D01*
X70243306Y-95568306D01*
X70247850Y-95564187D01*
X70252777Y-95560533D01*
X70258038Y-95557380D01*
X70263582Y-95554758D01*
X70269357Y-95552691D01*
X70275307Y-95551201D01*
X70281374Y-95550301D01*
X70287500Y-95550000D01*
X70412500Y-95550000D01*
X70418626Y-95550301D01*
G37*
G36*
X69918626Y-95550301D02*
G01*
X69924693Y-95551201D01*
X69930643Y-95552691D01*
X69936418Y-95554758D01*
X69941962Y-95557380D01*
X69947223Y-95560533D01*
X69952150Y-95564187D01*
X69956694Y-95568306D01*
X69960813Y-95572850D01*
X69964467Y-95577777D01*
X69967620Y-95583038D01*
X69970242Y-95588582D01*
X69972309Y-95594357D01*
X69973799Y-95600307D01*
X69974699Y-95606374D01*
X69975000Y-95612500D01*
X69975000Y-96312500D01*
X69974699Y-96318626D01*
X69973799Y-96324693D01*
X69972309Y-96330643D01*
X69970242Y-96336418D01*
X69967620Y-96341962D01*
X69964467Y-96347223D01*
X69960813Y-96352150D01*
X69956694Y-96356694D01*
X69952150Y-96360813D01*
X69947223Y-96364467D01*
X69941962Y-96367620D01*
X69936418Y-96370242D01*
X69930643Y-96372309D01*
X69924693Y-96373799D01*
X69918626Y-96374699D01*
X69912500Y-96375000D01*
X69787500Y-96375000D01*
X69781374Y-96374699D01*
X69775307Y-96373799D01*
X69769357Y-96372309D01*
X69763582Y-96370242D01*
X69758038Y-96367620D01*
X69752777Y-96364467D01*
X69747850Y-96360813D01*
X69743306Y-96356694D01*
X69739187Y-96352150D01*
X69735533Y-96347223D01*
X69732380Y-96341962D01*
X69729758Y-96336418D01*
X69727691Y-96330643D01*
X69726201Y-96324693D01*
X69725301Y-96318626D01*
X69725000Y-96312500D01*
X69725000Y-95612500D01*
X69725301Y-95606374D01*
X69726201Y-95600307D01*
X69727691Y-95594357D01*
X69729758Y-95588582D01*
X69732380Y-95583038D01*
X69735533Y-95577777D01*
X69739187Y-95572850D01*
X69743306Y-95568306D01*
X69747850Y-95564187D01*
X69752777Y-95560533D01*
X69758038Y-95557380D01*
X69763582Y-95554758D01*
X69769357Y-95552691D01*
X69775307Y-95551201D01*
X69781374Y-95550301D01*
X69787500Y-95550000D01*
X69912500Y-95550000D01*
X69918626Y-95550301D01*
G37*
G36*
X69418626Y-95550301D02*
G01*
X69424693Y-95551201D01*
X69430643Y-95552691D01*
X69436418Y-95554758D01*
X69441962Y-95557380D01*
X69447223Y-95560533D01*
X69452150Y-95564187D01*
X69456694Y-95568306D01*
X69460813Y-95572850D01*
X69464467Y-95577777D01*
X69467620Y-95583038D01*
X69470242Y-95588582D01*
X69472309Y-95594357D01*
X69473799Y-95600307D01*
X69474699Y-95606374D01*
X69475000Y-95612500D01*
X69475000Y-96312500D01*
X69474699Y-96318626D01*
X69473799Y-96324693D01*
X69472309Y-96330643D01*
X69470242Y-96336418D01*
X69467620Y-96341962D01*
X69464467Y-96347223D01*
X69460813Y-96352150D01*
X69456694Y-96356694D01*
X69452150Y-96360813D01*
X69447223Y-96364467D01*
X69441962Y-96367620D01*
X69436418Y-96370242D01*
X69430643Y-96372309D01*
X69424693Y-96373799D01*
X69418626Y-96374699D01*
X69412500Y-96375000D01*
X69287500Y-96375000D01*
X69281374Y-96374699D01*
X69275307Y-96373799D01*
X69269357Y-96372309D01*
X69263582Y-96370242D01*
X69258038Y-96367620D01*
X69252777Y-96364467D01*
X69247850Y-96360813D01*
X69243306Y-96356694D01*
X69239187Y-96352150D01*
X69235533Y-96347223D01*
X69232380Y-96341962D01*
X69229758Y-96336418D01*
X69227691Y-96330643D01*
X69226201Y-96324693D01*
X69225301Y-96318626D01*
X69225000Y-96312500D01*
X69225000Y-95612500D01*
X69225301Y-95606374D01*
X69226201Y-95600307D01*
X69227691Y-95594357D01*
X69229758Y-95588582D01*
X69232380Y-95583038D01*
X69235533Y-95577777D01*
X69239187Y-95572850D01*
X69243306Y-95568306D01*
X69247850Y-95564187D01*
X69252777Y-95560533D01*
X69258038Y-95557380D01*
X69263582Y-95554758D01*
X69269357Y-95552691D01*
X69275307Y-95551201D01*
X69281374Y-95550301D01*
X69287500Y-95550000D01*
X69412500Y-95550000D01*
X69418626Y-95550301D01*
G37*
G36*
X68918626Y-95550301D02*
G01*
X68924693Y-95551201D01*
X68930643Y-95552691D01*
X68936418Y-95554758D01*
X68941962Y-95557380D01*
X68947223Y-95560533D01*
X68952150Y-95564187D01*
X68956694Y-95568306D01*
X68960813Y-95572850D01*
X68964467Y-95577777D01*
X68967620Y-95583038D01*
X68970242Y-95588582D01*
X68972309Y-95594357D01*
X68973799Y-95600307D01*
X68974699Y-95606374D01*
X68975000Y-95612500D01*
X68975000Y-96312500D01*
X68974699Y-96318626D01*
X68973799Y-96324693D01*
X68972309Y-96330643D01*
X68970242Y-96336418D01*
X68967620Y-96341962D01*
X68964467Y-96347223D01*
X68960813Y-96352150D01*
X68956694Y-96356694D01*
X68952150Y-96360813D01*
X68947223Y-96364467D01*
X68941962Y-96367620D01*
X68936418Y-96370242D01*
X68930643Y-96372309D01*
X68924693Y-96373799D01*
X68918626Y-96374699D01*
X68912500Y-96375000D01*
X68787500Y-96375000D01*
X68781374Y-96374699D01*
X68775307Y-96373799D01*
X68769357Y-96372309D01*
X68763582Y-96370242D01*
X68758038Y-96367620D01*
X68752777Y-96364467D01*
X68747850Y-96360813D01*
X68743306Y-96356694D01*
X68739187Y-96352150D01*
X68735533Y-96347223D01*
X68732380Y-96341962D01*
X68729758Y-96336418D01*
X68727691Y-96330643D01*
X68726201Y-96324693D01*
X68725301Y-96318626D01*
X68725000Y-96312500D01*
X68725000Y-95612500D01*
X68725301Y-95606374D01*
X68726201Y-95600307D01*
X68727691Y-95594357D01*
X68729758Y-95588582D01*
X68732380Y-95583038D01*
X68735533Y-95577777D01*
X68739187Y-95572850D01*
X68743306Y-95568306D01*
X68747850Y-95564187D01*
X68752777Y-95560533D01*
X68758038Y-95557380D01*
X68763582Y-95554758D01*
X68769357Y-95552691D01*
X68775307Y-95551201D01*
X68781374Y-95550301D01*
X68787500Y-95550000D01*
X68912500Y-95550000D01*
X68918626Y-95550301D01*
G37*
G36*
X68493626Y-95125301D02*
G01*
X68499693Y-95126201D01*
X68505643Y-95127691D01*
X68511418Y-95129758D01*
X68516962Y-95132380D01*
X68522223Y-95135533D01*
X68527150Y-95139187D01*
X68531694Y-95143306D01*
X68535813Y-95147850D01*
X68539467Y-95152777D01*
X68542620Y-95158038D01*
X68545242Y-95163582D01*
X68547309Y-95169357D01*
X68548799Y-95175307D01*
X68549699Y-95181374D01*
X68550000Y-95187500D01*
X68550000Y-95312500D01*
X68549699Y-95318626D01*
X68548799Y-95324693D01*
X68547309Y-95330643D01*
X68545242Y-95336418D01*
X68542620Y-95341962D01*
X68539467Y-95347223D01*
X68535813Y-95352150D01*
X68531694Y-95356694D01*
X68527150Y-95360813D01*
X68522223Y-95364467D01*
X68516962Y-95367620D01*
X68511418Y-95370242D01*
X68505643Y-95372309D01*
X68499693Y-95373799D01*
X68493626Y-95374699D01*
X68487500Y-95375000D01*
X67787500Y-95375000D01*
X67781374Y-95374699D01*
X67775307Y-95373799D01*
X67769357Y-95372309D01*
X67763582Y-95370242D01*
X67758038Y-95367620D01*
X67752777Y-95364467D01*
X67747850Y-95360813D01*
X67743306Y-95356694D01*
X67739187Y-95352150D01*
X67735533Y-95347223D01*
X67732380Y-95341962D01*
X67729758Y-95336418D01*
X67727691Y-95330643D01*
X67726201Y-95324693D01*
X67725301Y-95318626D01*
X67725000Y-95312500D01*
X67725000Y-95187500D01*
X67725301Y-95181374D01*
X67726201Y-95175307D01*
X67727691Y-95169357D01*
X67729758Y-95163582D01*
X67732380Y-95158038D01*
X67735533Y-95152777D01*
X67739187Y-95147850D01*
X67743306Y-95143306D01*
X67747850Y-95139187D01*
X67752777Y-95135533D01*
X67758038Y-95132380D01*
X67763582Y-95129758D01*
X67769357Y-95127691D01*
X67775307Y-95126201D01*
X67781374Y-95125301D01*
X67787500Y-95125000D01*
X68487500Y-95125000D01*
X68493626Y-95125301D01*
G37*
G36*
X68493626Y-94625301D02*
G01*
X68499693Y-94626201D01*
X68505643Y-94627691D01*
X68511418Y-94629758D01*
X68516962Y-94632380D01*
X68522223Y-94635533D01*
X68527150Y-94639187D01*
X68531694Y-94643306D01*
X68535813Y-94647850D01*
X68539467Y-94652777D01*
X68542620Y-94658038D01*
X68545242Y-94663582D01*
X68547309Y-94669357D01*
X68548799Y-94675307D01*
X68549699Y-94681374D01*
X68550000Y-94687500D01*
X68550000Y-94812500D01*
X68549699Y-94818626D01*
X68548799Y-94824693D01*
X68547309Y-94830643D01*
X68545242Y-94836418D01*
X68542620Y-94841962D01*
X68539467Y-94847223D01*
X68535813Y-94852150D01*
X68531694Y-94856694D01*
X68527150Y-94860813D01*
X68522223Y-94864467D01*
X68516962Y-94867620D01*
X68511418Y-94870242D01*
X68505643Y-94872309D01*
X68499693Y-94873799D01*
X68493626Y-94874699D01*
X68487500Y-94875000D01*
X67787500Y-94875000D01*
X67781374Y-94874699D01*
X67775307Y-94873799D01*
X67769357Y-94872309D01*
X67763582Y-94870242D01*
X67758038Y-94867620D01*
X67752777Y-94864467D01*
X67747850Y-94860813D01*
X67743306Y-94856694D01*
X67739187Y-94852150D01*
X67735533Y-94847223D01*
X67732380Y-94841962D01*
X67729758Y-94836418D01*
X67727691Y-94830643D01*
X67726201Y-94824693D01*
X67725301Y-94818626D01*
X67725000Y-94812500D01*
X67725000Y-94687500D01*
X67725301Y-94681374D01*
X67726201Y-94675307D01*
X67727691Y-94669357D01*
X67729758Y-94663582D01*
X67732380Y-94658038D01*
X67735533Y-94652777D01*
X67739187Y-94647850D01*
X67743306Y-94643306D01*
X67747850Y-94639187D01*
X67752777Y-94635533D01*
X67758038Y-94632380D01*
X67763582Y-94629758D01*
X67769357Y-94627691D01*
X67775307Y-94626201D01*
X67781374Y-94625301D01*
X67787500Y-94625000D01*
X68487500Y-94625000D01*
X68493626Y-94625301D01*
G37*
G36*
X68493626Y-94125301D02*
G01*
X68499693Y-94126201D01*
X68505643Y-94127691D01*
X68511418Y-94129758D01*
X68516962Y-94132380D01*
X68522223Y-94135533D01*
X68527150Y-94139187D01*
X68531694Y-94143306D01*
X68535813Y-94147850D01*
X68539467Y-94152777D01*
X68542620Y-94158038D01*
X68545242Y-94163582D01*
X68547309Y-94169357D01*
X68548799Y-94175307D01*
X68549699Y-94181374D01*
X68550000Y-94187500D01*
X68550000Y-94312500D01*
X68549699Y-94318626D01*
X68548799Y-94324693D01*
X68547309Y-94330643D01*
X68545242Y-94336418D01*
X68542620Y-94341962D01*
X68539467Y-94347223D01*
X68535813Y-94352150D01*
X68531694Y-94356694D01*
X68527150Y-94360813D01*
X68522223Y-94364467D01*
X68516962Y-94367620D01*
X68511418Y-94370242D01*
X68505643Y-94372309D01*
X68499693Y-94373799D01*
X68493626Y-94374699D01*
X68487500Y-94375000D01*
X67787500Y-94375000D01*
X67781374Y-94374699D01*
X67775307Y-94373799D01*
X67769357Y-94372309D01*
X67763582Y-94370242D01*
X67758038Y-94367620D01*
X67752777Y-94364467D01*
X67747850Y-94360813D01*
X67743306Y-94356694D01*
X67739187Y-94352150D01*
X67735533Y-94347223D01*
X67732380Y-94341962D01*
X67729758Y-94336418D01*
X67727691Y-94330643D01*
X67726201Y-94324693D01*
X67725301Y-94318626D01*
X67725000Y-94312500D01*
X67725000Y-94187500D01*
X67725301Y-94181374D01*
X67726201Y-94175307D01*
X67727691Y-94169357D01*
X67729758Y-94163582D01*
X67732380Y-94158038D01*
X67735533Y-94152777D01*
X67739187Y-94147850D01*
X67743306Y-94143306D01*
X67747850Y-94139187D01*
X67752777Y-94135533D01*
X67758038Y-94132380D01*
X67763582Y-94129758D01*
X67769357Y-94127691D01*
X67775307Y-94126201D01*
X67781374Y-94125301D01*
X67787500Y-94125000D01*
X68487500Y-94125000D01*
X68493626Y-94125301D01*
G37*
G36*
X68493626Y-93625301D02*
G01*
X68499693Y-93626201D01*
X68505643Y-93627691D01*
X68511418Y-93629758D01*
X68516962Y-93632380D01*
X68522223Y-93635533D01*
X68527150Y-93639187D01*
X68531694Y-93643306D01*
X68535813Y-93647850D01*
X68539467Y-93652777D01*
X68542620Y-93658038D01*
X68545242Y-93663582D01*
X68547309Y-93669357D01*
X68548799Y-93675307D01*
X68549699Y-93681374D01*
X68550000Y-93687500D01*
X68550000Y-93812500D01*
X68549699Y-93818626D01*
X68548799Y-93824693D01*
X68547309Y-93830643D01*
X68545242Y-93836418D01*
X68542620Y-93841962D01*
X68539467Y-93847223D01*
X68535813Y-93852150D01*
X68531694Y-93856694D01*
X68527150Y-93860813D01*
X68522223Y-93864467D01*
X68516962Y-93867620D01*
X68511418Y-93870242D01*
X68505643Y-93872309D01*
X68499693Y-93873799D01*
X68493626Y-93874699D01*
X68487500Y-93875000D01*
X67787500Y-93875000D01*
X67781374Y-93874699D01*
X67775307Y-93873799D01*
X67769357Y-93872309D01*
X67763582Y-93870242D01*
X67758038Y-93867620D01*
X67752777Y-93864467D01*
X67747850Y-93860813D01*
X67743306Y-93856694D01*
X67739187Y-93852150D01*
X67735533Y-93847223D01*
X67732380Y-93841962D01*
X67729758Y-93836418D01*
X67727691Y-93830643D01*
X67726201Y-93824693D01*
X67725301Y-93818626D01*
X67725000Y-93812500D01*
X67725000Y-93687500D01*
X67725301Y-93681374D01*
X67726201Y-93675307D01*
X67727691Y-93669357D01*
X67729758Y-93663582D01*
X67732380Y-93658038D01*
X67735533Y-93652777D01*
X67739187Y-93647850D01*
X67743306Y-93643306D01*
X67747850Y-93639187D01*
X67752777Y-93635533D01*
X67758038Y-93632380D01*
X67763582Y-93629758D01*
X67769357Y-93627691D01*
X67775307Y-93626201D01*
X67781374Y-93625301D01*
X67787500Y-93625000D01*
X68487500Y-93625000D01*
X68493626Y-93625301D01*
G37*
G36*
X68493626Y-93125301D02*
G01*
X68499693Y-93126201D01*
X68505643Y-93127691D01*
X68511418Y-93129758D01*
X68516962Y-93132380D01*
X68522223Y-93135533D01*
X68527150Y-93139187D01*
X68531694Y-93143306D01*
X68535813Y-93147850D01*
X68539467Y-93152777D01*
X68542620Y-93158038D01*
X68545242Y-93163582D01*
X68547309Y-93169357D01*
X68548799Y-93175307D01*
X68549699Y-93181374D01*
X68550000Y-93187500D01*
X68550000Y-93312500D01*
X68549699Y-93318626D01*
X68548799Y-93324693D01*
X68547309Y-93330643D01*
X68545242Y-93336418D01*
X68542620Y-93341962D01*
X68539467Y-93347223D01*
X68535813Y-93352150D01*
X68531694Y-93356694D01*
X68527150Y-93360813D01*
X68522223Y-93364467D01*
X68516962Y-93367620D01*
X68511418Y-93370242D01*
X68505643Y-93372309D01*
X68499693Y-93373799D01*
X68493626Y-93374699D01*
X68487500Y-93375000D01*
X67787500Y-93375000D01*
X67781374Y-93374699D01*
X67775307Y-93373799D01*
X67769357Y-93372309D01*
X67763582Y-93370242D01*
X67758038Y-93367620D01*
X67752777Y-93364467D01*
X67747850Y-93360813D01*
X67743306Y-93356694D01*
X67739187Y-93352150D01*
X67735533Y-93347223D01*
X67732380Y-93341962D01*
X67729758Y-93336418D01*
X67727691Y-93330643D01*
X67726201Y-93324693D01*
X67725301Y-93318626D01*
X67725000Y-93312500D01*
X67725000Y-93187500D01*
X67725301Y-93181374D01*
X67726201Y-93175307D01*
X67727691Y-93169357D01*
X67729758Y-93163582D01*
X67732380Y-93158038D01*
X67735533Y-93152777D01*
X67739187Y-93147850D01*
X67743306Y-93143306D01*
X67747850Y-93139187D01*
X67752777Y-93135533D01*
X67758038Y-93132380D01*
X67763582Y-93129758D01*
X67769357Y-93127691D01*
X67775307Y-93126201D01*
X67781374Y-93125301D01*
X67787500Y-93125000D01*
X68487500Y-93125000D01*
X68493626Y-93125301D01*
G37*
G36*
X68493626Y-92625301D02*
G01*
X68499693Y-92626201D01*
X68505643Y-92627691D01*
X68511418Y-92629758D01*
X68516962Y-92632380D01*
X68522223Y-92635533D01*
X68527150Y-92639187D01*
X68531694Y-92643306D01*
X68535813Y-92647850D01*
X68539467Y-92652777D01*
X68542620Y-92658038D01*
X68545242Y-92663582D01*
X68547309Y-92669357D01*
X68548799Y-92675307D01*
X68549699Y-92681374D01*
X68550000Y-92687500D01*
X68550000Y-92812500D01*
X68549699Y-92818626D01*
X68548799Y-92824693D01*
X68547309Y-92830643D01*
X68545242Y-92836418D01*
X68542620Y-92841962D01*
X68539467Y-92847223D01*
X68535813Y-92852150D01*
X68531694Y-92856694D01*
X68527150Y-92860813D01*
X68522223Y-92864467D01*
X68516962Y-92867620D01*
X68511418Y-92870242D01*
X68505643Y-92872309D01*
X68499693Y-92873799D01*
X68493626Y-92874699D01*
X68487500Y-92875000D01*
X67787500Y-92875000D01*
X67781374Y-92874699D01*
X67775307Y-92873799D01*
X67769357Y-92872309D01*
X67763582Y-92870242D01*
X67758038Y-92867620D01*
X67752777Y-92864467D01*
X67747850Y-92860813D01*
X67743306Y-92856694D01*
X67739187Y-92852150D01*
X67735533Y-92847223D01*
X67732380Y-92841962D01*
X67729758Y-92836418D01*
X67727691Y-92830643D01*
X67726201Y-92824693D01*
X67725301Y-92818626D01*
X67725000Y-92812500D01*
X67725000Y-92687500D01*
X67725301Y-92681374D01*
X67726201Y-92675307D01*
X67727691Y-92669357D01*
X67729758Y-92663582D01*
X67732380Y-92658038D01*
X67735533Y-92652777D01*
X67739187Y-92647850D01*
X67743306Y-92643306D01*
X67747850Y-92639187D01*
X67752777Y-92635533D01*
X67758038Y-92632380D01*
X67763582Y-92629758D01*
X67769357Y-92627691D01*
X67775307Y-92626201D01*
X67781374Y-92625301D01*
X67787500Y-92625000D01*
X68487500Y-92625000D01*
X68493626Y-92625301D01*
G37*
G36*
X71224503Y-92651204D02*
G01*
X71248772Y-92654804D01*
X71272570Y-92660765D01*
X71295670Y-92669030D01*
X71317849Y-92679520D01*
X71338892Y-92692133D01*
X71358598Y-92706748D01*
X71376776Y-92723224D01*
X71393252Y-92741402D01*
X71407867Y-92761108D01*
X71420480Y-92782151D01*
X71430970Y-92804330D01*
X71439235Y-92827430D01*
X71445196Y-92851228D01*
X71448796Y-92875497D01*
X71450000Y-92900001D01*
X71450000Y-95099999D01*
X71448796Y-95124503D01*
X71445196Y-95148772D01*
X71439235Y-95172570D01*
X71430970Y-95195670D01*
X71420480Y-95217849D01*
X71407867Y-95238892D01*
X71393252Y-95258598D01*
X71376776Y-95276776D01*
X71358598Y-95293252D01*
X71338892Y-95307867D01*
X71317849Y-95320480D01*
X71295670Y-95330970D01*
X71272570Y-95339235D01*
X71248772Y-95345196D01*
X71224503Y-95348796D01*
X71199999Y-95350000D01*
X69000001Y-95350000D01*
X68975497Y-95348796D01*
X68951228Y-95345196D01*
X68927430Y-95339235D01*
X68904330Y-95330970D01*
X68882151Y-95320480D01*
X68861108Y-95307867D01*
X68841402Y-95293252D01*
X68823224Y-95276776D01*
X68806748Y-95258598D01*
X68792133Y-95238892D01*
X68779520Y-95217849D01*
X68769030Y-95195670D01*
X68760765Y-95172570D01*
X68754804Y-95148772D01*
X68751204Y-95124503D01*
X68750000Y-95099999D01*
X68750000Y-92900001D01*
X68751204Y-92875497D01*
X68754804Y-92851228D01*
X68760765Y-92827430D01*
X68769030Y-92804330D01*
X68779520Y-92782151D01*
X68792133Y-92761108D01*
X68806748Y-92741402D01*
X68823224Y-92723224D01*
X68841402Y-92706748D01*
X68861108Y-92692133D01*
X68882151Y-92679520D01*
X68904330Y-92669030D01*
X68927430Y-92660765D01*
X68951228Y-92654804D01*
X68975497Y-92651204D01*
X69000001Y-92650000D01*
X71199999Y-92650000D01*
X71224503Y-92651204D01*
G37*
D19*
X69600000Y-50850000D03*
X69600000Y-52650000D03*
D20*
X71400000Y-51030000D03*
X67800000Y-51030000D03*
X71400000Y-52470000D03*
X67800000Y-52470000D03*
D21*
X106180000Y-79500000D03*
X107120000Y-79500000D03*
X106180000Y-83000000D03*
X107120000Y-83000000D03*
X106180000Y-86500000D03*
X107120000Y-86500000D03*
X106180000Y-90000000D03*
X107120000Y-90000000D03*
X106180000Y-93500000D03*
X107120000Y-93500000D03*
X105270000Y-79500000D03*
X104330000Y-79500000D03*
D10*
G36*
X83656569Y-59632305D02*
G01*
X83232305Y-60056569D01*
X82878751Y-59703015D01*
X83303015Y-59278751D01*
X83656569Y-59632305D01*
G37*
G36*
X84321249Y-60296985D02*
G01*
X83896985Y-60721249D01*
X83543431Y-60367695D01*
X83967695Y-59943431D01*
X84321249Y-60296985D01*
G37*
D22*
X63550000Y-74530000D03*
X63550000Y-75470000D03*
D10*
G36*
X78332305Y-51243431D02*
G01*
X78756569Y-51667695D01*
X78403015Y-52021249D01*
X77978751Y-51596985D01*
X78332305Y-51243431D01*
G37*
G36*
X78996985Y-50578751D02*
G01*
X79421249Y-51003015D01*
X79067695Y-51356569D01*
X78643431Y-50932305D01*
X78996985Y-50578751D01*
G37*
G36*
X84943431Y-52317695D02*
G01*
X85367695Y-51893431D01*
X85721249Y-52246985D01*
X85296985Y-52671249D01*
X84943431Y-52317695D01*
G37*
G36*
X84278751Y-51653015D02*
G01*
X84703015Y-51228751D01*
X85056569Y-51582305D01*
X84632305Y-52006569D01*
X84278751Y-51653015D01*
G37*
D21*
X102970000Y-71000000D03*
X102030000Y-71000000D03*
X102030000Y-70050000D03*
X102970000Y-70050000D03*
D10*
G36*
X93399504Y-51626204D02*
G01*
X93423773Y-51629804D01*
X93447571Y-51635765D01*
X93470671Y-51644030D01*
X93492849Y-51654520D01*
X93513893Y-51667133D01*
X93533598Y-51681747D01*
X93551777Y-51698223D01*
X93568253Y-51716402D01*
X93582867Y-51736107D01*
X93595480Y-51757151D01*
X93605970Y-51779329D01*
X93614235Y-51802429D01*
X93620196Y-51826227D01*
X93623796Y-51850496D01*
X93625000Y-51875000D01*
X93625000Y-53125000D01*
X93623796Y-53149504D01*
X93620196Y-53173773D01*
X93614235Y-53197571D01*
X93605970Y-53220671D01*
X93595480Y-53242849D01*
X93582867Y-53263893D01*
X93568253Y-53283598D01*
X93551777Y-53301777D01*
X93533598Y-53318253D01*
X93513893Y-53332867D01*
X93492849Y-53345480D01*
X93470671Y-53355970D01*
X93447571Y-53364235D01*
X93423773Y-53370196D01*
X93399504Y-53373796D01*
X93375000Y-53375000D01*
X92625000Y-53375000D01*
X92600496Y-53373796D01*
X92576227Y-53370196D01*
X92552429Y-53364235D01*
X92529329Y-53355970D01*
X92507151Y-53345480D01*
X92486107Y-53332867D01*
X92466402Y-53318253D01*
X92448223Y-53301777D01*
X92431747Y-53283598D01*
X92417133Y-53263893D01*
X92404520Y-53242849D01*
X92394030Y-53220671D01*
X92385765Y-53197571D01*
X92379804Y-53173773D01*
X92376204Y-53149504D01*
X92375000Y-53125000D01*
X92375000Y-51875000D01*
X92376204Y-51850496D01*
X92379804Y-51826227D01*
X92385765Y-51802429D01*
X92394030Y-51779329D01*
X92404520Y-51757151D01*
X92417133Y-51736107D01*
X92431747Y-51716402D01*
X92448223Y-51698223D01*
X92466402Y-51681747D01*
X92486107Y-51667133D01*
X92507151Y-51654520D01*
X92529329Y-51644030D01*
X92552429Y-51635765D01*
X92576227Y-51629804D01*
X92600496Y-51626204D01*
X92625000Y-51625000D01*
X93375000Y-51625000D01*
X93399504Y-51626204D01*
G37*
G36*
X90599504Y-51626204D02*
G01*
X90623773Y-51629804D01*
X90647571Y-51635765D01*
X90670671Y-51644030D01*
X90692849Y-51654520D01*
X90713893Y-51667133D01*
X90733598Y-51681747D01*
X90751777Y-51698223D01*
X90768253Y-51716402D01*
X90782867Y-51736107D01*
X90795480Y-51757151D01*
X90805970Y-51779329D01*
X90814235Y-51802429D01*
X90820196Y-51826227D01*
X90823796Y-51850496D01*
X90825000Y-51875000D01*
X90825000Y-53125000D01*
X90823796Y-53149504D01*
X90820196Y-53173773D01*
X90814235Y-53197571D01*
X90805970Y-53220671D01*
X90795480Y-53242849D01*
X90782867Y-53263893D01*
X90768253Y-53283598D01*
X90751777Y-53301777D01*
X90733598Y-53318253D01*
X90713893Y-53332867D01*
X90692849Y-53345480D01*
X90670671Y-53355970D01*
X90647571Y-53364235D01*
X90623773Y-53370196D01*
X90599504Y-53373796D01*
X90575000Y-53375000D01*
X89825000Y-53375000D01*
X89800496Y-53373796D01*
X89776227Y-53370196D01*
X89752429Y-53364235D01*
X89729329Y-53355970D01*
X89707151Y-53345480D01*
X89686107Y-53332867D01*
X89666402Y-53318253D01*
X89648223Y-53301777D01*
X89631747Y-53283598D01*
X89617133Y-53263893D01*
X89604520Y-53242849D01*
X89594030Y-53220671D01*
X89585765Y-53197571D01*
X89579804Y-53173773D01*
X89576204Y-53149504D01*
X89575000Y-53125000D01*
X89575000Y-51875000D01*
X89576204Y-51850496D01*
X89579804Y-51826227D01*
X89585765Y-51802429D01*
X89594030Y-51779329D01*
X89604520Y-51757151D01*
X89617133Y-51736107D01*
X89631747Y-51716402D01*
X89648223Y-51698223D01*
X89666402Y-51681747D01*
X89686107Y-51667133D01*
X89707151Y-51654520D01*
X89729329Y-51644030D01*
X89752429Y-51635765D01*
X89776227Y-51629804D01*
X89800496Y-51626204D01*
X89825000Y-51625000D01*
X90575000Y-51625000D01*
X90599504Y-51626204D01*
G37*
G36*
X93399504Y-69626204D02*
G01*
X93423773Y-69629804D01*
X93447571Y-69635765D01*
X93470671Y-69644030D01*
X93492849Y-69654520D01*
X93513893Y-69667133D01*
X93533598Y-69681747D01*
X93551777Y-69698223D01*
X93568253Y-69716402D01*
X93582867Y-69736107D01*
X93595480Y-69757151D01*
X93605970Y-69779329D01*
X93614235Y-69802429D01*
X93620196Y-69826227D01*
X93623796Y-69850496D01*
X93625000Y-69875000D01*
X93625000Y-71125000D01*
X93623796Y-71149504D01*
X93620196Y-71173773D01*
X93614235Y-71197571D01*
X93605970Y-71220671D01*
X93595480Y-71242849D01*
X93582867Y-71263893D01*
X93568253Y-71283598D01*
X93551777Y-71301777D01*
X93533598Y-71318253D01*
X93513893Y-71332867D01*
X93492849Y-71345480D01*
X93470671Y-71355970D01*
X93447571Y-71364235D01*
X93423773Y-71370196D01*
X93399504Y-71373796D01*
X93375000Y-71375000D01*
X92625000Y-71375000D01*
X92600496Y-71373796D01*
X92576227Y-71370196D01*
X92552429Y-71364235D01*
X92529329Y-71355970D01*
X92507151Y-71345480D01*
X92486107Y-71332867D01*
X92466402Y-71318253D01*
X92448223Y-71301777D01*
X92431747Y-71283598D01*
X92417133Y-71263893D01*
X92404520Y-71242849D01*
X92394030Y-71220671D01*
X92385765Y-71197571D01*
X92379804Y-71173773D01*
X92376204Y-71149504D01*
X92375000Y-71125000D01*
X92375000Y-69875000D01*
X92376204Y-69850496D01*
X92379804Y-69826227D01*
X92385765Y-69802429D01*
X92394030Y-69779329D01*
X92404520Y-69757151D01*
X92417133Y-69736107D01*
X92431747Y-69716402D01*
X92448223Y-69698223D01*
X92466402Y-69681747D01*
X92486107Y-69667133D01*
X92507151Y-69654520D01*
X92529329Y-69644030D01*
X92552429Y-69635765D01*
X92576227Y-69629804D01*
X92600496Y-69626204D01*
X92625000Y-69625000D01*
X93375000Y-69625000D01*
X93399504Y-69626204D01*
G37*
G36*
X90599504Y-69626204D02*
G01*
X90623773Y-69629804D01*
X90647571Y-69635765D01*
X90670671Y-69644030D01*
X90692849Y-69654520D01*
X90713893Y-69667133D01*
X90733598Y-69681747D01*
X90751777Y-69698223D01*
X90768253Y-69716402D01*
X90782867Y-69736107D01*
X90795480Y-69757151D01*
X90805970Y-69779329D01*
X90814235Y-69802429D01*
X90820196Y-69826227D01*
X90823796Y-69850496D01*
X90825000Y-69875000D01*
X90825000Y-71125000D01*
X90823796Y-71149504D01*
X90820196Y-71173773D01*
X90814235Y-71197571D01*
X90805970Y-71220671D01*
X90795480Y-71242849D01*
X90782867Y-71263893D01*
X90768253Y-71283598D01*
X90751777Y-71301777D01*
X90733598Y-71318253D01*
X90713893Y-71332867D01*
X90692849Y-71345480D01*
X90670671Y-71355970D01*
X90647571Y-71364235D01*
X90623773Y-71370196D01*
X90599504Y-71373796D01*
X90575000Y-71375000D01*
X89825000Y-71375000D01*
X89800496Y-71373796D01*
X89776227Y-71370196D01*
X89752429Y-71364235D01*
X89729329Y-71355970D01*
X89707151Y-71345480D01*
X89686107Y-71332867D01*
X89666402Y-71318253D01*
X89648223Y-71301777D01*
X89631747Y-71283598D01*
X89617133Y-71263893D01*
X89604520Y-71242849D01*
X89594030Y-71220671D01*
X89585765Y-71197571D01*
X89579804Y-71173773D01*
X89576204Y-71149504D01*
X89575000Y-71125000D01*
X89575000Y-69875000D01*
X89576204Y-69850496D01*
X89579804Y-69826227D01*
X89585765Y-69802429D01*
X89594030Y-69779329D01*
X89604520Y-69757151D01*
X89617133Y-69736107D01*
X89631747Y-69716402D01*
X89648223Y-69698223D01*
X89666402Y-69681747D01*
X89686107Y-69667133D01*
X89707151Y-69654520D01*
X89729329Y-69644030D01*
X89752429Y-69635765D01*
X89776227Y-69629804D01*
X89800496Y-69626204D01*
X89825000Y-69625000D01*
X90575000Y-69625000D01*
X90599504Y-69626204D01*
G37*
G36*
X80582305Y-60593431D02*
G01*
X81006569Y-61017695D01*
X80653015Y-61371249D01*
X80228751Y-60946985D01*
X80582305Y-60593431D01*
G37*
G36*
X81246985Y-59928751D02*
G01*
X81671249Y-60353015D01*
X81317695Y-60706569D01*
X80893431Y-60282305D01*
X81246985Y-59928751D01*
G37*
D22*
X66900000Y-96220000D03*
X66900000Y-95280000D03*
X73300000Y-92770000D03*
X73300000Y-91830000D03*
D21*
X55070000Y-61300000D03*
X54130000Y-61300000D03*
X54130000Y-50700000D03*
X55070000Y-50700000D03*
D23*
X109900000Y-76000000D03*
X109900000Y-79500000D03*
X109900000Y-83000000D03*
X109900000Y-86500000D03*
X109900000Y-90000000D03*
X109900000Y-93500000D03*
D10*
G36*
X111474504Y-96101204D02*
G01*
X111498773Y-96104804D01*
X111522571Y-96110765D01*
X111545671Y-96119030D01*
X111567849Y-96129520D01*
X111588893Y-96142133D01*
X111608598Y-96156747D01*
X111626777Y-96173223D01*
X111643253Y-96191402D01*
X111657867Y-96211107D01*
X111670480Y-96232151D01*
X111680970Y-96254329D01*
X111689235Y-96277429D01*
X111695196Y-96301227D01*
X111698796Y-96325496D01*
X111700000Y-96350000D01*
X111700000Y-97650000D01*
X111698796Y-97674504D01*
X111695196Y-97698773D01*
X111689235Y-97722571D01*
X111680970Y-97745671D01*
X111670480Y-97767849D01*
X111657867Y-97788893D01*
X111643253Y-97808598D01*
X111626777Y-97826777D01*
X111608598Y-97843253D01*
X111588893Y-97857867D01*
X111567849Y-97870480D01*
X111545671Y-97880970D01*
X111522571Y-97889235D01*
X111498773Y-97895196D01*
X111474504Y-97898796D01*
X111450000Y-97900000D01*
X108350000Y-97900000D01*
X108325496Y-97898796D01*
X108301227Y-97895196D01*
X108277429Y-97889235D01*
X108254329Y-97880970D01*
X108232151Y-97870480D01*
X108211107Y-97857867D01*
X108191402Y-97843253D01*
X108173223Y-97826777D01*
X108156747Y-97808598D01*
X108142133Y-97788893D01*
X108129520Y-97767849D01*
X108119030Y-97745671D01*
X108110765Y-97722571D01*
X108104804Y-97698773D01*
X108101204Y-97674504D01*
X108100000Y-97650000D01*
X108100000Y-96350000D01*
X108101204Y-96325496D01*
X108104804Y-96301227D01*
X108110765Y-96277429D01*
X108119030Y-96254329D01*
X108129520Y-96232151D01*
X108142133Y-96211107D01*
X108156747Y-96191402D01*
X108173223Y-96173223D01*
X108191402Y-96156747D01*
X108211107Y-96142133D01*
X108232151Y-96129520D01*
X108254329Y-96119030D01*
X108277429Y-96110765D01*
X108301227Y-96104804D01*
X108325496Y-96101204D01*
X108350000Y-96100000D01*
X111450000Y-96100000D01*
X111474504Y-96101204D01*
G37*
D17*
X107900000Y-54000000D03*
X107900000Y-59000000D03*
X107900000Y-64000000D03*
D10*
G36*
X109474504Y-68001204D02*
G01*
X109498773Y-68004804D01*
X109522571Y-68010765D01*
X109545671Y-68019030D01*
X109567849Y-68029520D01*
X109588893Y-68042133D01*
X109608598Y-68056747D01*
X109626777Y-68073223D01*
X109643253Y-68091402D01*
X109657867Y-68111107D01*
X109670480Y-68132151D01*
X109680970Y-68154329D01*
X109689235Y-68177429D01*
X109695196Y-68201227D01*
X109698796Y-68225496D01*
X109700000Y-68250000D01*
X109700000Y-69750000D01*
X109698796Y-69774504D01*
X109695196Y-69798773D01*
X109689235Y-69822571D01*
X109680970Y-69845671D01*
X109670480Y-69867849D01*
X109657867Y-69888893D01*
X109643253Y-69908598D01*
X109626777Y-69926777D01*
X109608598Y-69943253D01*
X109588893Y-69957867D01*
X109567849Y-69970480D01*
X109545671Y-69980970D01*
X109522571Y-69989235D01*
X109498773Y-69995196D01*
X109474504Y-69998796D01*
X109450000Y-70000000D01*
X106350000Y-70000000D01*
X106325496Y-69998796D01*
X106301227Y-69995196D01*
X106277429Y-69989235D01*
X106254329Y-69980970D01*
X106232151Y-69970480D01*
X106211107Y-69957867D01*
X106191402Y-69943253D01*
X106173223Y-69926777D01*
X106156747Y-69908598D01*
X106142133Y-69888893D01*
X106129520Y-69867849D01*
X106119030Y-69845671D01*
X106110765Y-69822571D01*
X106104804Y-69798773D01*
X106101204Y-69774504D01*
X106100000Y-69750000D01*
X106100000Y-68250000D01*
X106101204Y-68225496D01*
X106104804Y-68201227D01*
X106110765Y-68177429D01*
X106119030Y-68154329D01*
X106129520Y-68132151D01*
X106142133Y-68111107D01*
X106156747Y-68091402D01*
X106173223Y-68073223D01*
X106191402Y-68056747D01*
X106211107Y-68042133D01*
X106232151Y-68029520D01*
X106254329Y-68019030D01*
X106277429Y-68010765D01*
X106301227Y-68004804D01*
X106325496Y-68001204D01*
X106350000Y-68000000D01*
X109450000Y-68000000D01*
X109474504Y-68001204D01*
G37*
D24*
X57700000Y-91600000D03*
X57700000Y-96400000D03*
X57700000Y-97200000D03*
X57700000Y-90800000D03*
D25*
X56785000Y-89680000D03*
X56785000Y-98320000D03*
D26*
X52605000Y-89680000D03*
X52605000Y-98320000D03*
D27*
X56255000Y-96890000D03*
X56255000Y-91110000D03*
D24*
X57700000Y-97200000D03*
X57700000Y-96400000D03*
D28*
X57700000Y-95750000D03*
X57700000Y-95250000D03*
X57700000Y-94750000D03*
X57700000Y-94250000D03*
X57700000Y-93750000D03*
X57700000Y-93250000D03*
X57700000Y-92750000D03*
X57700000Y-92250000D03*
D24*
X57700000Y-91600000D03*
X57700000Y-90800000D03*
X57700000Y-53600000D03*
X57700000Y-58400000D03*
X57700000Y-59200000D03*
X57700000Y-52800000D03*
D25*
X56785000Y-51680000D03*
X56785000Y-60320000D03*
D26*
X52605000Y-51680000D03*
X52605000Y-60320000D03*
D27*
X56255000Y-58890000D03*
X56255000Y-53110000D03*
D24*
X57700000Y-59200000D03*
X57700000Y-58400000D03*
D28*
X57700000Y-57750000D03*
X57700000Y-57250000D03*
X57700000Y-56750000D03*
X57700000Y-56250000D03*
X57700000Y-55750000D03*
X57700000Y-55250000D03*
X57700000Y-54750000D03*
X57700000Y-54250000D03*
D24*
X57700000Y-53600000D03*
X57700000Y-52800000D03*
D29*
X63000000Y-97400000D03*
X63000000Y-90600000D03*
D30*
X104650000Y-64400000D03*
X101350000Y-64400000D03*
X101350000Y-66700000D03*
X104650000Y-66700000D03*
D29*
X63000000Y-52600000D03*
X63000000Y-59400000D03*
D21*
X106180000Y-78500000D03*
X107120000Y-78500000D03*
D10*
G36*
X80156569Y-51632305D02*
G01*
X79732305Y-52056569D01*
X79378751Y-51703015D01*
X79803015Y-51278751D01*
X80156569Y-51632305D01*
G37*
G36*
X80821249Y-52296985D02*
G01*
X80396985Y-52721249D01*
X80043431Y-52367695D01*
X80467695Y-51943431D01*
X80821249Y-52296985D01*
G37*
D22*
X106200000Y-87830000D03*
X106200000Y-88770000D03*
D10*
G36*
X73643431Y-63667695D02*
G01*
X74067695Y-63243431D01*
X74421249Y-63596985D01*
X73996985Y-64021249D01*
X73643431Y-63667695D01*
G37*
G36*
X72978751Y-63003015D02*
G01*
X73403015Y-62578751D01*
X73756569Y-62932305D01*
X73332305Y-63356569D01*
X72978751Y-63003015D01*
G37*
G36*
X79456569Y-52332305D02*
G01*
X79032305Y-52756569D01*
X78678751Y-52403015D01*
X79103015Y-51978751D01*
X79456569Y-52332305D01*
G37*
G36*
X80121249Y-52996985D02*
G01*
X79696985Y-53421249D01*
X79343431Y-53067695D01*
X79767695Y-52643431D01*
X80121249Y-52996985D01*
G37*
D21*
X65280000Y-78200000D03*
X66220000Y-78200000D03*
D10*
G36*
X82617695Y-59406569D02*
G01*
X82193431Y-58982305D01*
X82546985Y-58628751D01*
X82971249Y-59053015D01*
X82617695Y-59406569D01*
G37*
G36*
X81953015Y-60071249D02*
G01*
X81528751Y-59646985D01*
X81882305Y-59293431D01*
X82306569Y-59717695D01*
X81953015Y-60071249D01*
G37*
G36*
X69782305Y-55143431D02*
G01*
X70206569Y-55567695D01*
X69853015Y-55921249D01*
X69428751Y-55496985D01*
X69782305Y-55143431D01*
G37*
G36*
X70446985Y-54478751D02*
G01*
X70871249Y-54903015D01*
X70517695Y-55256569D01*
X70093431Y-54832305D01*
X70446985Y-54478751D01*
G37*
G36*
X93674505Y-74751204D02*
G01*
X93698773Y-74754804D01*
X93722572Y-74760765D01*
X93745671Y-74769030D01*
X93767850Y-74779520D01*
X93788893Y-74792132D01*
X93808599Y-74806747D01*
X93826777Y-74823223D01*
X93843253Y-74841401D01*
X93857868Y-74861107D01*
X93870480Y-74882150D01*
X93880970Y-74904329D01*
X93889235Y-74927428D01*
X93895196Y-74951227D01*
X93898796Y-74975495D01*
X93900000Y-74999999D01*
X93900000Y-83300001D01*
X93898796Y-83324505D01*
X93895196Y-83348773D01*
X93889235Y-83372572D01*
X93880970Y-83395671D01*
X93870480Y-83417850D01*
X93857868Y-83438893D01*
X93843253Y-83458599D01*
X93826777Y-83476777D01*
X93808599Y-83493253D01*
X93788893Y-83507868D01*
X93767850Y-83520480D01*
X93745671Y-83530970D01*
X93722572Y-83539235D01*
X93698773Y-83545196D01*
X93674505Y-83548796D01*
X93650001Y-83550000D01*
X84549999Y-83550000D01*
X84525495Y-83548796D01*
X84501227Y-83545196D01*
X84477428Y-83539235D01*
X84454329Y-83530970D01*
X84432150Y-83520480D01*
X84411107Y-83507868D01*
X84391401Y-83493253D01*
X84373223Y-83476777D01*
X84356747Y-83458599D01*
X84342132Y-83438893D01*
X84329520Y-83417850D01*
X84319030Y-83395671D01*
X84310765Y-83372572D01*
X84304804Y-83348773D01*
X84301204Y-83324505D01*
X84300000Y-83300001D01*
X84300000Y-74999999D01*
X84301204Y-74975495D01*
X84304804Y-74951227D01*
X84310765Y-74927428D01*
X84319030Y-74904329D01*
X84329520Y-74882150D01*
X84342132Y-74861107D01*
X84356747Y-74841401D01*
X84373223Y-74823223D01*
X84391401Y-74806747D01*
X84411107Y-74792132D01*
X84432150Y-74779520D01*
X84454329Y-74769030D01*
X84477428Y-74760765D01*
X84501227Y-74754804D01*
X84525495Y-74751204D01*
X84549999Y-74750000D01*
X93650001Y-74750000D01*
X93674505Y-74751204D01*
G37*
G36*
X93674505Y-88251204D02*
G01*
X93698773Y-88254804D01*
X93722572Y-88260765D01*
X93745671Y-88269030D01*
X93767850Y-88279520D01*
X93788893Y-88292132D01*
X93808599Y-88306747D01*
X93826777Y-88323223D01*
X93843253Y-88341401D01*
X93857868Y-88361107D01*
X93870480Y-88382150D01*
X93880970Y-88404329D01*
X93889235Y-88427428D01*
X93895196Y-88451227D01*
X93898796Y-88475495D01*
X93900000Y-88499999D01*
X93900000Y-96800001D01*
X93898796Y-96824505D01*
X93895196Y-96848773D01*
X93889235Y-96872572D01*
X93880970Y-96895671D01*
X93870480Y-96917850D01*
X93857868Y-96938893D01*
X93843253Y-96958599D01*
X93826777Y-96976777D01*
X93808599Y-96993253D01*
X93788893Y-97007868D01*
X93767850Y-97020480D01*
X93745671Y-97030970D01*
X93722572Y-97039235D01*
X93698773Y-97045196D01*
X93674505Y-97048796D01*
X93650001Y-97050000D01*
X84549999Y-97050000D01*
X84525495Y-97048796D01*
X84501227Y-97045196D01*
X84477428Y-97039235D01*
X84454329Y-97030970D01*
X84432150Y-97020480D01*
X84411107Y-97007868D01*
X84391401Y-96993253D01*
X84373223Y-96976777D01*
X84356747Y-96958599D01*
X84342132Y-96938893D01*
X84329520Y-96917850D01*
X84319030Y-96895671D01*
X84310765Y-96872572D01*
X84304804Y-96848773D01*
X84301204Y-96824505D01*
X84300000Y-96800001D01*
X84300000Y-88499999D01*
X84301204Y-88475495D01*
X84304804Y-88451227D01*
X84310765Y-88427428D01*
X84319030Y-88404329D01*
X84329520Y-88382150D01*
X84342132Y-88361107D01*
X84356747Y-88341401D01*
X84373223Y-88323223D01*
X84391401Y-88306747D01*
X84411107Y-88292132D01*
X84432150Y-88279520D01*
X84454329Y-88269030D01*
X84477428Y-88260765D01*
X84501227Y-88254804D01*
X84525495Y-88251204D01*
X84549999Y-88250000D01*
X93650001Y-88250000D01*
X93674505Y-88251204D01*
G37*
D16*
X98400000Y-51150000D03*
X98400000Y-53050000D03*
X98400000Y-71850000D03*
X98400000Y-69950000D03*
D31*
X102050000Y-62400000D03*
X103950000Y-62400000D03*
X103950000Y-68700000D03*
X102050000Y-68700000D03*
X102050000Y-56600000D03*
X103950000Y-56600000D03*
D16*
X86600000Y-62850000D03*
X86600000Y-60950000D03*
D31*
X103950000Y-58300000D03*
X102050000Y-58300000D03*
D10*
G36*
X83274504Y-70801204D02*
G01*
X83298773Y-70804804D01*
X83322571Y-70810765D01*
X83345671Y-70819030D01*
X83367849Y-70829520D01*
X83388893Y-70842133D01*
X83408598Y-70856747D01*
X83426777Y-70873223D01*
X83443253Y-70891402D01*
X83457867Y-70911107D01*
X83470480Y-70932151D01*
X83480970Y-70954329D01*
X83489235Y-70977429D01*
X83495196Y-71001227D01*
X83498796Y-71025496D01*
X83500000Y-71050000D01*
X83500000Y-74550000D01*
X83498796Y-74574504D01*
X83495196Y-74598773D01*
X83489235Y-74622571D01*
X83480970Y-74645671D01*
X83470480Y-74667849D01*
X83457867Y-74688893D01*
X83443253Y-74708598D01*
X83426777Y-74726777D01*
X83408598Y-74743253D01*
X83388893Y-74757867D01*
X83367849Y-74770480D01*
X83345671Y-74780970D01*
X83322571Y-74789235D01*
X83298773Y-74795196D01*
X83274504Y-74798796D01*
X83250000Y-74800000D01*
X81250000Y-74800000D01*
X81225496Y-74798796D01*
X81201227Y-74795196D01*
X81177429Y-74789235D01*
X81154329Y-74780970D01*
X81132151Y-74770480D01*
X81111107Y-74757867D01*
X81091402Y-74743253D01*
X81073223Y-74726777D01*
X81056747Y-74708598D01*
X81042133Y-74688893D01*
X81029520Y-74667849D01*
X81019030Y-74645671D01*
X81010765Y-74622571D01*
X81004804Y-74598773D01*
X81001204Y-74574504D01*
X81000000Y-74550000D01*
X81000000Y-71050000D01*
X81001204Y-71025496D01*
X81004804Y-71001227D01*
X81010765Y-70977429D01*
X81019030Y-70954329D01*
X81029520Y-70932151D01*
X81042133Y-70911107D01*
X81056747Y-70891402D01*
X81073223Y-70873223D01*
X81091402Y-70856747D01*
X81111107Y-70842133D01*
X81132151Y-70829520D01*
X81154329Y-70819030D01*
X81177429Y-70810765D01*
X81201227Y-70804804D01*
X81225496Y-70801204D01*
X81250000Y-70800000D01*
X83250000Y-70800000D01*
X83274504Y-70801204D01*
G37*
G36*
X83274504Y-62801204D02*
G01*
X83298773Y-62804804D01*
X83322571Y-62810765D01*
X83345671Y-62819030D01*
X83367849Y-62829520D01*
X83388893Y-62842133D01*
X83408598Y-62856747D01*
X83426777Y-62873223D01*
X83443253Y-62891402D01*
X83457867Y-62911107D01*
X83470480Y-62932151D01*
X83480970Y-62954329D01*
X83489235Y-62977429D01*
X83495196Y-63001227D01*
X83498796Y-63025496D01*
X83500000Y-63050000D01*
X83500000Y-66550000D01*
X83498796Y-66574504D01*
X83495196Y-66598773D01*
X83489235Y-66622571D01*
X83480970Y-66645671D01*
X83470480Y-66667849D01*
X83457867Y-66688893D01*
X83443253Y-66708598D01*
X83426777Y-66726777D01*
X83408598Y-66743253D01*
X83388893Y-66757867D01*
X83367849Y-66770480D01*
X83345671Y-66780970D01*
X83322571Y-66789235D01*
X83298773Y-66795196D01*
X83274504Y-66798796D01*
X83250000Y-66800000D01*
X81250000Y-66800000D01*
X81225496Y-66798796D01*
X81201227Y-66795196D01*
X81177429Y-66789235D01*
X81154329Y-66780970D01*
X81132151Y-66770480D01*
X81111107Y-66757867D01*
X81091402Y-66743253D01*
X81073223Y-66726777D01*
X81056747Y-66708598D01*
X81042133Y-66688893D01*
X81029520Y-66667849D01*
X81019030Y-66645671D01*
X81010765Y-66622571D01*
X81004804Y-66598773D01*
X81001204Y-66574504D01*
X81000000Y-66550000D01*
X81000000Y-63050000D01*
X81001204Y-63025496D01*
X81004804Y-63001227D01*
X81010765Y-62977429D01*
X81019030Y-62954329D01*
X81029520Y-62932151D01*
X81042133Y-62911107D01*
X81056747Y-62891402D01*
X81073223Y-62873223D01*
X81091402Y-62856747D01*
X81111107Y-62842133D01*
X81132151Y-62829520D01*
X81154329Y-62819030D01*
X81177429Y-62810765D01*
X81201227Y-62804804D01*
X81225496Y-62801204D01*
X81250000Y-62800000D01*
X83250000Y-62800000D01*
X83274504Y-62801204D01*
G37*
D31*
X103950000Y-60000000D03*
X102050000Y-60000000D03*
D10*
G36*
X80756569Y-53632305D02*
G01*
X80332305Y-54056569D01*
X79978751Y-53703015D01*
X80403015Y-53278751D01*
X80756569Y-53632305D01*
G37*
G36*
X81421249Y-54296985D02*
G01*
X80996985Y-54721249D01*
X80643431Y-54367695D01*
X81067695Y-53943431D01*
X81421249Y-54296985D01*
G37*
G36*
X81032305Y-51293431D02*
G01*
X81456569Y-51717695D01*
X81103015Y-52071249D01*
X80678751Y-51646985D01*
X81032305Y-51293431D01*
G37*
G36*
X81696985Y-50628751D02*
G01*
X82121249Y-51053015D01*
X81767695Y-51406569D01*
X81343431Y-50982305D01*
X81696985Y-50628751D01*
G37*
D22*
X70100000Y-90620000D03*
X70100000Y-89680000D03*
X68100000Y-90620000D03*
X68100000Y-89680000D03*
D10*
G36*
X84767695Y-54556569D02*
G01*
X84343431Y-54132305D01*
X84696985Y-53778751D01*
X85121249Y-54203015D01*
X84767695Y-54556569D01*
G37*
G36*
X84103015Y-55221249D02*
G01*
X83678751Y-54796985D01*
X84032305Y-54443431D01*
X84456569Y-54867695D01*
X84103015Y-55221249D01*
G37*
D22*
X69100000Y-90620000D03*
X69100000Y-89680000D03*
X71100000Y-90620000D03*
X71100000Y-89680000D03*
M02*
