M48
; DRILL file {KiCad 5.1.5+dfsg1-2build2} date Fri 30 Apr 2021 10:25:53 PM CEST
; FORMAT={-:-/ absolute / inch / decimal}
; #@! TF.CreationDate,2021-04-30T22:25:53+02:00
; #@! TF.GenerationSoftware,Kicad,Pcbnew,5.1.5+dfsg1-2build2
; #@! TF.FileFunction,Plated,1,4,PTH
FMAT,2
INCH
T1C0.0079
T2C0.0118
T3C0.0236
T4C0.0472
T5C0.0551
%
G90
G05
T1
X2.5354Y-3.0787
X2.7047Y-2.2835
X2.7047Y-2.3898
X2.7165Y-2.878
X2.7165Y-2.9764
X2.7165Y-3.0276
X2.7244Y-2.4094
X2.7598Y-3.5563
X2.7709Y-2.1957
X2.8406Y-2.1043
X2.8468Y-2.2839
X2.8477Y-2.2551
X2.8734Y-2.2888
X2.8858Y-2.311
X2.8957Y-2.1949
X2.9388Y-2.169
X2.9646Y-2.1752
X2.9664Y-2.1338
X2.9686Y-2.055
X2.9882Y-2.2205
X2.9902Y-2.1142
X3.0157Y-2.0551
X3.0472Y-2.0236
X3.1102Y-2.5118
X3.1142Y-2.4843
X3.1187Y-2.46
X3.1222Y-2.4356
X3.2559Y-2.0945
X3.2835Y-2.3937
X3.4133Y-2.3435
X3.4134Y-2.1063
X3.4134Y-2.3189
X3.4134Y-2.3681
X3.4252Y-2.437
X3.4449Y-2.5058
X3.4505Y-2.4171
X3.4528Y-2.4567
X3.4546Y-2.4813
X3.5276Y-2.4764
X3.874Y-2.4094
X3.874Y-2.437
X3.8976Y-2.4213
X3.9843Y-2.4213
X4.4724Y-3.0551
X4.4803Y-3.6142
X4.5197Y-3.4685
X4.5344Y-3.3346
X4.5492Y-3.189
T2
X2.0Y-3.6614
X2.0433Y-2.4331
X2.0433Y-2.5669
X2.0433Y-2.7323
X2.0433Y-2.8661
X2.0433Y-3.0354
X2.0433Y-3.1693
X2.0433Y-3.3031
X2.0433Y-3.437
X2.0433Y-3.5945
X2.0472Y-2.2205
X2.1063Y-2.2795
X2.1142Y-3.6654
X2.1142Y-3.7402
X2.1654Y-2.1496
X2.1654Y-2.2244
X2.2165Y-3.6496
X2.2165Y-3.6831
X2.2165Y-3.7362
X2.2165Y-3.7677
X2.3307Y-2.1457
X2.3307Y-2.2638
X2.3307Y-3.6457
X2.3307Y-3.7638
X2.3366Y-2.19
X2.3366Y-2.2234
X2.4252Y-3.7106
X2.4252Y-2.1693
X2.4252Y-2.248
X2.4252Y-3.6713
X2.4409Y-3.4252
X2.4409Y-3.5433
X2.4409Y-3.5827
X2.4685Y-2.19
X2.4685Y-2.2234
X2.4803Y-3.3465
X2.5039Y-2.1693
X2.5039Y-2.248
X2.5197Y-3.5433
X2.5197Y-3.5827
X2.5591Y-3.4252
X2.5787Y-2.3268
X2.5945Y-2.0315
X2.5984Y-3.3465
X2.6339Y-2.2638
X2.6378Y-2.8937
X2.6575Y-3.0118
X2.6772Y-3.4252
X2.6811Y-3.5984
X2.685Y-2.1969
X2.6929Y-2.5079
X2.6969Y-2.6181
X2.6969Y-2.7756
X2.7008Y-2.122
X2.7165Y-3.3465
X2.8031Y-2.1417
X2.8307Y-2.4252
X2.8346Y-2.6575
X2.8346Y-2.815
X2.8425Y-3.5984
X2.8583Y-2.5079
X2.8701Y-1.9961
X2.8701Y-2.0748
X2.9134Y-2.3268
X2.9213Y-2.2205
X2.9567Y-2.3661
X2.9882Y-2.3189
X2.9921Y-2.4921
X3.0039Y-2.4055
X3.0197Y-2.0197
X3.0709Y-2.0
X3.1417Y-1.9961
X3.1528Y-2.0741
X3.1929Y-2.2638
X3.1969Y-2.1575
X3.2087Y-2.6969
X3.2087Y-2.7559
X3.2402Y-2.0512
X3.2441Y-2.0039
X3.2598Y-2.2795
X3.2677Y-2.1535
X3.2677Y-2.6969
X3.2677Y-2.7559
X3.2953Y-2.0551
X3.3228Y-2.5354
X3.3268Y-2.815
X3.3268Y-2.874
X3.3386Y-2.185
X3.3465Y-2.5984
X3.3465Y-2.6772
X3.3465Y-2.7559
X3.3465Y-2.9724
X3.3465Y-3.0315
X3.3465Y-3.0906
X3.3465Y-3.1496
X3.3465Y-3.2087
X3.3465Y-3.2677
X3.3602Y-2.1535
X3.3858Y-2.874
X3.3937Y-2.2913
X3.4016Y-2.5354
X3.4055Y-2.9724
X3.4055Y-3.0315
X3.4055Y-3.0906
X3.4055Y-3.1496
X3.4055Y-3.2087
X3.4055Y-3.2677
X3.4252Y-2.5984
X3.4252Y-2.6772
X3.4252Y-2.7559
X3.4291Y-2.0512
X3.4685Y-2.0512
X3.5Y-2.6614
X3.5001Y-2.1812
X3.5039Y-2.0512
X3.5039Y-3.3858
X3.5039Y-3.4646
X3.5039Y-3.8583
X3.5276Y-2.1811
X3.5276Y-2.6614
X3.5315Y-2.0118
X3.5551Y-2.1811
X3.5551Y-2.6614
X3.5827Y-2.1811
X3.5827Y-2.6614
X3.5827Y-3.3858
X3.5827Y-3.4646
X3.5827Y-3.8583
X3.5857Y-2.3428
X3.622Y-2.3504
X3.622Y-2.3976
X3.622Y-2.4449
X3.622Y-2.4921
X3.6299Y-2.2087
X3.6299Y-2.252
X3.6299Y-2.2953
X3.6299Y-2.5472
X3.6299Y-2.5906
X3.6299Y-2.6339
X3.6614Y-2.2323
X3.6614Y-2.2717
X3.6614Y-2.5709
X3.6614Y-2.6102
X3.6614Y-3.3858
X3.6614Y-3.4646
X3.6614Y-3.8583
X3.6693Y-2.3504
X3.6693Y-2.3976
X3.6693Y-2.4449
X3.6693Y-2.4921
X3.6929Y-2.2087
X3.6929Y-2.252
X3.6929Y-2.2953
X3.6929Y-2.5472
X3.6929Y-2.5906
X3.6929Y-2.6339
X3.7165Y-2.3504
X3.7165Y-2.3976
X3.7165Y-2.4449
X3.7165Y-2.4921
X3.7402Y-2.2087
X3.7402Y-2.252
X3.7402Y-2.2953
X3.7402Y-2.5472
X3.7402Y-2.5906
X3.7402Y-2.6339
X3.7402Y-3.3858
X3.7402Y-3.4646
X3.7402Y-3.5433
X3.7402Y-3.622
X3.7402Y-3.7008
X3.7402Y-3.7795
X3.7402Y-3.8583
X3.7638Y-2.3504
X3.7638Y-2.3976
X3.7638Y-2.4449
X3.7638Y-2.4921
X3.7717Y-2.2323
X3.7717Y-2.2717
X3.7717Y-2.5709
X3.7717Y-2.6102
X3.8031Y-2.2087
X3.8031Y-2.252
X3.8031Y-2.2953
X3.8031Y-2.5472
X3.8031Y-2.5906
X3.8031Y-2.6339
X3.811Y-2.3504
X3.811Y-2.3976
X3.811Y-2.4449
X3.811Y-2.4921
X3.8189Y-3.3858
X3.8189Y-3.4646
X3.8189Y-3.5433
X3.8189Y-3.622
X3.8189Y-3.7008
X3.8189Y-3.7795
X3.8189Y-3.8583
X3.8425Y-2.0
X3.8504Y-2.1811
X3.8504Y-2.6614
X3.8504Y-2.3661
X3.874Y-2.0
X3.878Y-2.1811
X3.878Y-2.6614
X3.8976Y-3.4646
X3.8976Y-3.5433
X3.8976Y-3.622
X3.8976Y-3.7008
X3.8976Y-3.7795
X3.8976Y-3.8583
X3.9055Y-2.0
X3.9055Y-2.1811
X3.9055Y-2.5472
X3.9055Y-2.6614
X3.9331Y-2.1811
X3.9331Y-2.6614
X3.9882Y-2.8425
X3.9882Y-2.8819
X3.9882Y-2.9213
X3.9882Y-2.9606
T4
X4.3268Y-2.9921
X4.3268Y-3.1299
X4.3268Y-3.2677
X4.3268Y-3.4055
X4.3268Y-3.5433
X4.3268Y-3.6811
X4.3268Y-3.8189
T5
X2.3819Y-2.6575
X2.3819Y-2.8543
X2.3819Y-3.0512
X2.3819Y-3.248
X4.248Y-2.126
X4.248Y-2.3228
X4.248Y-2.5197
X4.248Y-2.7165
T3
X2.0829Y-2.0346G85X2.0593Y-2.0346
G05
X2.0829Y-2.3748G85X2.0593Y-2.3748
G05
X2.2573Y-2.0346G85X2.214Y-2.0346
G05
X2.2573Y-2.3748G85X2.214Y-2.3748
G05
X2.0829Y-3.5307G85X2.0593Y-3.5307
G05
X2.0829Y-3.8709G85X2.0593Y-3.8709
G05
X2.2573Y-3.5307G85X2.214Y-3.5307
G05
X2.2573Y-3.8709G85X2.214Y-3.8709
G05
T0
M30
