G04 #@! TF.GenerationSoftware,KiCad,Pcbnew,5.1.5+dfsg1-2build2*
G04 #@! TF.CreationDate,2021-05-18T12:59:48+02:00*
G04 #@! TF.ProjectId,OtterStep,4f747465-7253-4746-9570-2e6b69636164,rev?*
G04 #@! TF.SameCoordinates,Original*
G04 #@! TF.FileFunction,Legend,Bot*
G04 #@! TF.FilePolarity,Positive*
%FSLAX46Y46*%
G04 Gerber Fmt 4.6, Leading zero omitted, Abs format (unit mm)*
G04 Created by KiCad (PCBNEW 5.1.5+dfsg1-2build2) date 2021-05-18 12:59:48*
%MOMM*%
%LPD*%
G04 APERTURE LIST*
%ADD10C,0.130000*%
%ADD11C,0.150000*%
%ADD12C,0.100000*%
G04 APERTURE END LIST*
D10*
X67718571Y-93664285D02*
X66666190Y-93664285D01*
X66542380Y-93726190D01*
X66480476Y-93788095D01*
X66418571Y-93911904D01*
X66418571Y-94097619D01*
X66480476Y-94221428D01*
X66913809Y-93664285D02*
X66851904Y-93788095D01*
X66851904Y-94035714D01*
X66913809Y-94159523D01*
X66975714Y-94221428D01*
X67099523Y-94283333D01*
X67470952Y-94283333D01*
X67594761Y-94221428D01*
X67656666Y-94159523D01*
X67718571Y-94035714D01*
X67718571Y-93788095D01*
X67656666Y-93664285D01*
X66851904Y-93045238D02*
X67718571Y-93045238D01*
X68151904Y-93045238D02*
X68090000Y-93107142D01*
X68028095Y-93045238D01*
X68090000Y-92983333D01*
X68151904Y-93045238D01*
X68028095Y-93045238D01*
X67718571Y-92611904D02*
X67718571Y-92116666D01*
X68151904Y-92426190D02*
X67037619Y-92426190D01*
X66913809Y-92364285D01*
X66851904Y-92240476D01*
X66851904Y-92116666D01*
X66851904Y-91683333D02*
X68151904Y-91683333D01*
X66851904Y-91126190D02*
X67532857Y-91126190D01*
X67656666Y-91188095D01*
X67718571Y-91311904D01*
X67718571Y-91497619D01*
X67656666Y-91621428D01*
X67594761Y-91683333D01*
X67718571Y-89950000D02*
X66851904Y-89950000D01*
X67718571Y-90507142D02*
X67037619Y-90507142D01*
X66913809Y-90445238D01*
X66851904Y-90321428D01*
X66851904Y-90135714D01*
X66913809Y-90011904D01*
X66975714Y-89950000D01*
X66851904Y-89330952D02*
X68151904Y-89330952D01*
X67656666Y-89330952D02*
X67718571Y-89207142D01*
X67718571Y-88959523D01*
X67656666Y-88835714D01*
X67594761Y-88773809D01*
X67470952Y-88711904D01*
X67099523Y-88711904D01*
X66975714Y-88773809D01*
X66913809Y-88835714D01*
X66851904Y-88959523D01*
X66851904Y-89207142D01*
X66913809Y-89330952D01*
X66975714Y-88154761D02*
X66913809Y-88092857D01*
X66851904Y-88154761D01*
X66913809Y-88216666D01*
X66975714Y-88154761D01*
X66851904Y-88154761D01*
X66913809Y-86978571D02*
X66851904Y-87102380D01*
X66851904Y-87350000D01*
X66913809Y-87473809D01*
X66975714Y-87535714D01*
X67099523Y-87597619D01*
X67470952Y-87597619D01*
X67594761Y-87535714D01*
X67656666Y-87473809D01*
X67718571Y-87350000D01*
X67718571Y-87102380D01*
X67656666Y-86978571D01*
X66851904Y-86235714D02*
X66913809Y-86359523D01*
X66975714Y-86421428D01*
X67099523Y-86483333D01*
X67470952Y-86483333D01*
X67594761Y-86421428D01*
X67656666Y-86359523D01*
X67718571Y-86235714D01*
X67718571Y-86050000D01*
X67656666Y-85926190D01*
X67594761Y-85864285D01*
X67470952Y-85802380D01*
X67099523Y-85802380D01*
X66975714Y-85864285D01*
X66913809Y-85926190D01*
X66851904Y-86050000D01*
X66851904Y-86235714D01*
X66851904Y-85245238D02*
X67718571Y-85245238D01*
X67594761Y-85245238D02*
X67656666Y-85183333D01*
X67718571Y-85059523D01*
X67718571Y-84873809D01*
X67656666Y-84750000D01*
X67532857Y-84688095D01*
X66851904Y-84688095D01*
X67532857Y-84688095D02*
X67656666Y-84626190D01*
X67718571Y-84502380D01*
X67718571Y-84316666D01*
X67656666Y-84192857D01*
X67532857Y-84130952D01*
X66851904Y-84130952D01*
X68213809Y-82583333D02*
X66542380Y-83697619D01*
X68151904Y-81778571D02*
X67223333Y-81778571D01*
X67037619Y-81840476D01*
X66913809Y-81964285D01*
X66851904Y-82150000D01*
X66851904Y-82273809D01*
X66851904Y-80602380D02*
X67532857Y-80602380D01*
X67656666Y-80664285D01*
X67718571Y-80788095D01*
X67718571Y-81035714D01*
X67656666Y-81159523D01*
X66913809Y-80602380D02*
X66851904Y-80726190D01*
X66851904Y-81035714D01*
X66913809Y-81159523D01*
X67037619Y-81221428D01*
X67161428Y-81221428D01*
X67285238Y-81159523D01*
X67347142Y-81035714D01*
X67347142Y-80726190D01*
X67409047Y-80602380D01*
X67718571Y-79983333D02*
X66851904Y-79983333D01*
X67594761Y-79983333D02*
X67656666Y-79921428D01*
X67718571Y-79797619D01*
X67718571Y-79611904D01*
X67656666Y-79488095D01*
X67532857Y-79426190D01*
X66851904Y-79426190D01*
X67347142Y-78807142D02*
X67347142Y-77816666D01*
X67347142Y-77197619D02*
X67347142Y-76207142D01*
X66851904Y-75588095D02*
X68151904Y-75588095D01*
X67532857Y-75588095D02*
X67532857Y-74845238D01*
X66851904Y-74845238D02*
X68151904Y-74845238D01*
X66913809Y-73730952D02*
X66851904Y-73854761D01*
X66851904Y-74102380D01*
X66913809Y-74226190D01*
X67037619Y-74288095D01*
X67532857Y-74288095D01*
X67656666Y-74226190D01*
X67718571Y-74102380D01*
X67718571Y-73854761D01*
X67656666Y-73730952D01*
X67532857Y-73669047D01*
X67409047Y-73669047D01*
X67285238Y-74288095D01*
X67718571Y-73111904D02*
X66851904Y-73111904D01*
X67594761Y-73111904D02*
X67656666Y-73050000D01*
X67718571Y-72926190D01*
X67718571Y-72740476D01*
X67656666Y-72616666D01*
X67532857Y-72554761D01*
X66851904Y-72554761D01*
X66851904Y-71935714D02*
X67718571Y-71935714D01*
X67470952Y-71935714D02*
X67594761Y-71873809D01*
X67656666Y-71811904D01*
X67718571Y-71688095D01*
X67718571Y-71564285D01*
X66851904Y-71130952D02*
X67718571Y-71130952D01*
X68151904Y-71130952D02*
X68090000Y-71192857D01*
X68028095Y-71130952D01*
X68090000Y-71069047D01*
X68151904Y-71130952D01*
X68028095Y-71130952D01*
X66851904Y-70511904D02*
X68151904Y-70511904D01*
X67347142Y-70388095D02*
X66851904Y-70016666D01*
X67718571Y-70016666D02*
X67223333Y-70511904D01*
X68213809Y-68530952D02*
X66542380Y-69645238D01*
X68151904Y-67850000D02*
X68151904Y-67602380D01*
X68090000Y-67478571D01*
X67966190Y-67354761D01*
X67718571Y-67292857D01*
X67285238Y-67292857D01*
X67037619Y-67354761D01*
X66913809Y-67478571D01*
X66851904Y-67602380D01*
X66851904Y-67850000D01*
X66913809Y-67973809D01*
X67037619Y-68097619D01*
X67285238Y-68159523D01*
X67718571Y-68159523D01*
X67966190Y-68097619D01*
X68090000Y-67973809D01*
X68151904Y-67850000D01*
X67718571Y-66921428D02*
X67718571Y-66426190D01*
X68151904Y-66735714D02*
X67037619Y-66735714D01*
X66913809Y-66673809D01*
X66851904Y-66550000D01*
X66851904Y-66426190D01*
X67718571Y-66178571D02*
X67718571Y-65683333D01*
X68151904Y-65992857D02*
X67037619Y-65992857D01*
X66913809Y-65930952D01*
X66851904Y-65807142D01*
X66851904Y-65683333D01*
X66913809Y-64754761D02*
X66851904Y-64878571D01*
X66851904Y-65126190D01*
X66913809Y-65250000D01*
X67037619Y-65311904D01*
X67532857Y-65311904D01*
X67656666Y-65250000D01*
X67718571Y-65126190D01*
X67718571Y-64878571D01*
X67656666Y-64754761D01*
X67532857Y-64692857D01*
X67409047Y-64692857D01*
X67285238Y-65311904D01*
X66851904Y-64135714D02*
X67718571Y-64135714D01*
X67470952Y-64135714D02*
X67594761Y-64073809D01*
X67656666Y-64011904D01*
X67718571Y-63888095D01*
X67718571Y-63764285D01*
X66913809Y-63392857D02*
X66851904Y-63207142D01*
X66851904Y-62897619D01*
X66913809Y-62773809D01*
X66975714Y-62711904D01*
X67099523Y-62650000D01*
X67223333Y-62650000D01*
X67347142Y-62711904D01*
X67409047Y-62773809D01*
X67470952Y-62897619D01*
X67532857Y-63145238D01*
X67594761Y-63269047D01*
X67656666Y-63330952D01*
X67780476Y-63392857D01*
X67904285Y-63392857D01*
X68028095Y-63330952D01*
X68090000Y-63269047D01*
X68151904Y-63145238D01*
X68151904Y-62835714D01*
X68090000Y-62650000D01*
X67718571Y-62278571D02*
X67718571Y-61783333D01*
X68151904Y-62092857D02*
X67037619Y-62092857D01*
X66913809Y-62030952D01*
X66851904Y-61907142D01*
X66851904Y-61783333D01*
X66913809Y-60854761D02*
X66851904Y-60978571D01*
X66851904Y-61226190D01*
X66913809Y-61350000D01*
X67037619Y-61411904D01*
X67532857Y-61411904D01*
X67656666Y-61350000D01*
X67718571Y-61226190D01*
X67718571Y-60978571D01*
X67656666Y-60854761D01*
X67532857Y-60792857D01*
X67409047Y-60792857D01*
X67285238Y-61411904D01*
X67718571Y-60235714D02*
X66418571Y-60235714D01*
X67656666Y-60235714D02*
X67718571Y-60111904D01*
X67718571Y-59864285D01*
X67656666Y-59740476D01*
X67594761Y-59678571D01*
X67470952Y-59616666D01*
X67099523Y-59616666D01*
X66975714Y-59678571D01*
X66913809Y-59740476D01*
X66851904Y-59864285D01*
X66851904Y-60111904D01*
X66913809Y-60235714D01*
X66851904Y-59059523D02*
X68151904Y-59059523D01*
X67223333Y-58626190D01*
X68151904Y-58192857D01*
X66851904Y-58192857D01*
X66851904Y-57573809D02*
X67718571Y-57573809D01*
X68151904Y-57573809D02*
X68090000Y-57635714D01*
X68028095Y-57573809D01*
X68090000Y-57511904D01*
X68151904Y-57573809D01*
X68028095Y-57573809D01*
X67718571Y-56954761D02*
X66851904Y-56954761D01*
X67594761Y-56954761D02*
X67656666Y-56892857D01*
X67718571Y-56769047D01*
X67718571Y-56583333D01*
X67656666Y-56459523D01*
X67532857Y-56397619D01*
X66851904Y-56397619D01*
X66851904Y-55778571D02*
X67718571Y-55778571D01*
X68151904Y-55778571D02*
X68090000Y-55840476D01*
X68028095Y-55778571D01*
X68090000Y-55716666D01*
X68151904Y-55778571D01*
X68028095Y-55778571D01*
X65390952Y-83604761D02*
X65452857Y-83666666D01*
X65514761Y-83790476D01*
X65514761Y-83914285D01*
X65452857Y-84038095D01*
X65390952Y-84100000D01*
X65267142Y-84161904D01*
X65143333Y-84161904D01*
X65019523Y-84100000D01*
X64957619Y-84038095D01*
X64895714Y-83914285D01*
X64895714Y-83790476D01*
X64957619Y-83666666D01*
X65019523Y-83604761D01*
X65514761Y-83604761D02*
X65019523Y-83604761D01*
X64957619Y-83542857D01*
X64957619Y-83480952D01*
X65019523Y-83357142D01*
X65143333Y-83295238D01*
X65452857Y-83295238D01*
X65638571Y-83419047D01*
X65762380Y-83604761D01*
X65824285Y-83852380D01*
X65762380Y-84100000D01*
X65638571Y-84285714D01*
X65452857Y-84409523D01*
X65205238Y-84471428D01*
X64957619Y-84409523D01*
X64771904Y-84285714D01*
X64648095Y-84100000D01*
X64586190Y-83852380D01*
X64648095Y-83604761D01*
X64771904Y-83419047D01*
X66071904Y-82366666D02*
X65143333Y-82366666D01*
X64957619Y-82428571D01*
X64833809Y-82552380D01*
X64771904Y-82738095D01*
X64771904Y-82861904D01*
X64771904Y-81190476D02*
X65452857Y-81190476D01*
X65576666Y-81252380D01*
X65638571Y-81376190D01*
X65638571Y-81623809D01*
X65576666Y-81747619D01*
X64833809Y-81190476D02*
X64771904Y-81314285D01*
X64771904Y-81623809D01*
X64833809Y-81747619D01*
X64957619Y-81809523D01*
X65081428Y-81809523D01*
X65205238Y-81747619D01*
X65267142Y-81623809D01*
X65267142Y-81314285D01*
X65329047Y-81190476D01*
X65638571Y-80571428D02*
X64771904Y-80571428D01*
X65514761Y-80571428D02*
X65576666Y-80509523D01*
X65638571Y-80385714D01*
X65638571Y-80200000D01*
X65576666Y-80076190D01*
X65452857Y-80014285D01*
X64771904Y-80014285D01*
X64771904Y-79395238D02*
X66071904Y-79395238D01*
X65452857Y-79395238D02*
X65452857Y-78652380D01*
X64771904Y-78652380D02*
X66071904Y-78652380D01*
X64833809Y-77538095D02*
X64771904Y-77661904D01*
X64771904Y-77909523D01*
X64833809Y-78033333D01*
X64957619Y-78095238D01*
X65452857Y-78095238D01*
X65576666Y-78033333D01*
X65638571Y-77909523D01*
X65638571Y-77661904D01*
X65576666Y-77538095D01*
X65452857Y-77476190D01*
X65329047Y-77476190D01*
X65205238Y-78095238D01*
X65638571Y-76919047D02*
X64771904Y-76919047D01*
X65514761Y-76919047D02*
X65576666Y-76857142D01*
X65638571Y-76733333D01*
X65638571Y-76547619D01*
X65576666Y-76423809D01*
X65452857Y-76361904D01*
X64771904Y-76361904D01*
X64771904Y-75742857D02*
X65638571Y-75742857D01*
X65390952Y-75742857D02*
X65514761Y-75680952D01*
X65576666Y-75619047D01*
X65638571Y-75495238D01*
X65638571Y-75371428D01*
X64771904Y-74938095D02*
X65638571Y-74938095D01*
X66071904Y-74938095D02*
X66010000Y-75000000D01*
X65948095Y-74938095D01*
X66010000Y-74876190D01*
X66071904Y-74938095D01*
X65948095Y-74938095D01*
X64771904Y-74319047D02*
X66071904Y-74319047D01*
X65267142Y-74195238D02*
X64771904Y-73823809D01*
X65638571Y-73823809D02*
X65143333Y-74319047D01*
X64771904Y-73266666D02*
X66071904Y-73266666D01*
X65452857Y-73266666D02*
X65452857Y-72523809D01*
X64771904Y-72523809D02*
X66071904Y-72523809D01*
X65948095Y-69985714D02*
X66010000Y-69923809D01*
X66071904Y-69800000D01*
X66071904Y-69490476D01*
X66010000Y-69366666D01*
X65948095Y-69304761D01*
X65824285Y-69242857D01*
X65700476Y-69242857D01*
X65514761Y-69304761D01*
X64771904Y-70047619D01*
X64771904Y-69242857D01*
X66071904Y-68438095D02*
X66071904Y-68314285D01*
X66010000Y-68190476D01*
X65948095Y-68128571D01*
X65824285Y-68066666D01*
X65576666Y-68004761D01*
X65267142Y-68004761D01*
X65019523Y-68066666D01*
X64895714Y-68128571D01*
X64833809Y-68190476D01*
X64771904Y-68314285D01*
X64771904Y-68438095D01*
X64833809Y-68561904D01*
X64895714Y-68623809D01*
X65019523Y-68685714D01*
X65267142Y-68747619D01*
X65576666Y-68747619D01*
X65824285Y-68685714D01*
X65948095Y-68623809D01*
X66010000Y-68561904D01*
X66071904Y-68438095D01*
X65948095Y-67509523D02*
X66010000Y-67447619D01*
X66071904Y-67323809D01*
X66071904Y-67014285D01*
X66010000Y-66890476D01*
X65948095Y-66828571D01*
X65824285Y-66766666D01*
X65700476Y-66766666D01*
X65514761Y-66828571D01*
X64771904Y-67571428D01*
X64771904Y-66766666D01*
X64771904Y-65528571D02*
X64771904Y-66271428D01*
X64771904Y-65900000D02*
X66071904Y-65900000D01*
X65886190Y-66023809D01*
X65762380Y-66147619D01*
X65700476Y-66271428D01*
D11*
X53821428Y-96964285D02*
X55321428Y-96964285D01*
X55321428Y-96392857D01*
X55250000Y-96250000D01*
X55178571Y-96178571D01*
X55035714Y-96107142D01*
X54821428Y-96107142D01*
X54678571Y-96178571D01*
X54607142Y-96250000D01*
X54535714Y-96392857D01*
X54535714Y-96964285D01*
X53821428Y-95250000D02*
X53892857Y-95392857D01*
X53964285Y-95464285D01*
X54107142Y-95535714D01*
X54535714Y-95535714D01*
X54678571Y-95464285D01*
X54750000Y-95392857D01*
X54821428Y-95250000D01*
X54821428Y-95035714D01*
X54750000Y-94892857D01*
X54678571Y-94821428D01*
X54535714Y-94750000D01*
X54107142Y-94750000D01*
X53964285Y-94821428D01*
X53892857Y-94892857D01*
X53821428Y-95035714D01*
X53821428Y-95250000D01*
X54821428Y-94250000D02*
X53821428Y-93964285D01*
X54535714Y-93678571D01*
X53821428Y-93392857D01*
X54821428Y-93107142D01*
X53892857Y-91964285D02*
X53821428Y-92107142D01*
X53821428Y-92392857D01*
X53892857Y-92535714D01*
X54035714Y-92607142D01*
X54607142Y-92607142D01*
X54750000Y-92535714D01*
X54821428Y-92392857D01*
X54821428Y-92107142D01*
X54750000Y-91964285D01*
X54607142Y-91892857D01*
X54464285Y-91892857D01*
X54321428Y-92607142D01*
X53821428Y-91250000D02*
X54821428Y-91250000D01*
X54535714Y-91250000D02*
X54678571Y-91178571D01*
X54750000Y-91107142D01*
X54821428Y-90964285D01*
X54821428Y-90821428D01*
X53821428Y-58178571D02*
X55321428Y-58178571D01*
X55321428Y-57821428D01*
X55250000Y-57607142D01*
X55107142Y-57464285D01*
X54964285Y-57392857D01*
X54678571Y-57321428D01*
X54464285Y-57321428D01*
X54178571Y-57392857D01*
X54035714Y-57464285D01*
X53892857Y-57607142D01*
X53821428Y-57821428D01*
X53821428Y-58178571D01*
X53821428Y-56035714D02*
X54607142Y-56035714D01*
X54750000Y-56107142D01*
X54821428Y-56250000D01*
X54821428Y-56535714D01*
X54750000Y-56678571D01*
X53892857Y-56035714D02*
X53821428Y-56178571D01*
X53821428Y-56535714D01*
X53892857Y-56678571D01*
X54035714Y-56750000D01*
X54178571Y-56750000D01*
X54321428Y-56678571D01*
X54392857Y-56535714D01*
X54392857Y-56178571D01*
X54464285Y-56035714D01*
X54821428Y-55535714D02*
X54821428Y-54964285D01*
X55321428Y-55321428D02*
X54035714Y-55321428D01*
X53892857Y-55250000D01*
X53821428Y-55107142D01*
X53821428Y-54964285D01*
X53821428Y-53821428D02*
X54607142Y-53821428D01*
X54750000Y-53892857D01*
X54821428Y-54035714D01*
X54821428Y-54321428D01*
X54750000Y-54464285D01*
X53892857Y-53821428D02*
X53821428Y-53964285D01*
X53821428Y-54321428D01*
X53892857Y-54464285D01*
X54035714Y-54535714D01*
X54178571Y-54535714D01*
X54321428Y-54464285D01*
X54392857Y-54321428D01*
X54392857Y-53964285D01*
X54464285Y-53821428D01*
X54607142Y-77392857D02*
X54535714Y-77178571D01*
X54464285Y-77107142D01*
X54321428Y-77035714D01*
X54107142Y-77035714D01*
X53964285Y-77107142D01*
X53892857Y-77178571D01*
X53821428Y-77321428D01*
X53821428Y-77892857D01*
X55321428Y-77892857D01*
X55321428Y-77392857D01*
X55250000Y-77250000D01*
X55178571Y-77178571D01*
X55035714Y-77107142D01*
X54892857Y-77107142D01*
X54750000Y-77178571D01*
X54678571Y-77250000D01*
X54607142Y-77392857D01*
X54607142Y-77892857D01*
X54250000Y-72857142D02*
X54250000Y-72142857D01*
X53821428Y-73000000D02*
X55321428Y-72500000D01*
X53821428Y-72000000D01*
X56621428Y-77492857D02*
X57335714Y-77992857D01*
X56621428Y-78350000D02*
X58121428Y-78350000D01*
X58121428Y-77778571D01*
X58050000Y-77635714D01*
X57978571Y-77564285D01*
X57835714Y-77492857D01*
X57621428Y-77492857D01*
X57478571Y-77564285D01*
X57407142Y-77635714D01*
X57335714Y-77778571D01*
X57335714Y-78350000D01*
X56692857Y-76921428D02*
X56621428Y-76707142D01*
X56621428Y-76350000D01*
X56692857Y-76207142D01*
X56764285Y-76135714D01*
X56907142Y-76064285D01*
X57050000Y-76064285D01*
X57192857Y-76135714D01*
X57264285Y-76207142D01*
X57335714Y-76350000D01*
X57407142Y-76635714D01*
X57478571Y-76778571D01*
X57550000Y-76850000D01*
X57692857Y-76921428D01*
X57835714Y-76921428D01*
X57978571Y-76850000D01*
X58050000Y-76778571D01*
X58121428Y-76635714D01*
X58121428Y-76278571D01*
X58050000Y-76064285D01*
X57978571Y-75492857D02*
X58050000Y-75421428D01*
X58121428Y-75278571D01*
X58121428Y-74921428D01*
X58050000Y-74778571D01*
X57978571Y-74707142D01*
X57835714Y-74635714D01*
X57692857Y-74635714D01*
X57478571Y-74707142D01*
X56621428Y-75564285D01*
X56621428Y-74635714D01*
X57478571Y-73778571D02*
X57550000Y-73921428D01*
X57621428Y-73992857D01*
X57764285Y-74064285D01*
X57835714Y-74064285D01*
X57978571Y-73992857D01*
X58050000Y-73921428D01*
X58121428Y-73778571D01*
X58121428Y-73492857D01*
X58050000Y-73350000D01*
X57978571Y-73278571D01*
X57835714Y-73207142D01*
X57764285Y-73207142D01*
X57621428Y-73278571D01*
X57550000Y-73350000D01*
X57478571Y-73492857D01*
X57478571Y-73778571D01*
X57407142Y-73921428D01*
X57335714Y-73992857D01*
X57192857Y-74064285D01*
X56907142Y-74064285D01*
X56764285Y-73992857D01*
X56692857Y-73921428D01*
X56621428Y-73778571D01*
X56621428Y-73492857D01*
X56692857Y-73350000D01*
X56764285Y-73278571D01*
X56907142Y-73207142D01*
X57192857Y-73207142D01*
X57335714Y-73278571D01*
X57407142Y-73350000D01*
X57478571Y-73492857D01*
X58121428Y-71850000D02*
X58121428Y-72564285D01*
X57407142Y-72635714D01*
X57478571Y-72564285D01*
X57550000Y-72421428D01*
X57550000Y-72064285D01*
X57478571Y-71921428D01*
X57407142Y-71850000D01*
X57264285Y-71778571D01*
X56907142Y-71778571D01*
X56764285Y-71850000D01*
X56692857Y-71921428D01*
X56621428Y-72064285D01*
X56621428Y-72421428D01*
X56692857Y-72564285D01*
X56764285Y-72635714D01*
X57495238Y-84647619D02*
X55495238Y-83980952D01*
X57495238Y-83314285D01*
X55495238Y-82647619D02*
X56828571Y-82647619D01*
X57495238Y-82647619D02*
X57400000Y-82742857D01*
X57304761Y-82647619D01*
X57400000Y-82552380D01*
X57495238Y-82647619D01*
X57304761Y-82647619D01*
X56828571Y-81695238D02*
X55495238Y-81695238D01*
X56638095Y-81695238D02*
X56733333Y-81600000D01*
X56828571Y-81409523D01*
X56828571Y-81123809D01*
X56733333Y-80933333D01*
X56542857Y-80838095D01*
X55495238Y-80838095D01*
X57400000Y-69023809D02*
X57495238Y-69214285D01*
X57495238Y-69500000D01*
X57400000Y-69785714D01*
X57209523Y-69976190D01*
X57019047Y-70071428D01*
X56638095Y-70166666D01*
X56352380Y-70166666D01*
X55971428Y-70071428D01*
X55780952Y-69976190D01*
X55590476Y-69785714D01*
X55495238Y-69500000D01*
X55495238Y-69309523D01*
X55590476Y-69023809D01*
X55685714Y-68928571D01*
X56352380Y-68928571D01*
X56352380Y-69309523D01*
X55495238Y-68071428D02*
X57495238Y-68071428D01*
X55495238Y-66928571D01*
X57495238Y-66928571D01*
X55495238Y-65976190D02*
X57495238Y-65976190D01*
X57495238Y-65500000D01*
X57400000Y-65214285D01*
X57209523Y-65023809D01*
X57019047Y-64928571D01*
X56638095Y-64833333D01*
X56352380Y-64833333D01*
X55971428Y-64928571D01*
X55780952Y-65023809D01*
X55590476Y-65214285D01*
X55495238Y-65500000D01*
X55495238Y-65976190D01*
D12*
X113704761Y-78266666D02*
X113752380Y-78409523D01*
X113752380Y-78647619D01*
X113704761Y-78742857D01*
X113657142Y-78790476D01*
X113561904Y-78838095D01*
X113466666Y-78838095D01*
X113371428Y-78790476D01*
X113323809Y-78742857D01*
X113276190Y-78647619D01*
X113228571Y-78457142D01*
X113180952Y-78361904D01*
X113133333Y-78314285D01*
X113038095Y-78266666D01*
X112942857Y-78266666D01*
X112847619Y-78314285D01*
X112800000Y-78361904D01*
X112752380Y-78457142D01*
X112752380Y-78695238D01*
X112800000Y-78838095D01*
X112752380Y-79171428D02*
X113752380Y-79409523D01*
X113038095Y-79600000D01*
X113752380Y-79790476D01*
X112752380Y-80028571D01*
X112847619Y-80361904D02*
X112800000Y-80409523D01*
X112752380Y-80504761D01*
X112752380Y-80742857D01*
X112800000Y-80838095D01*
X112847619Y-80885714D01*
X112942857Y-80933333D01*
X113038095Y-80933333D01*
X113180952Y-80885714D01*
X113752380Y-80314285D01*
X113752380Y-80933333D01*
X113704761Y-81666666D02*
X113752380Y-81809523D01*
X113752380Y-82047619D01*
X113704761Y-82142857D01*
X113657142Y-82190476D01*
X113561904Y-82238095D01*
X113466666Y-82238095D01*
X113371428Y-82190476D01*
X113323809Y-82142857D01*
X113276190Y-82047619D01*
X113228571Y-81857142D01*
X113180952Y-81761904D01*
X113133333Y-81714285D01*
X113038095Y-81666666D01*
X112942857Y-81666666D01*
X112847619Y-81714285D01*
X112800000Y-81761904D01*
X112752380Y-81857142D01*
X112752380Y-82095238D01*
X112800000Y-82238095D01*
X112752380Y-82571428D02*
X113752380Y-82809523D01*
X113038095Y-83000000D01*
X113752380Y-83190476D01*
X112752380Y-83428571D01*
X113752380Y-84333333D02*
X113752380Y-83761904D01*
X113752380Y-84047619D02*
X112752380Y-84047619D01*
X112895238Y-83952380D01*
X112990476Y-83857142D01*
X113038095Y-83761904D01*
X112752380Y-95761904D02*
X112752380Y-96380952D01*
X113133333Y-96047619D01*
X113133333Y-96190476D01*
X113180952Y-96285714D01*
X113228571Y-96333333D01*
X113323809Y-96380952D01*
X113561904Y-96380952D01*
X113657142Y-96333333D01*
X113704761Y-96285714D01*
X113752380Y-96190476D01*
X113752380Y-95904761D01*
X113704761Y-95809523D01*
X113657142Y-95761904D01*
X112752380Y-96666666D02*
X113752380Y-97000000D01*
X112752380Y-97333333D01*
X112752380Y-97571428D02*
X112752380Y-98190476D01*
X113133333Y-97857142D01*
X113133333Y-98000000D01*
X113180952Y-98095238D01*
X113228571Y-98142857D01*
X113323809Y-98190476D01*
X113561904Y-98190476D01*
X113657142Y-98142857D01*
X113704761Y-98095238D01*
X113752380Y-98000000D01*
X113752380Y-97714285D01*
X113704761Y-97619047D01*
X113657142Y-97571428D01*
X113228571Y-88516666D02*
X113228571Y-88750000D01*
X113752380Y-88850000D02*
X113752380Y-88516666D01*
X112752380Y-88516666D01*
X112752380Y-88850000D01*
X113752380Y-89150000D02*
X112752380Y-89150000D01*
X113752380Y-89550000D01*
X112752380Y-89550000D01*
X113657142Y-90283333D02*
X113704761Y-90250000D01*
X113752380Y-90150000D01*
X113752380Y-90083333D01*
X113704761Y-89983333D01*
X113609523Y-89916666D01*
X113514285Y-89883333D01*
X113323809Y-89850000D01*
X113180952Y-89850000D01*
X112990476Y-89883333D01*
X112895238Y-89916666D01*
X112800000Y-89983333D01*
X112752380Y-90083333D01*
X112752380Y-90150000D01*
X112800000Y-90250000D01*
X112847619Y-90283333D01*
X113228571Y-91350000D02*
X113276190Y-91450000D01*
X113323809Y-91483333D01*
X113419047Y-91516666D01*
X113561904Y-91516666D01*
X113657142Y-91483333D01*
X113704761Y-91450000D01*
X113752380Y-91383333D01*
X113752380Y-91116666D01*
X112752380Y-91116666D01*
X112752380Y-91350000D01*
X112800000Y-91416666D01*
X112847619Y-91450000D01*
X112942857Y-91483333D01*
X113038095Y-91483333D01*
X113133333Y-91450000D01*
X113180952Y-91416666D01*
X113228571Y-91350000D01*
X113228571Y-91116666D01*
X113228572Y-92066666D02*
X113228572Y-92300000D01*
X113752381Y-92400000D02*
X113752381Y-92066666D01*
X112752381Y-92066666D01*
X112752381Y-92400000D01*
X113752381Y-92700000D02*
X112752381Y-92700000D01*
X113752381Y-93100000D01*
X112752381Y-93100000D01*
X113657143Y-93833333D02*
X113704762Y-93800000D01*
X113752381Y-93700000D01*
X113752381Y-93633333D01*
X113704762Y-93533333D01*
X113609524Y-93466666D01*
X113514286Y-93433333D01*
X113323810Y-93400000D01*
X113180953Y-93400000D01*
X112990477Y-93433333D01*
X112895239Y-93466666D01*
X112800001Y-93533333D01*
X112752381Y-93633333D01*
X112752381Y-93700000D01*
X112800001Y-93800000D01*
X112847620Y-93833333D01*
X113466667Y-94633333D02*
X113466667Y-94966666D01*
X113752381Y-94566666D02*
X112752381Y-94800000D01*
X113752381Y-95033333D01*
X113228571Y-85200000D02*
X113228571Y-85433333D01*
X113752380Y-85533333D02*
X113752380Y-85200000D01*
X112752380Y-85200000D01*
X112752380Y-85533333D01*
X113752380Y-85833333D02*
X112752380Y-85833333D01*
X113752380Y-86233333D01*
X112752380Y-86233333D01*
X113657142Y-86966666D02*
X113704761Y-86933333D01*
X113752380Y-86833333D01*
X113752380Y-86766666D01*
X113704761Y-86666666D01*
X113609523Y-86600000D01*
X113514285Y-86566666D01*
X113323809Y-86533333D01*
X113180952Y-86533333D01*
X112990476Y-86566666D01*
X112895238Y-86600000D01*
X112800000Y-86666666D01*
X112752380Y-86766666D01*
X112752380Y-86833333D01*
X112800000Y-86933333D01*
X112847619Y-86966666D01*
X113752380Y-87800000D02*
X112752380Y-87800000D01*
X112800000Y-75238095D02*
X112752380Y-75142857D01*
X112752380Y-75000000D01*
X112800000Y-74857142D01*
X112895238Y-74761904D01*
X112990476Y-74714285D01*
X113180952Y-74666666D01*
X113323809Y-74666666D01*
X113514285Y-74714285D01*
X113609523Y-74761904D01*
X113704761Y-74857142D01*
X113752380Y-75000000D01*
X113752380Y-75095238D01*
X113704761Y-75238095D01*
X113657142Y-75285714D01*
X113323809Y-75285714D01*
X113323809Y-75095238D01*
X113752380Y-75714285D02*
X112752380Y-75714285D01*
X113752380Y-76285714D01*
X112752380Y-76285714D01*
X113752380Y-76761904D02*
X112752380Y-76761904D01*
X112752380Y-77000000D01*
X112800000Y-77142857D01*
X112895238Y-77238095D01*
X112990476Y-77285714D01*
X113180952Y-77333333D01*
X113323809Y-77333333D01*
X113514285Y-77285714D01*
X113609523Y-77238095D01*
X113704761Y-77142857D01*
X113752380Y-77000000D01*
X113752380Y-76761904D01*
D11*
X112233333Y-67571428D02*
X112233333Y-68523809D01*
X112804761Y-67380952D02*
X110804761Y-68047619D01*
X112804761Y-68714285D01*
X110995238Y-69285714D02*
X110900000Y-69380952D01*
X110804761Y-69571428D01*
X110804761Y-70047619D01*
X110900000Y-70238095D01*
X110995238Y-70333333D01*
X111185714Y-70428571D01*
X111376190Y-70428571D01*
X111661904Y-70333333D01*
X112804761Y-69190476D01*
X112804761Y-70428571D01*
X112233333Y-62571428D02*
X112233333Y-63523809D01*
X112804761Y-62380952D02*
X110804761Y-63047619D01*
X112804761Y-63714285D01*
X112804761Y-65428571D02*
X112804761Y-64285714D01*
X112804761Y-64857142D02*
X110804761Y-64857142D01*
X111090476Y-64666666D01*
X111280952Y-64476190D01*
X111376190Y-64285714D01*
X111757142Y-58190476D02*
X111852380Y-58476190D01*
X111947619Y-58571428D01*
X112138095Y-58666666D01*
X112423809Y-58666666D01*
X112614285Y-58571428D01*
X112709523Y-58476190D01*
X112804761Y-58285714D01*
X112804761Y-57523809D01*
X110804761Y-57523809D01*
X110804761Y-58190476D01*
X110900000Y-58380952D01*
X110995238Y-58476190D01*
X111185714Y-58571428D01*
X111376190Y-58571428D01*
X111566666Y-58476190D01*
X111661904Y-58380952D01*
X111757142Y-58190476D01*
X111757142Y-57523809D01*
X112804761Y-60571428D02*
X112804761Y-59428571D01*
X112804761Y-60000000D02*
X110804761Y-60000000D01*
X111090476Y-59809523D01*
X111280952Y-59619047D01*
X111376190Y-59428571D01*
X111757142Y-53190476D02*
X111852380Y-53476190D01*
X111947619Y-53571428D01*
X112138095Y-53666666D01*
X112423809Y-53666666D01*
X112614285Y-53571428D01*
X112709523Y-53476190D01*
X112804761Y-53285714D01*
X112804761Y-52523809D01*
X110804761Y-52523809D01*
X110804761Y-53190476D01*
X110900000Y-53380952D01*
X110995238Y-53476190D01*
X111185714Y-53571428D01*
X111376190Y-53571428D01*
X111566666Y-53476190D01*
X111661904Y-53380952D01*
X111757142Y-53190476D01*
X111757142Y-52523809D01*
X110995238Y-54428571D02*
X110900000Y-54523809D01*
X110804761Y-54714285D01*
X110804761Y-55190476D01*
X110900000Y-55380952D01*
X110995238Y-55476190D01*
X111185714Y-55571428D01*
X111376190Y-55571428D01*
X111661904Y-55476190D01*
X112804761Y-54333333D01*
X112804761Y-55571428D01*
M02*
