G04 #@! TF.GenerationSoftware,KiCad,Pcbnew,5.1.5+dfsg1-2build2*
G04 #@! TF.CreationDate,2021-12-28T00:54:03+01:00*
G04 #@! TF.ProjectId,OtterStep,4f747465-7253-4746-9570-2e6b69636164,rev?*
G04 #@! TF.SameCoordinates,Original*
G04 #@! TF.FileFunction,Soldermask,Bot*
G04 #@! TF.FilePolarity,Negative*
%FSLAX46Y46*%
G04 Gerber Fmt 4.6, Leading zero omitted, Abs format (unit mm)*
G04 Created by KiCad (PCBNEW 5.1.5+dfsg1-2build2) date 2021-12-28 00:54:03*
%MOMM*%
%LPD*%
G04 APERTURE LIST*
%ADD10O,3.600000X2.000000*%
%ADD11C,0.100000*%
%ADD12C,0.700000*%
%ADD13O,3.600000X1.800000*%
%ADD14O,2.100000X1.000000*%
%ADD15O,1.600000X1.000000*%
%ADD16C,0.650000*%
G04 APERTURE END LIST*
D10*
X60500000Y-82500000D03*
X60500000Y-77500000D03*
X60500000Y-72500000D03*
D11*
G36*
X62074504Y-66501204D02*
G01*
X62098773Y-66504804D01*
X62122571Y-66510765D01*
X62145671Y-66519030D01*
X62167849Y-66529520D01*
X62188893Y-66542133D01*
X62208598Y-66556747D01*
X62226777Y-66573223D01*
X62243253Y-66591402D01*
X62257867Y-66611107D01*
X62270480Y-66632151D01*
X62280970Y-66654329D01*
X62289235Y-66677429D01*
X62295196Y-66701227D01*
X62298796Y-66725496D01*
X62300000Y-66750000D01*
X62300000Y-68250000D01*
X62298796Y-68274504D01*
X62295196Y-68298773D01*
X62289235Y-68322571D01*
X62280970Y-68345671D01*
X62270480Y-68367849D01*
X62257867Y-68388893D01*
X62243253Y-68408598D01*
X62226777Y-68426777D01*
X62208598Y-68443253D01*
X62188893Y-68457867D01*
X62167849Y-68470480D01*
X62145671Y-68480970D01*
X62122571Y-68489235D01*
X62098773Y-68495196D01*
X62074504Y-68498796D01*
X62050000Y-68500000D01*
X58950000Y-68500000D01*
X58925496Y-68498796D01*
X58901227Y-68495196D01*
X58877429Y-68489235D01*
X58854329Y-68480970D01*
X58832151Y-68470480D01*
X58811107Y-68457867D01*
X58791402Y-68443253D01*
X58773223Y-68426777D01*
X58756747Y-68408598D01*
X58742133Y-68388893D01*
X58729520Y-68367849D01*
X58719030Y-68345671D01*
X58710765Y-68322571D01*
X58704804Y-68298773D01*
X58701204Y-68274504D01*
X58700000Y-68250000D01*
X58700000Y-66750000D01*
X58701204Y-66725496D01*
X58704804Y-66701227D01*
X58710765Y-66677429D01*
X58719030Y-66654329D01*
X58729520Y-66632151D01*
X58742133Y-66611107D01*
X58756747Y-66591402D01*
X58773223Y-66573223D01*
X58791402Y-66556747D01*
X58811107Y-66542133D01*
X58832151Y-66529520D01*
X58854329Y-66519030D01*
X58877429Y-66510765D01*
X58901227Y-66504804D01*
X58925496Y-66501204D01*
X58950000Y-66500000D01*
X62050000Y-66500000D01*
X62074504Y-66501204D01*
G37*
D12*
X69600000Y-50850000D03*
X69600000Y-52650000D03*
D13*
X109900000Y-76000000D03*
X109900000Y-79500000D03*
X109900000Y-83000000D03*
X109900000Y-86500000D03*
X109900000Y-90000000D03*
X109900000Y-93500000D03*
D11*
G36*
X111474504Y-96101204D02*
G01*
X111498773Y-96104804D01*
X111522571Y-96110765D01*
X111545671Y-96119030D01*
X111567849Y-96129520D01*
X111588893Y-96142133D01*
X111608598Y-96156747D01*
X111626777Y-96173223D01*
X111643253Y-96191402D01*
X111657867Y-96211107D01*
X111670480Y-96232151D01*
X111680970Y-96254329D01*
X111689235Y-96277429D01*
X111695196Y-96301227D01*
X111698796Y-96325496D01*
X111700000Y-96350000D01*
X111700000Y-97650000D01*
X111698796Y-97674504D01*
X111695196Y-97698773D01*
X111689235Y-97722571D01*
X111680970Y-97745671D01*
X111670480Y-97767849D01*
X111657867Y-97788893D01*
X111643253Y-97808598D01*
X111626777Y-97826777D01*
X111608598Y-97843253D01*
X111588893Y-97857867D01*
X111567849Y-97870480D01*
X111545671Y-97880970D01*
X111522571Y-97889235D01*
X111498773Y-97895196D01*
X111474504Y-97898796D01*
X111450000Y-97900000D01*
X108350000Y-97900000D01*
X108325496Y-97898796D01*
X108301227Y-97895196D01*
X108277429Y-97889235D01*
X108254329Y-97880970D01*
X108232151Y-97870480D01*
X108211107Y-97857867D01*
X108191402Y-97843253D01*
X108173223Y-97826777D01*
X108156747Y-97808598D01*
X108142133Y-97788893D01*
X108129520Y-97767849D01*
X108119030Y-97745671D01*
X108110765Y-97722571D01*
X108104804Y-97698773D01*
X108101204Y-97674504D01*
X108100000Y-97650000D01*
X108100000Y-96350000D01*
X108101204Y-96325496D01*
X108104804Y-96301227D01*
X108110765Y-96277429D01*
X108119030Y-96254329D01*
X108129520Y-96232151D01*
X108142133Y-96211107D01*
X108156747Y-96191402D01*
X108173223Y-96173223D01*
X108191402Y-96156747D01*
X108211107Y-96142133D01*
X108232151Y-96129520D01*
X108254329Y-96119030D01*
X108277429Y-96110765D01*
X108301227Y-96104804D01*
X108325496Y-96101204D01*
X108350000Y-96100000D01*
X111450000Y-96100000D01*
X111474504Y-96101204D01*
G37*
D10*
X107900000Y-54000000D03*
X107900000Y-59000000D03*
X107900000Y-64000000D03*
D11*
G36*
X109474504Y-68001204D02*
G01*
X109498773Y-68004804D01*
X109522571Y-68010765D01*
X109545671Y-68019030D01*
X109567849Y-68029520D01*
X109588893Y-68042133D01*
X109608598Y-68056747D01*
X109626777Y-68073223D01*
X109643253Y-68091402D01*
X109657867Y-68111107D01*
X109670480Y-68132151D01*
X109680970Y-68154329D01*
X109689235Y-68177429D01*
X109695196Y-68201227D01*
X109698796Y-68225496D01*
X109700000Y-68250000D01*
X109700000Y-69750000D01*
X109698796Y-69774504D01*
X109695196Y-69798773D01*
X109689235Y-69822571D01*
X109680970Y-69845671D01*
X109670480Y-69867849D01*
X109657867Y-69888893D01*
X109643253Y-69908598D01*
X109626777Y-69926777D01*
X109608598Y-69943253D01*
X109588893Y-69957867D01*
X109567849Y-69970480D01*
X109545671Y-69980970D01*
X109522571Y-69989235D01*
X109498773Y-69995196D01*
X109474504Y-69998796D01*
X109450000Y-70000000D01*
X106350000Y-70000000D01*
X106325496Y-69998796D01*
X106301227Y-69995196D01*
X106277429Y-69989235D01*
X106254329Y-69980970D01*
X106232151Y-69970480D01*
X106211107Y-69957867D01*
X106191402Y-69943253D01*
X106173223Y-69926777D01*
X106156747Y-69908598D01*
X106142133Y-69888893D01*
X106129520Y-69867849D01*
X106119030Y-69845671D01*
X106110765Y-69822571D01*
X106104804Y-69798773D01*
X106101204Y-69774504D01*
X106100000Y-69750000D01*
X106100000Y-68250000D01*
X106101204Y-68225496D01*
X106104804Y-68201227D01*
X106110765Y-68177429D01*
X106119030Y-68154329D01*
X106129520Y-68132151D01*
X106142133Y-68111107D01*
X106156747Y-68091402D01*
X106173223Y-68073223D01*
X106191402Y-68056747D01*
X106211107Y-68042133D01*
X106232151Y-68029520D01*
X106254329Y-68019030D01*
X106277429Y-68010765D01*
X106301227Y-68004804D01*
X106325496Y-68001204D01*
X106350000Y-68000000D01*
X109450000Y-68000000D01*
X109474504Y-68001204D01*
G37*
D14*
X56785000Y-89680000D03*
X56785000Y-98320000D03*
D15*
X52605000Y-89680000D03*
X52605000Y-98320000D03*
D16*
X56255000Y-96890000D03*
X56255000Y-91110000D03*
D14*
X56785000Y-51680000D03*
X56785000Y-60320000D03*
D15*
X52605000Y-51680000D03*
X52605000Y-60320000D03*
D16*
X56255000Y-58890000D03*
X56255000Y-53110000D03*
M02*
