M48
; DRILL file {KiCad 5.1.5+dfsg1-2build2} date Tue 28 Dec 2021 12:54:05 AM CET
; FORMAT={-:-/ absolute / metric / decimal}
; #@! TF.CreationDate,2021-12-28T00:54:05+01:00
; #@! TF.GenerationSoftware,Kicad,Pcbnew,5.1.5+dfsg1-2build2
; #@! TF.FileFunction,Plated,1,4,PTH
FMAT,2
METRIC
T1C0.200
T2C0.300
T3C0.600
T4C1.200
T5C1.400
%
G90
G05
T1
X64.4Y-78.2
X68.7Y-58.0
X68.7Y-60.7
X69.0Y-73.1
X69.0Y-75.6
X69.0Y-76.9
X69.2Y-61.2
X70.1Y-90.33
X70.38Y-55.77
X72.15Y-53.45
X72.308Y-58.01
X72.33Y-57.28
X72.983Y-58.135
X73.3Y-58.7
X73.55Y-55.75
X74.645Y-55.092
X75.3Y-55.25
X75.347Y-54.199
X75.404Y-52.196
X75.9Y-56.4
X75.95Y-53.7
X76.6Y-52.2
X77.4Y-51.4
X79.0Y-63.8
X79.1Y-63.1
X79.216Y-62.484
X79.305Y-61.865
X82.7Y-53.2
X83.4Y-60.8
X86.698Y-59.525
X86.7Y-53.5
X86.7Y-58.9
X86.7Y-60.15
X87.0Y-61.9
X87.5Y-63.647
X87.642Y-61.396
X87.7Y-62.4
X87.747Y-63.024
X89.6Y-62.9
X98.4Y-61.2
X98.4Y-61.9
X99.0Y-61.5
X101.2Y-61.5
X113.6Y-77.6
X113.8Y-91.8
X114.8Y-88.1
X115.175Y-84.7
X115.55Y-81.0
T2
X50.8Y-93.0
X51.9Y-61.8
X51.9Y-65.2
X51.9Y-69.4
X51.9Y-72.8
X51.9Y-77.1
X51.9Y-80.5
X51.9Y-83.9
X51.9Y-87.3
X51.9Y-91.3
X52.0Y-56.4
X53.5Y-57.9
X53.7Y-93.1
X53.7Y-95.0
X55.0Y-54.6
X55.0Y-56.5
X56.3Y-92.7
X56.3Y-93.55
X56.3Y-94.9
X56.3Y-95.7
X59.2Y-54.5
X59.2Y-57.5
X59.2Y-92.6
X59.2Y-95.6
X59.35Y-55.625
X59.35Y-56.475
X61.6Y-94.25
X61.6Y-55.1
X61.6Y-57.1
X61.6Y-93.25
X62.0Y-87.0
X62.0Y-90.0
X62.0Y-91.0
X62.7Y-55.625
X62.7Y-56.475
X63.0Y-85.0
X63.6Y-55.1
X63.6Y-57.1
X64.0Y-90.0
X64.0Y-91.0
X65.0Y-87.0
X65.5Y-59.1
X65.9Y-51.6
X66.0Y-85.0
X66.9Y-57.5
X67.0Y-73.5
X67.5Y-76.5
X68.0Y-87.0
X68.1Y-91.4
X68.2Y-55.8
X68.4Y-63.7
X68.5Y-66.5
X68.5Y-70.5
X68.6Y-53.9
X69.0Y-85.0
X71.2Y-54.4
X71.9Y-61.6
X72.0Y-67.5
X72.0Y-71.5
X72.2Y-91.4
X72.6Y-63.7
X72.9Y-50.7
X72.9Y-52.7
X74.0Y-59.1
X74.2Y-56.4
X75.1Y-60.1
X75.9Y-58.9
X76.0Y-63.3
X76.3Y-61.1
X76.7Y-51.3
X78.0Y-50.8
X79.8Y-50.7
X80.082Y-52.682
X81.1Y-57.5
X81.2Y-54.8
X81.5Y-68.5
X81.5Y-70.0
X82.3Y-52.1
X82.4Y-50.9
X82.8Y-57.9
X83.0Y-54.7
X83.0Y-68.5
X83.0Y-70.0
X83.7Y-52.2
X84.4Y-64.4
X84.5Y-71.5
X84.5Y-73.0
X84.8Y-55.5
X85.0Y-66.0
X85.0Y-68.0
X85.0Y-70.0
X85.0Y-75.5
X85.0Y-77.0
X85.0Y-78.5
X85.0Y-80.0
X85.0Y-81.5
X85.0Y-83.0
X85.35Y-54.7
X86.0Y-73.0
X86.2Y-58.2
X86.4Y-64.4
X86.5Y-75.5
X86.5Y-77.0
X86.5Y-78.5
X86.5Y-80.0
X86.5Y-81.5
X86.5Y-83.0
X87.0Y-66.0
X87.0Y-68.0
X87.0Y-70.0
X87.1Y-52.1
X88.1Y-52.1
X88.9Y-67.6
X88.902Y-55.402
X89.0Y-52.1
X89.0Y-86.0
X89.0Y-88.0
X89.0Y-98.0
X89.6Y-55.4
X89.6Y-67.6
X89.7Y-51.1
X90.3Y-55.4
X90.3Y-67.6
X91.0Y-55.4
X91.0Y-67.6
X91.0Y-86.0
X91.0Y-88.0
X91.0Y-98.0
X91.077Y-59.506
X92.0Y-59.7
X92.0Y-60.9
X92.0Y-62.1
X92.0Y-63.3
X92.2Y-56.1
X92.2Y-57.2
X92.2Y-58.3
X92.2Y-64.7
X92.2Y-65.8
X92.2Y-66.9
X93.0Y-56.7
X93.0Y-57.7
X93.0Y-65.3
X93.0Y-66.3
X93.0Y-86.0
X93.0Y-88.0
X93.0Y-98.0
X93.2Y-59.7
X93.2Y-60.9
X93.2Y-62.1
X93.2Y-63.3
X93.8Y-56.1
X93.8Y-57.2
X93.8Y-58.3
X93.8Y-64.7
X93.8Y-65.8
X93.8Y-66.9
X94.4Y-59.7
X94.4Y-60.9
X94.4Y-62.1
X94.4Y-63.3
X95.0Y-56.1
X95.0Y-57.2
X95.0Y-58.3
X95.0Y-64.7
X95.0Y-65.8
X95.0Y-66.9
X95.0Y-86.0
X95.0Y-88.0
X95.0Y-90.0
X95.0Y-92.0
X95.0Y-94.0
X95.0Y-96.0
X95.0Y-98.0
X95.6Y-59.7
X95.6Y-60.9
X95.6Y-62.1
X95.6Y-63.3
X95.8Y-56.7
X95.8Y-57.7
X95.8Y-65.3
X95.8Y-66.3
X96.6Y-56.1
X96.6Y-57.2
X96.6Y-58.3
X96.6Y-64.7
X96.6Y-65.8
X96.6Y-66.9
X96.8Y-59.7
X96.8Y-60.9
X96.8Y-62.1
X96.8Y-63.3
X97.0Y-86.0
X97.0Y-88.0
X97.0Y-90.0
X97.0Y-92.0
X97.0Y-94.0
X97.0Y-96.0
X97.0Y-98.0
X97.6Y-50.8
X97.8Y-55.4
X97.8Y-67.6
X97.8Y-60.1
X98.4Y-50.8
X98.5Y-55.4
X98.5Y-67.6
X99.0Y-88.0
X99.0Y-90.0
X99.0Y-92.0
X99.0Y-94.0
X99.0Y-96.0
X99.0Y-98.0
X99.2Y-50.8
X99.2Y-55.4
X99.2Y-64.7
X99.2Y-67.6
X99.9Y-55.4
X99.9Y-67.6
X101.3Y-72.2
X101.3Y-73.2
X101.3Y-74.2
X101.3Y-75.2
T4
X109.9Y-76.0
X109.9Y-79.5
X109.9Y-83.0
X109.9Y-86.5
X109.9Y-90.0
X109.9Y-93.5
X109.9Y-97.0
T5
X60.5Y-67.5
X60.5Y-72.5
X60.5Y-77.5
X60.5Y-82.5
X107.9Y-54.0
X107.9Y-59.0
X107.9Y-64.0
X107.9Y-69.0
T3
X52.905Y-51.68G85X52.305Y-51.68
G05
X52.905Y-60.32G85X52.305Y-60.32
G05
X57.335Y-51.68G85X56.235Y-51.68
G05
X57.335Y-60.32G85X56.235Y-60.32
G05
X52.905Y-89.68G85X52.305Y-89.68
G05
X52.905Y-98.32G85X52.305Y-98.32
G05
X57.335Y-89.68G85X56.235Y-89.68
G05
X57.335Y-98.32G85X56.235Y-98.32
G05
T0
M30
